<svg width="287" height="334" viewBox="0 0 287 334" fill="none" xmlns="http://www.w3.org/2000/svg">
<path fill-rule="evenodd" clip-rule="evenodd" d="M276.955 141.713C274.952 137.504 272.611 132.584 271.165 127.397C267.668 114.845 258.925 91.3103 248.433 77.1896C237.941 63.0689 174.99 0.310303 138.269 0.310303C108.892 0.310303 67.7407 29.5977 50.8372 44.2413C50.2543 44.7643 49.788 46.4379 52.5858 48.9482C54.1456 50.3477 53.9663 52.0593 53.7542 54.083C53.4908 56.5968 53.1769 59.5921 56.0831 63.0689C57.296 64.5199 58.135 65.6355 58.7946 66.5125C60.9878 69.4287 61.1976 69.7075 66.5749 70.9137C72.1706 72.1689 77.0667 72.4827 78.8154 72.4827C85.8099 77.7126 103.646 88.1724 119.034 88.1724C134.422 88.1724 141.766 80.8505 143.515 77.1896C144.098 80.8505 142.815 89.1138 133.023 92.8793C123.231 96.6448 116.12 95.4942 113.788 94.4482C114.371 109.615 106.094 139.948 68.3236 139.948C59.2861 139.948 54.6276 135.757 51.0475 132.537C49.0859 130.772 47.4482 129.299 45.5913 128.965C42.6769 128.442 36.4984 128.024 35.0995 130.534C34.3163 131.94 32.1299 132.086 29.7972 132.243C26.9219 132.435 23.8245 132.643 22.8591 135.241C21.1104 139.948 22.8591 143.086 26.3563 146.224C29.8536 149.362 54.3345 165.052 85.8099 165.052C110.99 165.052 124.28 155.638 127.777 150.931C124.863 156.161 116.936 167.248 108.542 169.759C100.149 172.269 87.5586 171.851 82.3126 171.328C80.564 175.511 76.717 185.762 75.3181 193.293C73.9192 200.824 73.5695 211.075 73.5695 215.259C80.564 209.506 100.498 198 124.28 198C148.061 198 171.493 218.92 180.236 229.379C169.162 222.58 143.165 208.983 127.777 208.983C108.542 208.983 59.5804 224.672 59.5804 270.172C59.5804 306.572 75.901 319.856 84.0613 321.948C79.9811 320.902 70.0722 317.241 63.0777 310.965C56.0831 304.69 52.003 294.753 50.8372 290.569C39.7625 294.23 17.6132 305.003 17.6132 318.81C17.6132 332.617 25.7734 333.977 29.8536 332.931H192.477C198.305 331.362 211.362 326.969 216.958 321.948C222.553 316.928 226.284 311.488 227.449 309.397C230.364 310.443 238.291 312.534 246.684 312.534C257.176 312.534 272.914 306.259 279.908 298.414C285.504 292.138 286.903 282.201 286.903 278.017L279.908 281.155C280.491 278.54 281.657 272.055 281.657 267.034C281.657 262.014 278.16 257.621 276.411 256.052C273.497 256.575 265.919 257.621 258.925 257.621H237.941C237.941 244.546 235.843 213.376 227.449 193.293C218.2 171.161 214.386 166.102 206.424 155.539C205.354 154.12 204.21 152.603 202.968 150.931C200.538 147.66 197.826 144.389 194.985 140.962C185.561 129.595 174.714 116.511 167.996 96.0172C161.001 74.6793 158.087 51.5632 157.504 42.6724L173.242 89.7413C176.739 99.1551 185.832 120.179 194.225 128.965C204.717 139.948 223.952 149.362 237.941 150.931C249.132 152.186 270.582 153.546 279.908 154.069C281.96 152.228 279.799 147.687 276.955 141.713ZM66.5749 108.569C61.329 114.845 54.3345 121.121 36.8481 121.121C26.3563 121.121 15.8645 117.983 8.86998 111.707C3.27434 106.686 0.709679 91.8333 0.126801 85.0344C3.62407 85.0344 11.3181 85.3482 14.1159 86.6034C16.9137 87.8586 22.2762 92.3563 24.6077 94.4482C24.0248 91.8333 23.2088 85.9758 24.6077 83.4655C26.0066 80.9551 33.3509 75.0977 36.8481 72.4827C39.1796 74.5747 44.1924 79.3862 45.5913 81.8965C46.9902 84.4069 47.3399 91.3103 47.3399 94.4482C49.0886 92.3563 53.2853 87.8586 56.0831 86.6034C58.8809 85.3482 68.9037 85.4351 73.5654 85.6354C73.4792 92.1335 71.8208 102.293 66.5749 108.569ZM157.504 25.4138C170.91 34.3046 202.269 57.7344 220.455 80.3275C238.641 102.921 256.01 131.58 262.422 143.086C256.01 142.563 239.69 140.262 225.701 135.241C208.214 128.965 195.974 110.138 185.482 85.0344C177.089 64.9517 163.333 36.3965 157.504 25.4138ZM119.034 67.7758C125.794 67.7758 131.274 62.8587 131.274 56.7931C131.274 50.7275 125.794 45.8103 119.034 45.8103C112.274 45.8103 106.794 50.7275 106.794 56.7931C106.794 62.8587 112.274 67.7758 119.034 67.7758ZM121.354 28.285C122.296 30.7373 118.615 34.0988 113.134 35.7931C107.652 37.4874 102.445 36.8729 101.504 34.4206C100.562 31.9683 104.243 28.6068 109.724 26.9125C115.206 25.2182 120.413 25.8327 121.354 28.285Z" fill="current"/>
</svg>
