<svg width="321" height="340" viewBox="0 0 321 340" fill="none" xmlns="http://www.w3.org/2000/svg">
<path fill-rule="evenodd" clip-rule="evenodd" d="M87.4813 56.931C93.893 60.5919 107.765 71.6793 111.962 86.7413C116.159 101.803 113.711 121.259 111.962 129.103L127.7 116.552C129.449 121.259 130.148 136.948 118.957 149.5C115.548 153.324 109.646 158.358 102.644 164.332C80.9138 182.871 48.5852 210.452 47.2627 238.931C46.098 264.013 60.086 280.77 66.4977 286V259.328C66.4977 245.207 69.9949 210.69 118.957 180.879C127.717 175.545 135.883 170.792 143.34 166.452C169.226 151.384 186.578 141.284 190.651 129.103C200.56 130.149 222.126 135.065 229.121 146.362C236.115 157.659 243.693 174.08 246.607 180.879C246.024 167.805 240.662 138.517 223.875 125.965C207.088 113.414 185.405 114.46 176.662 116.552C173.164 113.937 165.121 106.51 160.924 97.7241C156.727 88.9379 155.678 78.3735 155.678 74.1896L190.651 67.9138C190.068 63.2069 190.651 52.8517 197.645 49.0862C204.64 45.3207 214.549 47.5172 218.629 49.0862C216.88 46.4712 213.033 38.731 211.634 28.6896C210.466 20.3065 212.061 9.51765 212.959 3.44397C213.136 2.24251 213.287 1.22556 213.383 0.448242L230.869 13C230.869 13.7657 230.635 15.2321 230.338 17.0913C229.824 20.3117 229.121 24.7109 229.121 28.6896C229.121 34.9655 233.784 41.7643 236.115 44.3793V28.6896C236.115 23.6689 236.115 9.86203 239.613 0.448242L246.607 2.01721C251.853 4.10916 263.744 12.3724 269.339 28.6896C274.935 45.0069 277.5 57.454 278.083 61.6379C293.237 93.0172 322.848 162.993 320.05 191.862C317.726 215.837 306.141 244.659 297.6 265.906C293.286 276.64 289.748 285.441 288.574 290.707C285.936 302.541 285.164 305.542 283.618 311.545C283.525 311.909 283.428 312.284 283.328 312.672C288.574 313.195 300.815 316.996 300.815 328.362C300.815 336.207 297.318 337.776 292.072 339.345H265.842L262.345 317.379L255.35 339.345H211.634L213.383 312.672C213.383 306.397 209.186 301.376 206.388 300.121C203.591 298.865 191.234 305.874 185.405 309.534C191.234 309.011 204.64 311.103 204.64 322.086C204.64 334.44 202.303 336.033 199.54 337.916C198.923 338.336 198.284 338.772 197.645 339.345H111.962L85.7327 318.948C56.0059 307.965 0.0495605 278.155 0.0495605 223.241C0.0495605 171.465 25.9189 142.059 54.2572 110.276C55.5503 108.826 56.8101 107.417 58.0359 106.047C76.7029 85.1766 87.4813 73.1261 87.4813 56.931ZM244.858 16.1379C249.521 20.3218 259.197 30.5724 260.596 38.1034C261.995 45.6344 262.345 55.885 262.345 60.0689L244.858 50.6551C244.276 42.2873 243.46 23.6689 244.858 16.1379ZM201.143 69.4827C201.143 65.8218 202.891 58.8138 209.886 60.0689C216.88 61.3241 219.795 65.8218 220.378 67.9138L201.143 69.4827ZM265.842 248.345C258.848 248.345 246.607 244.161 241.361 242.069C246.024 248.345 257.798 260.897 267.591 260.897C277.383 260.897 285.66 248.345 288.574 242.069C283.911 244.161 272.837 248.345 265.842 248.345ZM127.7 202.845C134.112 197.092 150.432 190.293 164.421 209.121C181.908 232.655 176.662 260.897 167.919 276.586C163.364 284.759 143.438 305.351 132.946 314.241C144.021 301.69 165.82 270.31 164.421 245.207C162.673 213.828 145.186 202.845 127.7 202.845Z" fill="current"/>
</svg>
