<svg width="371" height="352" viewBox="0 0 371 352" fill="none" xmlns="http://www.w3.org/2000/svg">
<path fill-rule="evenodd" clip-rule="evenodd" d="M71.8169 72.1724L61.3251 51.7759H91.0519C85.806 40.7931 85.806 36.4 85.806 31.3793C85.806 25.1034 87.5547 18.8276 105.041 15.6897C119.03 13.1793 129.522 10.9828 145.26 0C148.757 4.7069 132.32 19.1414 122.527 20.3966C121.05 20.5859 119.58 20.7539 118.138 20.9187L118.138 20.9188C110.021 21.8464 102.765 22.6757 99.7951 26.6724C96.2978 32.9483 97.1983 36.1799 98.0465 39.2241C98.6294 41.3161 99.0179 43.0594 99.3418 44.5121C99.9894 47.4176 100.378 49.1609 101.544 50.2069C106.207 49.1609 116.932 46.4414 122.527 43.931C128.123 41.4207 128.356 29.2874 127.773 23.5345C131.853 25.6264 145.609 29.1828 167.992 26.6724C190.374 24.1621 206.462 7.84483 211.708 0C212.291 3.66092 213.456 11.9241 213.456 15.6897C213.456 19.4552 188.975 29.8103 176.735 34.5172L243.183 23.5345L223.948 36.0862L255.424 34.5172L244.932 42.3621C247.263 42.3621 261.396 43.3196 267.664 47.069C278.156 53.3448 280.487 57.5287 283.402 62.7586L272.91 61.1897C276.407 65.8966 276.407 73.1138 276.407 76.8793C276.407 80.6448 274.076 86.8161 272.91 89.431L269.413 84.7241C267.541 101.983 261.946 110.769 253.552 120.81C246.774 128.919 233.159 134.845 224.178 138.754L224.178 138.754L224.176 138.754L224.175 138.755L224.173 138.756C222.035 139.687 220.16 140.503 218.702 141.207L239.686 161.603H244.932L269.413 155.328L295.642 169.448L297.391 174.155V182L286.899 196.121L286.899 182C286.899 178.234 279.905 172.586 276.407 172.586V185.138V192.983L251.926 202.397C252.757 200.907 254.612 198.709 256.781 196.14L256.781 196.14C259.18 193.299 261.963 190.003 264.167 186.707C268.364 180.431 260.67 174.155 257.172 172.586V185.138H251.926H239.686C242.6 182 247.73 175.097 244.932 172.586C242.134 170.076 233.274 171.54 229.194 172.586L195.97 152.19C171.489 155.851 114.484 165.055 82.3088 172.586C50.1339 180.117 32.7641 213.379 28.1011 229.069C29.8497 225.931 34.7459 217.772 40.3415 210.241C45.9371 202.71 60.1594 195.598 66.571 192.983C62.4909 201.351 55.7295 221.224 61.3251 233.776C66.9208 246.328 97.3407 251.557 110.164 252.603C110.164 256.264 113.661 268.293 120.656 274.569C127.65 280.845 133.602 284.506 138.265 287.121L101.544 296.534L138.265 312.224L157.5 302.81L176.735 316.931C176.924 317.441 177.544 317.95 178.295 318.568C179.855 319.851 181.981 321.598 181.981 324.776C181.981 329.214 171.489 345.172 173.238 335.759C174.158 330.806 166.243 324.253 162.746 321.638C164.495 326.345 164.495 329.483 164.495 335.759C164.495 342.034 154.586 348.833 150.506 351.448C151.671 348.833 154.003 342.662 154.003 338.897C154.003 335.131 152.837 328.437 150.506 326.345C150.15 327.09 149.866 327.922 149.567 328.8C148.395 332.239 146.978 336.397 140.014 338.897C138.185 339.553 132.284 339.285 127.529 339.069H127.528H127.528L127.526 339.069C125.529 338.978 123.734 338.897 122.527 338.897C124.152 337.439 126.606 336.185 128.909 335.008C131.564 333.651 134.019 332.396 134.768 331.052C136.167 328.541 131.853 323.73 129.522 321.638C126.267 320.421 121.957 318.928 117.063 317.233C100.922 311.643 78.4386 303.855 66.571 296.534C38.5929 279.276 19.3579 255.741 12.3634 236.914C6.76772 221.852 10.0318 199.259 12.3634 189.845L0.12291 194.552C-1.62565 182 15.8607 171.017 15.8607 171.017C15.8607 171.017 45.5874 156.897 45.5874 152.19C45.5874 148.424 33.9299 148.529 28.1011 149.052C32.1812 144.345 46.6366 134.617 71.8169 133.362C103.292 131.793 122.527 127.086 122.527 123.948C122.527 121.438 112.036 118.718 106.79 117.672C107.955 114.534 121.128 108.886 136.516 111.397C155.751 114.534 206.462 108.259 218.702 97.2759C230.943 86.2931 230.943 72.1724 213.456 65.8966C199.467 60.8759 174.864 64.3276 167.869 83.1552L163.114 96.261C161.948 94.692 156.261 92.1042 142.008 91.5541C127.65 91 109.121 100.937 101.544 108.259C93.3834 104.598 77.5989 97.2849 85.806 95.7069C110.287 91 126.025 78.4483 129.522 72.1724C122.404 67.4655 118.907 65.8966 101.544 65.8966C93.1503 65.8966 78.2286 70.0805 71.8169 72.1724ZM89.3033 76.8793C94.8989 73.1138 98.6293 74.2644 99.7951 75.3103L96.1749 76.8793L90.929 80.0172C89.9569 80.8322 89.4897 81.2239 89.0374 81.632C88.6189 82.0095 88.2132 82.4011 87.4321 83.1549L87.4318 83.1552C87.2639 83.3172 86.9721 83.6517 86.575 84.107C84.1551 86.8813 77.8255 94.1379 71.8169 94.1379C67.7033 94.1379 62.9423 91.9672 58.3204 89.8598C55.0836 88.384 51.915 86.9393 49.0847 86.2931C43.8817 85.1051 37.8771 88.2612 42.0902 94.1379C44.4911 97.487 49.6723 96.8645 54.9814 96.2266L54.9816 96.2266C57.134 95.968 59.3074 95.7069 61.3251 95.7069C68.3197 95.7069 75.3142 100.414 75.3142 109.828C75.3142 119.241 63.0738 125.517 57.8279 125.517C53.6311 125.517 50.2505 120.287 49.0847 117.672C53.7477 117.149 61.2022 116.103 63.0738 112.966C64.7239 110.199 64.6995 105.121 57.8279 105.121C56.4883 105.121 54.9428 105.98 52.9958 107.063C49.6811 108.906 45.2023 111.397 38.5929 111.397C28.1011 111.397 20.9836 103.552 22.8552 94.1379C24.421 86.2621 31.5983 78.4483 43.8388 78.4483C50.8097 78.4483 56.6464 80.4837 61.6717 82.2362C65.4706 83.561 68.8058 84.7241 71.8169 84.7241C77.8918 84.7241 81.3287 82.3571 86.7098 78.651C87.5245 78.0899 88.3837 77.4982 89.3033 76.8793ZM299.139 72.1724L279.905 92.569L278.156 103.552L271.161 111.397C274.659 110.874 282.003 109.2 283.402 106.69L286.899 100.414C289.813 101.46 295.642 104.179 295.642 106.69C295.642 109.2 290.979 115.057 288.648 117.672C293.311 117.672 302.986 116.417 304.385 111.397C305.784 106.376 304.968 100.937 304.385 98.8448C307.3 99.8908 313.129 103.552 313.129 109.828C313.129 116.103 308.466 121.856 306.134 123.948C312.546 122.379 325.369 117.672 325.369 111.397C325.369 105.121 319.54 96.2299 316.626 92.569C318.374 92.569 322.571 93.5103 325.369 97.2759C328.167 101.041 332.364 106.167 334.112 108.259L337.609 95.7069V92.569C337.609 90.0586 336.444 87.3391 335.861 86.2931C334.112 84.2011 329.566 80.0172 325.369 80.0172H309.631L299.139 72.1724ZM306.134 130.224C290.746 130.224 281.07 137.546 278.156 141.207C279.341 141.089 280.882 140.864 282.66 140.605C288.753 139.716 297.617 138.423 304.385 139.638C314.673 141.484 349.85 152.19 349.85 185.138C349.85 211.497 326.535 226.454 314.877 230.638C321.749 225.931 333.989 216.517 334.112 192.983C334.184 179.176 318.375 161.603 309.631 164.741C313.129 167.879 320.123 177.293 320.123 189.845C320.123 205.534 304.385 221.224 281.653 222.793C258.921 224.362 211.708 180.431 204.713 172.586C200.516 167.879 189.558 167.879 185.478 169.448C186.2 170.095 187.044 170.733 187.948 171.416L187.949 171.416C189.968 172.94 192.289 174.693 194.221 177.293C197.019 181.059 199.467 185.138 199.467 192.983C190.724 188.276 186.332 185.996 166.243 185.138C129.522 183.569 119.03 214.948 119.03 227.5C119.03 240.052 120.779 257.31 134.768 271.431C145.863 282.631 158.581 285.916 168.575 288.497C174.137 289.934 178.855 291.153 181.981 293.397C188.975 298.417 189.558 304.902 188.975 307.517L197.719 304.379L204.713 296.534C204.559 297.367 204.265 298.133 203.942 298.973C203.049 301.301 201.937 304.199 202.965 310.655C204.364 319.441 208.211 323.207 215.205 327.914C214.039 324.253 212.407 315.676 215.205 310.655C218.003 305.634 223.365 302.287 225.697 301.241V324.776C225.697 332.307 221.034 340.466 218.702 343.603C222.2 344.126 230.593 344.231 236.189 340.466C243.183 335.759 248.429 331.052 248.429 321.638C248.429 314.107 244.932 306.994 243.183 304.379C245.187 306.776 246.46 308.682 247.548 310.31C249.308 312.944 250.582 314.85 253.675 316.931C260.67 321.638 267.664 323.207 272.91 323.207C272.91 319.023 271.161 308.772 264.167 301.241C257.172 293.71 240.269 291.828 232.691 291.828L251.926 280.845C248.429 278.753 239.336 274.569 230.943 274.569C223.323 274.569 214.78 278.707 211.345 280.371C210.05 280.998 209.48 281.274 209.959 280.845C211.358 279.59 209.376 273 208.21 269.862C208.21 272.477 203.664 277.707 185.478 277.707C162.746 277.707 152.254 258.879 152.254 252.603C152.254 246.328 157.5 227.5 183.73 227.5C195.744 227.5 211.06 234.742 227.661 242.591C247.304 251.879 268.746 262.017 288.648 262.017C325.369 262.017 370.834 233.776 370.834 189.845C370.834 145.914 325.369 130.224 306.134 130.224ZM194.221 235.345C193.056 238.483 189.325 246.328 183.73 252.603C178.134 258.879 172.072 263.586 169.741 265.155C167.409 263.063 162.746 257.31 162.746 251.034C162.746 244.943 165.909 244.528 170.597 243.912C171.947 243.734 173.423 243.54 174.986 243.19C180.582 241.934 190.141 237.437 194.221 235.345ZM145.26 54.9138C150.088 54.9138 154.003 52.104 154.003 48.6379C154.003 45.1719 150.088 42.3621 145.26 42.3621C140.431 42.3621 136.516 45.1719 136.516 48.6379C136.516 52.104 140.431 54.9138 145.26 54.9138Z" fill="current"/>
</svg>
