<svg viewBox="0 0 394 331" fill="none" xmlns="http://www.w3.org/2000/svg">
<path fill-rule="evenodd" clip-rule="evenodd" d="M188.853 223.724C206.798 226.652 260.547 240.983 281.53 247.259C276.284 240.983 272.787 234.707 269.29 226.862C266.26 220.067 262.878 210.649 262.295 206.466C275.119 223.201 302.864 258.869 311.257 267.655C321.749 278.638 344.481 305.31 349.727 313.155C353.924 319.431 354.973 327.276 354.973 330.414H379.454C379.454 327.276 378.405 319.431 374.208 313.155C371.392 308.945 369.08 307.446 366.461 305.748C364.2 304.283 361.71 302.669 358.47 299.034C351.476 291.19 340.984 272.362 335.738 262.948C331.541 255.417 324.663 236.799 321.749 228.431C329.909 225.816 346.23 213.369 346.23 184.5C346.23 157.797 333.782 133.671 326.6 119.752C324.077 114.86 322.204 111.229 321.749 109.19C320.35 102.914 321.166 95.069 321.749 91.931C318.834 87.7471 312.656 78.1241 311.257 73.1034C309.858 68.0828 311.84 61.5977 313.006 58.9828C313.589 62.6437 315.104 70.9069 316.503 74.6724C317.618 77.6729 320.153 79.3982 323.204 81.4741C324.94 82.6547 326.842 83.9487 328.743 85.6552C332.157 88.718 339.273 89.1235 345.272 89.4653C348.493 89.6489 351.392 89.814 353.224 90.3621C355.507 91.0449 358.453 93.2136 361.484 95.4456L361.484 95.4456C365.418 98.342 369.496 101.345 372.459 101.345C376.676 101.345 379.763 98.3034 382.629 95.4803L382.629 95.4802C383.328 94.7913 384.014 94.1155 384.7 93.5C388.197 90.3621 393.443 85.6552 393.443 79.3793C393.443 75.1954 387.225 72.4061 381.008 69.6169C377.899 68.2222 374.791 66.8276 372.459 65.2586C366.206 61.0505 358.555 46.8098 355.754 41.5966C355.422 40.9787 355.158 40.4877 354.973 40.1552C353.574 37.6448 356.722 29.6954 358.47 26.0345L365.465 7.20689C364.299 6.16092 361.268 4.69655 358.47 7.20689L347.978 16.6207L346.23 0.93103C342.15 4.06896 332.94 10.9724 328.743 13.4828C324.547 15.9931 321.166 22.8965 320 26.0345C319.609 24.9814 319.743 22.939 319.873 20.9506V20.9505L319.873 20.9502C319.937 19.9761 320 19.015 320 18.1897C320 15.6793 321.749 9.29885 323.497 7.20689C317.086 5.11494 301.115 2.5 288.525 2.5C277.656 2.5 263.452 14.4725 252.823 23.4314L252.823 23.4316L252.822 23.432L252.822 23.4323C248.06 27.4457 244.017 30.8541 241.312 32.3103C234.317 36.0759 224.408 37.0172 220.328 37.0172C224.408 40.1552 234.317 46.431 241.312 46.431H257.049C254.718 49.046 247.257 54.2759 236.066 54.2759C229.627 54.2759 222.818 51.2843 215.467 48.0551C206.848 44.2685 197.486 40.1552 187.104 40.1552C171.716 40.1552 167.869 51.6609 167.869 57.4138C156.794 59.5057 134.645 67.4552 134.645 82.5172C134.645 97.5793 155.629 102.391 166.12 102.914C163.206 101.868 157.377 98.8345 157.377 95.069C157.377 93.9922 156.92 92.9154 156.486 91.895C155.024 88.4548 153.834 85.6552 171.366 85.6552C189.552 85.6552 215.082 112.851 225.574 126.448C215.082 125.402 190.251 122.369 174.864 118.603C168.791 117.117 160.801 114.693 152.159 112.071C133.429 106.388 111.638 99.7759 99.6722 99.7759C85.6831 99.7759 72.8598 107.098 68.1968 110.759C64.6995 103.96 52.459 90.3621 31.4754 90.3621C5.24591 90.3621 0 112.328 0 124.879C0 136.489 2.99203 141.387 11.7436 155.714C12.4537 156.877 13.2017 158.101 13.9891 159.397C24.4809 176.655 31.4754 198.621 31.4754 204.897C31.4754 209.917 30.3097 215.356 29.7268 217.448C30.8925 217.971 34.2733 218.076 38.47 214.31C42.6667 210.545 42.5501 203.328 41.9673 200.19C43.133 204.374 45.4645 214.31 45.4645 220.586C45.4645 226.862 43.133 234.707 41.9673 237.845C49.5447 234.707 65.399 227.803 68.1968 225.293C71.694 222.155 80.4372 214.31 80.4372 193.914C80.4372 177.597 69.9454 162.011 64.6995 156.259C72.8598 159.397 89.1804 171.634 89.1804 195.483C89.1804 221.345 70.7546 234.217 63.5903 239.222C62.4966 239.986 61.6654 240.567 61.2022 240.983C58.4044 243.493 60.0365 246.213 61.2022 247.259C78.6886 268.178 114.361 311.272 117.159 316.293C119.956 321.314 119.49 326.753 118.907 328.845H150.383C149.8 324.138 147.585 313.469 143.388 308.448C139.191 303.428 128.816 299.034 124.153 297.466C120.656 293.282 112.962 283.972 110.164 280.207C106.667 275.5 103.169 269.224 103.169 258.241C103.169 250.737 108.884 246.896 115.85 242.212C119.08 240.041 122.579 237.689 125.902 234.707C136.394 225.293 141.639 212.741 141.639 195.483C141.639 181.676 133.479 162.534 129.399 154.69C136.394 163.58 150.383 183.872 150.383 193.914C150.383 203.955 149.217 214.833 148.634 219.017C157.377 219.017 169.618 220.586 188.853 223.724ZM354.973 192.345C356.372 184.814 355.556 179.793 354.973 178.224C363.716 178.224 389.946 187.638 389.946 195.483C389.946 200.968 386.525 205.687 383.273 210.175C381.874 212.105 380.506 213.992 379.454 215.879C377.705 219.017 376.831 223.724 375.957 228.431C375.082 233.138 374.208 237.845 372.459 240.983C369.661 246.003 351.476 253.534 342.732 256.672L335.738 233.138L358.47 231.569L363.716 208.034H351.476C352.059 205.943 353.574 199.876 354.973 192.345ZM124.153 251.966C124.153 256.986 156.794 289.621 173.115 305.31C175.446 307.402 180.809 312.528 183.607 316.293C186.404 320.059 185.938 327.276 185.355 330.414H215.082C215.082 326.753 214.033 317.862 209.836 311.586C206.642 306.81 201.504 304.36 196.789 302.112C193.759 300.668 190.905 299.307 188.853 297.466C184.656 293.7 166.12 268.701 157.377 256.672C155.629 254.58 152.131 249.141 152.131 244.121C152.131 239.1 155.629 231.569 157.377 228.431L145.137 225.293C143.289 231.924 136.697 237.592 131.333 242.203C126.543 246.321 122.733 249.597 124.153 251.966ZM339.235 29.1724C340.634 25.4069 340.984 17.1437 340.984 13.4828C340.547 13.875 339.672 14.5614 338.58 15.4193L338.579 15.4194L338.579 15.4195C335.301 17.9935 330.055 22.1121 328.743 24.4655C326.995 27.6034 323.497 35.4483 326.995 37.0172C330.492 38.5862 337.487 33.8793 339.235 29.1724ZM346.23 57.4138C343.432 56.1586 343.898 52.7069 344.481 51.1379C346.23 51.1379 350.077 51.4517 351.476 52.7069C352.875 53.9621 353.224 58.4598 353.224 60.5517L346.23 57.4138ZM295.519 32.3103C289.691 33.3563 276.634 39.2138 271.038 54.2759C266.16 67.4085 264.684 76.7243 263.644 83.2883C263.193 86.1348 262.824 88.4637 262.295 90.3621C260.896 95.3828 251.221 111.282 246.558 118.603C252.386 113.897 265.093 101.659 269.29 90.3621C271.545 84.2918 272.507 77.6417 273.428 71.2842C274.648 62.8527 275.794 54.9359 279.782 49.569C285.377 42.0379 292.605 34.9253 295.519 32.3103ZM201.093 71.5345C206.689 74.0448 217.414 74.6724 222.077 74.6724C217.929 73.9281 212.601 68.9467 207.399 64.0833C201.635 58.6948 196.026 53.4512 192.35 54.2759C186.754 55.531 186.521 61.0747 187.104 63.6897C189.435 65.2586 195.497 69.0241 201.093 71.5345ZM57.7049 115.466L57.4803 115.627C57.8522 115.914 57.9493 115.904 57.7049 115.466ZM57.4803 115.627C54.4846 117.78 48.5771 122.087 47.2132 123.31C45.8142 124.566 41.9673 129.063 40.2186 131.155C35.5556 125.925 27.9782 113.897 34.9727 107.621C41.5917 101.682 52.2194 111.029 56.2341 114.561C56.7813 115.042 57.2057 115.415 57.4803 115.627Z" fill="current"/>
</svg>
