<svg viewBox="0 0 368 293" fill="none" xmlns="http://www.w3.org/2000/svg">
<path fill-rule="evenodd" clip-rule="evenodd" d="M290.273 40.1552L279.782 43.2931C279.782 39.6322 279.082 28.231 276.284 24.4655C274.554 22.1364 270.504 18.8868 267.528 16.499C265.693 15.0265 264.266 13.8817 264.044 13.4828L248.306 0.93103L246.558 16.6207C250.055 18.7126 257.749 23.8379 260.547 27.6034C263.345 31.369 264.044 39.6322 264.044 43.2931C258.215 37.5402 245.858 25.4069 243.06 22.8965C240.263 20.3862 224.408 12.4368 216.831 8.77586C215.665 17.1437 213.683 36.0759 215.082 44.8621C216.481 53.6483 225.574 62.1207 229.071 65.2586L216.831 74.6724C216.587 74.575 216.318 74.4669 216.026 74.3496L216.023 74.3482C210.047 71.9433 194.363 65.6311 178.361 66.8276C167.662 67.6276 161.84 68.895 158.723 69.5736C156.949 69.9597 156.051 70.1552 155.629 69.9655L134.645 74.6724C125.902 69.4425 103.869 62.1207 85.6832 62.1207C67.4973 62.1207 51.2934 66.3046 45.4646 69.9655L40.2187 62.1207L38.47 60.5517L33.2242 58.9827C32.1192 58.2746 31.0998 57.4898 30.0617 56.6905C27.2663 54.5384 24.3354 52.282 19.2351 51.1379C17.5387 50.7574 10.4919 51.1379 8.74323 52.7069L10.4919 57.4138L24.481 58.9827C23.7738 59.4269 23.0066 59.8787 22.2168 60.3439C16.4967 63.7127 9.59183 67.7793 15.7378 74.6724C20.8334 80.3875 31.4755 77.8103 33.2242 65.2586L36.7214 74.6724C24.481 83.0402 9.15527e-05 107.307 9.15527e-05 137.431C9.15527e-05 180.724 22.8217 204.272 39.8411 221.832C43.1759 225.273 46.2879 228.484 48.9619 231.569L40.2187 240.983L78.6887 292.759L82.1859 283.345L96.175 292.759L90.9291 255.103C104.335 242.552 131.148 209.917 131.148 179.793C131.148 157.94 126.853 149.078 122.938 146.258C129.822 149.415 139.343 160.9 141.64 190.776C144.437 227.176 122.987 248.828 111.913 255.103C122.987 259.287 150.732 267.341 173.115 266.086C195.497 264.831 222.077 254.057 232.569 248.828L216.831 215.879C217.744 216.762 218.833 217.823 220.063 219.022L220.063 219.022C229.034 227.765 245.458 243.773 255.301 250.397C266.492 257.928 288.525 264.517 299.017 266.086V255.103L314.754 251.965L283.279 225.293C285.61 224.77 295.519 221.841 302.514 214.31C309.508 206.779 311.257 197.575 311.257 193.914C318.835 189.73 336.088 178.224 344.481 165.672C352.875 153.121 354.973 125.925 354.973 113.897C357.304 110.236 362.317 101.031 363.716 93.5C365.115 85.969 360.802 77.8103 358.47 74.6724L367.213 65.2586L330.492 35.4483C328.743 39.6322 324.197 48.6276 320 51.1379C315.804 53.6483 298.434 44.8621 290.273 40.1552ZM223.825 264.517C227.165 262.719 229.739 261.379 231.937 260.235C235.495 258.383 238.069 257.043 241.312 255.103L267.541 275.5L253.552 278.638V289.621C248.306 289.621 235.366 288.679 225.574 284.914C215.782 281.148 202.842 274.977 197.596 272.362C202.842 271.839 216.144 268.652 223.825 264.517ZM230.82 29.1724L253.552 49.569C248.306 55.8448 235.366 66.2 232.569 57.4138C229.771 48.6276 229.654 31.2644 230.82 29.1724ZM333.989 52.797V66.8276H342.732L335.07 53.1962L333.989 52.797ZM299.758 66.8276C296.26 65.2586 286.808 63.5514 282.611 67.3169C278.414 71.0824 280.862 79.3456 282.611 83.0065C282.611 81.9605 284.328 78.1242 288.525 73.1035C292.722 68.0828 298.009 66.8276 299.758 66.8276ZM20.1479 72.8141C18.7031 71.664 19.0905 69.1552 21.0132 67.2106C22.936 65.2661 25.666 64.622 27.1108 65.7721C28.5556 66.9223 28.1682 69.431 26.2455 71.3756C24.3227 73.3202 21.5928 73.9642 20.1479 72.8141ZM285.028 109.19C285.028 116.988 292.074 123.31 300.765 123.31C309.457 123.31 316.503 116.988 316.503 109.19C316.503 101.391 309.457 95.069 300.765 95.069C292.074 95.069 285.028 101.391 285.028 109.19Z" fill="current"/>
</svg>
