<svg width="368" height="334" viewBox="0 0 368 334" fill="none" xmlns="http://www.w3.org/2000/svg">
<path fill-rule="evenodd" clip-rule="evenodd" d="M293.83 10.0689C301.782 13.8345 304.875 27.3276 305.427 33.6034C310.949 41.4483 323.651 60.2758 330.278 72.8276C338.561 88.5172 348.502 108.914 348.502 126.172C348.502 143.431 340.218 176.379 333.591 187.362C328.29 196.148 315.92 215.08 310.397 223.448C310.949 233.908 312.385 257.652 313.711 268.948C315.036 280.245 317.576 298.759 318.681 306.603C320.89 305.034 326.964 302.838 333.591 306.603C340.218 310.369 344.084 325.954 345.188 333.276H295.487L264.009 248.552V237.569C261.8 242.799 254.4 253.259 242.472 253.259C227.561 253.259 154.666 226.586 146.382 223.448C139.755 220.938 129.263 220.31 124.845 220.31V190.5C124.845 181.714 111.591 162.782 104.964 154.414C109.382 162.782 118.218 182.655 118.218 195.207C118.218 210.897 113.248 228.155 98.3373 242.276C86.4089 253.572 59.1283 264.764 46.979 268.948L63.5462 306.603C65.7551 305.557 71.8298 303.466 78.4566 303.466C85.0835 303.466 91.1581 323.339 93.3671 333.276H43.6656C40.9044 331.184 35.382 326.059 35.382 322.293V309.741L3.90432 257.966C2.79984 256.92 0.590881 253.572 0.590881 248.552C0.590881 243.501 10.2477 239.467 17.4723 236.448C19.225 235.716 20.8345 235.044 22.1282 234.431C23.2652 233.893 24.4022 233.4 25.5057 232.923C30.834 230.616 35.382 228.647 35.382 223.448C35.382 221.017 31.4032 214.111 26.5287 205.65C18.8213 192.272 8.87447 175.008 8.87447 165.397C8.87447 152.845 17.7103 138.201 22.1282 132.448C16.0536 125.649 3.90432 107.031 3.90432 86.9483C3.90432 61.8448 32.0685 39.8793 58.576 39.8793C71.6289 39.8793 85.8869 44.825 100.361 49.8458C115.281 55.021 130.43 60.2758 144.725 60.2758C167.257 60.2758 170.681 42.4942 169.576 33.6034C169.024 27.3276 164.937 14.7758 153.009 14.7758C138.098 14.7758 138.098 21.0517 138.098 24.1896C138.098 26.7808 140.107 29.372 141.912 31.7015C143.386 33.6034 144.725 35.3309 144.725 36.7414C144.725 39.8793 139.755 46.1552 131.472 41.4483C123.188 36.7414 123.188 30.4655 123.188 24.1896C123.188 17.9138 129.815 0.655151 153.009 0.655151C176.203 0.655151 184.487 22.6207 184.487 36.7414C184.487 50.862 174.546 74.3965 144.725 74.3965C129.602 74.3965 114.904 69.9577 100.417 65.5823C86.3378 61.3301 72.4569 57.1379 58.576 57.1379C30.4118 57.1379 22.1282 80.6724 22.1282 86.9483C22.1282 93.2241 25.4417 115.19 33.7252 113.621C35.8931 113.21 38.6284 110.865 42.4061 107.627C53.0633 98.4902 72.0169 82.2414 109.934 82.2414C149.409 82.2414 171.266 95.2177 183.781 102.648C187.549 104.885 190.47 106.619 192.77 107.345C202.71 110.483 222.591 113.621 230.875 113.621H270.636C278.588 113.621 290.517 105.253 295.487 101.069C290.517 104.207 276.508 108.6 269.881 107.345C266.529 106.71 264.386 105.561 262.254 104.419C259.117 102.737 256.003 101.069 249.099 101.069C246.866 101.069 246.136 102.123 245.274 103.367C244.032 105.158 242.517 107.345 235.845 107.345C230.875 107.345 224.248 99.5 227.561 94.7931C230.212 91.0276 224.401 86.9483 220.919 85.3793L224.248 82.2414L230.875 86.9483C233.636 86.9483 240.152 85.6931 244.128 80.6724C248.105 75.6517 249.099 69.1666 249.099 66.5517H224.248V74.3965H217.621V66.5517C214.308 64.9827 207.349 59.6483 206.024 50.862C204.699 42.0758 209.89 39.8793 212.651 39.8793L209.337 33.6034C209.89 32.5575 212.319 29.8379 217.621 27.3276C222.922 24.8172 228.666 26.2816 230.875 27.3276L239.158 19.4827H265.666C269.531 14.7758 280.576 6.30343 293.83 10.0689ZM331.933 209.328C335.909 203.052 339.113 194.161 340.217 190.5C358.629 202.124 364.253 219.13 366.299 225.319C366.463 225.813 366.603 226.238 366.726 226.586C368.383 231.293 370.039 253.259 358.442 267.379C346.844 281.5 326.963 273.655 323.649 268.948C320.336 264.241 320.336 259.534 323.649 253.259C326.3 248.238 338.008 249.075 343.531 250.121L340.217 231.293L320.336 226.586C322.545 223.448 327.957 215.603 331.933 209.328ZM138.098 229.724C132.796 228.469 124.844 229.201 121.531 229.724C120.426 231.816 116.892 237.255 111.59 242.276C109.564 244.195 107.538 245.82 105.654 247.332C101.376 250.764 97.8301 253.609 96.68 257.966C95.3546 262.986 97.2322 266.333 98.3367 267.379L157.979 323.862L172.889 333.276H209.337C206.576 323.339 199.728 303.466 194.426 303.466C189.125 303.466 181.173 305.557 177.859 306.603L134.784 256.397L148.038 236C146.934 234.431 143.399 230.979 138.098 229.724ZM276.875 19.4828C279.79 17.3908 286.668 13.8345 290.864 16.3448C295.061 18.8552 294.944 25.7586 294.362 28.8966C287.367 29.4196 274.077 28.269 276.875 19.4828ZM245.4 25.7586C241.203 25.7586 241.32 27.8506 241.903 28.8965H252.394C251.811 27.8506 249.597 25.7586 245.4 25.7586ZM268.132 30.4655C270.464 32.5575 272.678 37.6827 262.886 41.4483C253.094 45.2138 262.303 35.6954 268.132 30.4655ZM280.372 57.1379C284.569 54.6276 285.618 45.6322 285.618 41.4483C283.87 44.0632 279.673 49.9207 276.875 52.431C274.077 54.9414 267.549 56.6149 264.635 57.1379C268.132 58.1839 276.176 59.6483 280.372 57.1379ZM276.875 80.6724C282.704 80.6724 295.76 79.1034 301.356 72.8276C306.952 66.5517 304.853 52.431 303.105 46.1552C301.939 51.908 298.908 64.3551 296.11 68.1207C293.312 71.8862 282.121 78.0574 276.875 80.6724ZM331.083 75.9655C332.249 80.6724 333.881 90.7138 331.083 93.2241C328.285 95.7345 318.26 97.408 313.597 97.931L322.34 90.0862L331.083 75.9655ZM70.5363 102.638L84.5254 97.931C86.274 101.592 89.7713 110.169 89.7713 115.19C89.7713 120.21 88.6055 130.879 88.0226 135.586C87.4398 131.925 85.5745 123.034 82.7767 116.759C81.2121 113.249 80.3474 111.309 79.0866 109.676C77.5294 107.658 75.3678 106.106 70.5363 102.638ZM56.5472 121.465C52.3505 117.7 45.4725 113.621 42.5581 112.052C44.3068 115.19 48.5035 122.407 51.3013 126.172C54.0991 129.938 55.9643 136.109 56.5472 138.724C58.2958 134.54 60.7439 125.231 56.5472 121.465ZM35.5636 165.397C38.478 160.167 46.4051 149.707 54.7986 149.707C63.192 149.707 74.6164 157.029 79.2795 160.69C75.7822 159.644 66.6893 157.552 58.2958 157.552C49.9024 157.552 39.6437 162.782 35.5636 165.397ZM77.5308 188.931C66.3396 183.91 49.5527 189.977 42.5581 193.638C49.5527 193.638 65.6401 194.579 74.0336 198.345C82.427 202.11 90.3541 211.42 93.2685 215.603C92.6857 208.805 88.7221 193.952 77.5308 188.931ZM46.0554 223.448C50.7184 222.402 61.0937 220.938 65.2904 223.448C69.4871 225.959 69.3705 239.138 68.7876 245.414C68.2048 242.799 65.9898 236.628 61.7931 232.862C57.5964 229.097 49.5527 225.017 46.0554 223.448ZM30.3177 234.431C32.6492 237.046 37.6619 242.903 39.0609 245.414C40.4598 247.924 39.6437 254.828 39.0609 257.965C37.3122 255.874 33.4652 251.062 32.0663 248.552C30.6674 246.041 30.3177 238.092 30.3177 234.431ZM152.722 108.914L166.711 113.621C161.465 118.328 152.722 129.31 152.722 138.724C152.722 143.25 154.743 149.951 156.841 156.91C159.108 164.427 161.465 172.245 161.465 177.948C161.465 188.931 152.722 207.759 154.471 199.914C156.219 192.069 152.722 170.103 149.225 163.828C145.728 157.552 140.482 146.569 140.482 134.017C140.482 123.976 148.642 113.098 152.722 108.914ZM187.695 121.465H203.433C199.935 125.649 196.438 134.959 196.438 145C196.438 150.642 197.851 155.333 199.407 160.498C201.313 166.823 203.433 173.859 203.433 184.224C203.433 217.172 187.695 217.172 192.941 212.465C198.187 207.759 196.438 184.224 192.941 173.241C191.714 169.388 190.056 165.92 188.421 162.5C185.396 156.174 182.449 150.01 182.449 141.862C182.449 131.821 185.946 124.08 187.695 121.465ZM129.99 102.638L116.001 99.5V119.897C116.001 126.172 112.504 135.063 110.755 138.724C114.835 135.063 123.695 126.172 126.493 119.897L126.493 119.896C128.317 115.804 129.19 113.846 129.607 111.796C129.99 109.917 129.99 107.959 129.99 104.207V102.638ZM234.908 220.31C232.11 217.8 230.245 208.805 229.662 204.621C229.662 207.296 228.848 209.972 228.054 212.586C226.518 217.635 225.053 222.451 229.662 226.586C235.258 231.607 242.485 228.678 245.4 226.586C243.068 225.54 237.706 222.821 234.908 220.31ZM285.618 162.259C281.538 160.167 271.28 156.297 262.886 157.552C254.493 158.807 250.063 170.626 248.897 176.379C251.811 173.764 258.689 167.907 262.886 165.397C268.132 162.259 275.127 162.259 285.618 162.259ZM236.657 138.724C236.657 131.193 231.994 128.264 229.662 127.741C229.662 130.822 227.775 134.144 225.588 137.993C222.206 143.947 218.108 151.161 219.17 160.69C220.569 173.241 224.416 182.655 226.165 185.793V166.965C226.165 163.222 228.554 158.763 231.053 154.102C233.789 148.995 236.657 143.645 236.657 138.724ZM297.859 195.207C294.944 192.069 287.017 186.735 278.624 190.5C270.23 194.266 264.635 207.759 262.886 214.035C267.549 209.851 278.274 200.855 283.87 198.345C289.465 195.835 295.527 195.207 297.859 195.207ZM276.875 236C276.875 238.51 285.035 234.954 289.116 232.862L303.105 226.586C295.559 224.329 291.631 225.319 288.719 226.052C287.582 226.339 286.6 226.586 285.618 226.586C282.121 226.586 276.875 232.862 276.875 236ZM292.613 253.259H306.602C308.001 253.259 307.185 246.983 306.602 243.845L301.356 248.552L292.613 253.259ZM322.34 152.845C319.542 155.355 311.848 153.891 308.351 152.845C315.028 158.836 317.456 161.014 320.142 161.402C321.676 161.623 323.294 161.26 325.837 160.69C331.433 159.434 335.163 145.523 336.329 138.724C332.832 142.385 325.138 150.334 322.34 152.845ZM282.121 130.879C291.913 134.645 309.516 131.402 317.094 129.31C307.301 129.31 294.362 126.172 289.116 124.603C285.035 122.512 276.176 118.641 273.378 119.897C269.881 121.466 269.881 126.172 282.121 130.879Z" fill="current"/>
</svg>
