<svg viewBox="0 0 26 26" fill="none" xmlns="http://www.w3.org/2000/svg">
<path fill-rule="evenodd" clip-rule="evenodd" d="M5 26C2.23858 26 0 23.7614 0 21V5C0 2.23858 2.23858 0 5 0H21C23.7614 0 26 2.23858 26 5V21C26 23.7614 23.7614 26 21 26H5ZM15.171 11.008V5.63198C15.171 5.24798 14.8616 4.97064 14.243 4.79997L13.315 4.67197C12.995 4.67197 12.6856 4.71464 12.387 4.79997C11.7683 4.97064 11.459 5.24798 11.459 5.63198V11.008H6.01897C5.63497 11.008 5.35764 11.3173 5.18697 11.936C5.10164 12.256 5.05897 12.5653 5.05897 12.864C5.05897 13.1626 5.10164 13.472 5.18697 13.792C5.35764 14.4106 5.63497 14.72 6.01897 14.72H11.459V20.192C11.459 20.576 11.7683 20.8533 12.387 21.024L13.315 21.152C13.635 21.152 13.9443 21.1093 14.243 21.024C14.8616 20.8533 15.171 20.576 15.171 20.192V14.72H20.579C20.963 14.72 21.2403 14.4106 21.411 13.792C21.4963 13.472 21.539 13.1626 21.539 12.864C21.539 12.5653 21.4963 12.256 21.411 11.936C21.2403 11.3173 20.963 11.008 20.579 11.008H15.171Z" fill="current"/>
</svg>
