<svg viewBox="0 0 26 26" fill="none" xmlns="http://www.w3.org/2000/svg">
<path fill-rule="evenodd" clip-rule="evenodd" d="M5 26C2.23858 26 0 23.7614 0 21V5C0 2.23858 2.23858 0 5 0H21C23.7614 0 26 2.23858 26 5V21C26 23.7614 23.7614 26 21 26H5ZM15.1782 18.2189L9.54491 12.6612L15.1782 7.10336C15.616 6.67148 15.6813 5.91561 15.324 5.41507C14.9668 4.91453 14.3224 4.85887 13.8846 5.29075L7.37631 11.7118C7.12716 11.9576 6.99867 12.3084 7.00006 12.6573C6.99676 13.0087 7.1253 13.3628 7.37626 13.6104L13.8846 20.0315C14.3223 20.4634 14.9668 20.4077 15.324 19.9072C15.6812 19.4067 15.6159 18.6508 15.1782 18.2189Z" fill="current"/>
</svg>
