<svg viewBox="0 0 26 26" fill="none" xmlns="http://www.w3.org/2000/svg">
<path d="M13 14.6027C13.8852 14.6027 14.6027 13.8852 14.6027 13C14.6027 12.1148 13.8852 11.3973 13 11.3973C12.1148 11.3973 11.3973 12.1148 11.3973 13C11.3973 13.8852 12.1148 14.6027 13 14.6027Z" fill="white"/>
<path fill-rule="evenodd" clip-rule="evenodd" d="M26 13C26 20.1797 20.1797 26 13 26C5.8203 26 0 20.1797 0 13C0 5.8203 5.8203 0 13 0C20.1797 0 26 5.8203 26 13ZM13.5573 5.77402C13.3105 5.19861 12.4947 5.19861 12.2479 5.77402L9.31871 12.6038C9.26592 12.7269 9.2506 12.8536 9.26592 12.9736C9.2506 13.0937 9.26592 13.2204 9.31871 13.3435L12.2479 20.1733C12.4947 20.7487 13.3105 20.7487 13.5573 20.1733L16.4865 13.3435C16.5393 13.2204 16.5546 13.0937 16.5393 12.9736C16.5546 12.8536 16.5393 12.7269 16.4865 12.6038L13.5573 5.77402Z" fill="current"/>
</svg>
