<svg viewBox="0 0 26 26" fill="none" xmlns="http://www.w3.org/2000/svg">
<path d="M13.3604 13.7959C17.5311 13.7959 20.912 10.7076 20.912 6.89796C20.912 3.08832 17.5311 0 13.3604 0C9.1898 0 5.80884 3.08832 5.80884 6.89796C5.80884 10.7076 9.1898 13.7959 13.3604 13.7959Z" fill="current"/>
<path d="M1.74267 26L24.2573 26.0001C24.8382 26.0001 25.9999 25.6817 25.9999 24.4082C25.9999 22.8164 25.9999 22.2858 24.8382 19.6327C23.6764 16.9797 21.9337 14.8572 20.191 14.8572C19.4692 14.8572 18.7473 15.1303 17.9017 15.4503C16.7057 15.9028 15.262 16.4491 13.2203 16.4491C13.1446 16.4491 13.0712 16.4538 13.0002 16.463C12.929 16.4537 12.8555 16.449 12.7796 16.449C10.7379 16.449 9.29426 15.9028 8.09828 15.4503C7.25259 15.1303 6.53075 14.8572 5.80892 14.8572C4.06624 14.8572 2.32357 16.9796 1.16178 19.6327C0 22.2857 0 22.8164 0 24.4082C0 25.6817 1.16178 26 1.74267 26Z" fill="current"/>
</svg>
