<svg xmlns="http://www.w3.org/2000/svg" width="222" height="201" viewBox="0 0 222 201" fill="none">
  <g filter="url(#filter0_d_10_2449)">
    <ellipse cx="111.841" cy="100.955" rx="68.9545" ry="74.5792" fill="white"/>
    <path d="M178.296 100.955C178.296 140.951 148.362 173.034 111.841 173.034C75.3202 173.034 45.3865 140.951 45.3865 100.955C45.3865 60.9583 75.3202 28.8756 111.841 28.8756C148.362 28.8756 178.296 60.9583 178.296 100.955Z" stroke="white" stroke-width="5"/>
  </g>
  <path d="M113.512 5.632V11.008H118.92C119.304 11.008 119.581 11.3173 119.752 11.936C119.837 12.256 119.88 12.5653 119.88 12.864C119.88 13.1627 119.837 13.472 119.752 13.792C119.581 14.4107 119.304 14.72 118.92 14.72H113.512V20.192C113.512 20.576 113.203 20.8533 112.584 21.024C112.285 21.1093 111.976 21.152 111.656 21.152L110.728 21.024C110.109 20.8533 109.8 20.576 109.8 20.192V14.72H104.36C103.976 14.72 103.699 14.4107 103.528 13.792C103.443 13.472 103.4 13.1627 103.4 12.864C103.4 12.5653 103.443 12.256 103.528 11.936C103.699 11.3173 103.976 11.008 104.36 11.008H109.8V5.632C109.8 5.248 110.109 4.97067 110.728 4.8C111.027 4.71467 111.336 4.672 111.656 4.672L112.584 4.8C113.203 4.97067 113.512 5.248 113.512 5.632Z" fill="white"/>
  <path d="M118.155 192.544H105.515C105.131 192.544 104.853 192.235 104.683 191.616C104.597 191.296 104.555 190.987 104.555 190.688C104.555 190.39 104.597 190.08 104.683 189.76C104.853 189.142 105.131 188.832 105.515 188.832H118.155C118.539 188.832 118.816 189.142 118.987 189.76C119.072 190.08 119.115 190.39 119.115 190.688C119.115 190.987 119.072 191.296 118.987 191.616C118.816 192.235 118.539 192.544 118.155 192.544Z" fill="white"/>
  <path fill-rule="evenodd" clip-rule="evenodd" d="M47.0119 43.4527L33.901 47.4898C32.947 47.7835 32.0738 47.156 31.9508 46.0882C31.8278 45.0204 32.5015 43.9166 33.4555 43.6228L48.69 38.9319C49.2307 38.7654 49.7455 38.8948 50.1124 39.2327C50.4975 39.5428 50.7293 40.0543 50.7021 40.6597L49.934 57.7714C49.8859 58.843 49.0448 59.803 48.0553 59.9157C47.0659 60.0284 46.3028 59.251 46.3509 58.1794L47.0119 43.4527Z" fill="white"/>
  <path fill-rule="evenodd" clip-rule="evenodd" d="M174.777 158.34L175.696 143.631C175.763 142.56 175.013 141.766 174.022 141.859C173.031 141.951 172.173 142.894 172.106 143.965L171.038 161.056C171 161.663 171.224 162.18 171.606 162.498C171.967 162.842 172.478 162.98 173.02 162.825L188.333 158.448C189.292 158.174 189.986 157.084 189.881 156.014C189.777 154.944 188.915 154.299 187.955 154.573L174.777 158.34Z" fill="white"/>
  <path fill-rule="evenodd" clip-rule="evenodd" d="M46.0015 158.663C46.2418 158.979 46.6166 159.163 47.0138 159.163C48.0922 159.163 48.6945 157.907 48.0406 157.049C36.4149 141.802 29.4318 122.261 29.4318 100.955C29.4318 79.2302 36.692 59.3396 48.7313 43.9665C49.4015 43.1108 48.8012 41.8371 47.7143 41.8371C47.3228 41.8371 46.9526 42.0155 46.7117 42.3241C34.3562 58.1561 26.9092 78.6148 26.9092 100.955C26.9092 122.863 34.0714 142.963 46.0015 158.663ZM195.091 100.955C195.091 122.863 187.929 142.963 175.999 158.663C175.758 158.979 175.384 159.163 174.986 159.163C173.908 159.163 173.306 157.907 173.96 157.049C185.585 141.802 192.568 122.261 192.568 100.955C192.568 79.2302 185.308 59.3397 173.269 43.9667C172.599 43.1109 173.199 41.8371 174.286 41.8371C174.677 41.8371 175.048 42.0155 175.288 42.3242C187.644 58.1561 195.091 78.6148 195.091 100.955Z" fill="white"/>
</svg>