<svg viewBox="0 0 26 26" fill="none" xmlns="http://www.w3.org/2000/svg">
<path fill-rule="evenodd" clip-rule="evenodd" d="M5 0C2.23858 0 0 2.23858 0 5V21C0 23.7614 2.23858 26 5 26H16.25V20.1667C16.25 17.4052 18.4886 15.1667 21.25 15.1667H26V5C26 2.23858 23.7614 0 21 0H5ZM26 18.702V18.1667H21.25C20.1454 18.1667 19.25 19.0621 19.25 20.1667V25.452L26 18.702ZM7.58333 6.5C6.98502 6.5 6.5 6.98502 6.5 7.58333C6.5 8.18164 6.98503 8.66667 7.58333 8.66667H18.4167C19.015 8.66667 19.5 8.18164 19.5 7.58333C19.5 6.98502 19.015 6.5 18.4167 6.5H7.58333ZM7.58333 10.8333C6.98502 10.8333 6.5 11.3184 6.5 11.9167C6.5 12.515 6.98503 13 7.58333 13H18.4167C19.015 13 19.5 12.515 19.5 11.9167C19.5 11.3184 19.015 10.8333 18.4167 10.8333H7.58333ZM6.5 16.25C6.5 15.6517 6.98502 15.1667 7.58333 15.1667H13C13.5983 15.1667 14.0833 15.6517 14.0833 16.25C14.0833 16.8483 13.5983 17.3333 13 17.3333H7.58333C6.98503 17.3333 6.5 16.8483 6.5 16.25Z" fill="current"/>
</svg>
