<svg viewBox="0 0 17 17" fill="none" xmlns="http://www.w3.org/2000/svg">
<path fill-rule="evenodd" clip-rule="evenodd" d="M17 12C17 14.7614 14.7612 17 12 17H5C2.23877 17 0 14.7614 0 12V5C0 2.23859 2.23877 0 5 0H12C14.7612 0 17 2.23859 17 5V12ZM4.26807 13.1881C3.94238 12.9523 3.90869 12.5308 4.19287 12.2465L7.66162 8.77783L4.33936 5.45544C4.05518 5.17114 4.01562 4.67664 4.25146 4.35095C4.4873 4.02521 4.90869 3.9917 5.19287 4.276L8.67822 7.76123L12.1978 4.24188C12.4819 3.95758 12.9766 3.91821 13.3022 4.15399C13.6279 4.38977 13.6611 4.81134 13.377 5.09564L9.69482 8.77783L13.1978 12.2805C13.4819 12.5648 13.5215 13.0593 13.2856 13.385C13.0498 13.7108 12.6279 13.7443 12.3438 13.46L8.67822 9.79443L5.37256 13.1002C5.08838 13.3845 4.59375 13.4239 4.26807 13.1881Z" fill="#current"/>
</svg>
