<svg viewBox="0 0 17 17" fill="none" xmlns="http://www.w3.org/2000/svg">
<path fill-rule="evenodd" clip-rule="evenodd" d="M17 12C17 14.7614 14.7614 17 12 17H5C2.23858 17 0 14.7614 0 12L0 5C0 2.23858 2.23858 0 5 0H12C14.7614 0 17 2.23858 17 5V12ZM11.9123 7.07581L8.27844 10.7591L4.6445 7.07577C4.36212 6.78955 3.8679 6.74686 3.54062 6.98043C3.21335 7.21399 3.17695 7.63535 3.45933 7.92157L7.65774 12.177C7.81833 12.3398 8.04744 12.4238 8.2754 12.423C8.50534 12.4253 8.73708 12.3413 8.8991 12.1771L13.0975 7.92161C13.3799 7.63539 13.3435 7.21403 13.0162 6.98047C12.6889 6.7469 12.1947 6.78959 11.9123 7.07581Z" fill="current"/>
</svg>
