<svg viewBox="0 0 26 26" fill="none" xmlns="http://www.w3.org/2000/svg">
<path fill-rule="evenodd" clip-rule="evenodd" d="M5 0C2.23858 0 0 2.23858 0 5V21C0 23.7614 2.23858 26 5 26H21C23.7614 26 26 23.7614 26 21V5C26 2.23858 23.7614 0 21 0H5ZM16.2929 4.70711C16.6834 4.31658 17.3166 4.31658 17.7071 4.70711L20.6842 7.68425C21.0748 8.07477 21.0748 8.70794 20.6842 9.09846L18.5629 11.2198L14.1715 6.82849L16.2929 4.70711ZM12.7573 8.2427L17.1487 12.6341L11.005 18.7777C10.8616 18.9211 10.6779 19.0176 10.4783 19.0542L6.83252 19.7228C6.14409 19.8491 5.54227 19.2473 5.66853 18.5588L6.3372 14.913C6.3738 14.7135 6.47023 14.5298 6.61369 14.3863L12.7573 8.2427Z" fill="current"/>
</svg>
