<svg viewBox="0 0 26 26" fill="none" xmlns="http://www.w3.org/2000/svg">
<path fill-rule="evenodd" clip-rule="evenodd" d="M5 0C2.23858 0 0 2.23858 0 5V21C0 23.7614 2.23858 26 5 26H21C23.7614 26 26 23.7614 26 21V5C26 2.23858 23.7614 0 21 0H5ZM13.8485 15.6998C16.7157 15.0533 18.8571 12.491 18.8571 9.42856C18.8571 5.87817 15.979 3 12.4286 3C8.87817 3 6 5.87817 6 9.42856C6 12.491 8.14142 15.0533 11.0086 15.6998C11.0029 15.7514 11 15.804 11 15.8571V17.2857H9.57143C8.78245 17.2857 8.14286 17.9253 8.14286 18.7143C8.14286 19.5033 8.78245 20.1429 9.57143 20.1429H11V21.5714C11 22.3604 11.6396 23 12.4286 23C13.2175 23 13.8571 22.3604 13.8571 21.5714V20.1429H15.2857C16.0747 20.1429 16.7143 19.5033 16.7143 18.7143C16.7143 17.9253 16.0747 17.2857 15.2857 17.2857H13.8571V15.8571C13.8571 15.804 13.8542 15.7514 13.8485 15.6998ZM16 9.42857C16 11.401 14.401 13 12.4286 13C10.4561 13 8.85713 11.401 8.85713 9.42857C8.85713 7.45612 10.4561 5.85714 12.4286 5.85714C14.401 5.85714 16 7.45612 16 9.42857Z" fill="current"/>
</svg>
