<?xml version="1.0"?>
<svg width="34" height="34" xmlns="http://www.w3.org/2000/svg" xmlns:svg="http://www.w3.org/2000/svg">
 <defs>
  <filter color-interpolation-filters="sRGB" filterUnits="userSpaceOnUse" height="34" id="filter0_d_1_2155" width="34" x="0" y="0">
   <feFlood flood-opacity="0" result="BackgroundImageFix"/>
   <feColorMatrix in="SourceAlpha" result="hardAlpha" type="matrix" values="0 0 0 0 0 0 0 0 0 0 0 0 0 0 0 0 0 0 127 0"/>
   <feOffset dy="4"/>
   <feGaussianBlur stdDeviation="2"/>
   <feComposite in2="hardAlpha" operator="out"/>
   <feColorMatrix type="matrix" values="0 0 0 0 0 0 0 0 0 0 0 0 0 0 0 0 0 0 0.25 0"/>
   <feBlend in2="BackgroundImageFix"/>
   <feBlend in="SourceGraphic" in2="effect1_dropShadow_1_2155"/>
  </filter>
 </defs>
 <g class="layer">
  <title>Layer 1</title>
  <g filter="url(#filter0_d_1_2155)" id="svg_1">
   <path clip-rule="evenodd" d="m12.49,5.33c1.99,-0.76 2.99,-3 2.22,-4.99c1.81,-0.25 3.61,-0.19 5.35,0.13c-0.85,1.95 0.03,4.24 1.98,5.09c1.95,0.87 4.24,0 5.11,-1.95c1.42,1.07 2.66,2.37 3.7,3.88c-1.99,0.78 -2.97,3.01 -2.2,5c0.76,1.99 3,2.99 4.99,2.22c0.25,1.81 0.19,3.61 -0.13,5.35c-1.95,-0.85 -4.24,0.03 -5.09,1.98c-0.87,1.95 0,4.24 1.95,5.11c-1.07,1.42 -2.37,2.66 -3.88,3.7c-0.78,-1.99 -3.01,-2.97 -5,-2.2c-1.99,0.76 -2.99,3 -2.22,4.99c-1.81,0.25 -3.61,0.19 -5.35,-0.13c0.85,-1.95 -0.03,-4.24 -1.98,-5.09c-1.95,-0.87 -4.24,0 -5.11,1.95c-1.42,-1.07 -2.66,-2.37 -3.7,-3.88c1.99,-0.78 2.97,-3.01 2.2,-5c-0.76,-1.99 -3,-2.99 -4.99,-2.22c-0.25,-1.81 -0.19,-3.61 0.13,-5.35c1.95,0.85 4.24,-0.03 5.09,-1.98c0.87,-1.95 -0.01,-4.24 -1.95,-5.11c1.07,-1.42 2.37,-2.66 3.88,-3.7c0.78,1.99 3.01,2.97 5,2.2zm4.9,17.8c3.32,0 6.02,-2.7 6.02,-6.02c0,-3.34 -2.7,-6.04 -6.02,-6.04c-3.34,0 -6.04,2.7 -6.04,6.04c0,3.32 2.7,6.02 6.04,6.02z" fill="white" fill-rule="evenodd" id="svg_2"/>
  </g>
 </g>
</svg>