<?xml version="1.0"?>
<svg viewBox="0 0 26 26" xmlns="http://www.w3.org/2000/svg" xmlns:svg="http://www.w3.org/2000/svg">
  <path clip-rule="evenodd" d="m13,26c7.18,0 13,-5.82 13,-13c0,-7.18 -5.82,-13 -13,-13c-7.18,0 -13,5.82 -13,13c0,7.18 5.82,13 13,13zm-4.17,-4.45c-1.84,-1 -5.5,-4 -5.5,-8c0,-5 3.5,-9 8.5,-9c5,0 5,4 5,5c0,1 -1,4 -4.5,4c-3.5,0 -4.5,3 -4.5,4.5c0,1.5 0.5,2.5 1,3.5zm6,-13c0,0.83 -0.67,1.5 -1.5,1.5c-0.83,0 -1.5,-0.67 -1.5,-1.5c0,-0.83 0.67,-1.5 1.5,-1.5c0.83,0 1.5,0.67 1.5,1.5zm-1.5,11.5c0.83,0 1.5,-0.67 1.5,-1.5c0,-0.83 -0.67,-1.5 -1.5,-1.5c-0.83,0 -1.5,0.67 -1.5,1.5c0,0.83 0.67,1.5 1.5,1.5z" fill="current" fill-rule="evenodd" id="svg_1" transform="rotate(-180 13 13)"/>
</svg>
