<?xml version="1.0"?>
<svg viewBox="0 0 36 36">
   <circle cx="13.04" cy="13.05" fill="white" r="12.91" transform="matrix(-1.38373 0 0 -1.38373 36.0466 36.0575)"/>
   <path d="m24.64,3.27c-8.21,-3.75 -17.89,-0.14 -21.64,8.05c-3.74,8.19 -0.11,17.86 8.09,21.61l0.03,0.01c4.14,1.9 8.99,0.11 10.86,-3.99c1.87,-4.08 0.03,-8.93 -4.1,-10.82l0.03,0.01c-4.11,-1.87 -5.92,-6.72 -4.05,-10.83c1.88,-4.1 6.72,-5.91 10.85,-4.03l-0.07,-0.03z" fill="#5767A0" />
   <path d="m11.19,33.06c8.21,3.74 17.89,0.14 21.64,-8.05c3.74,-8.19 0.11,-17.88 -8.09,-21.63l-0.03,-0.01c-4.14,-1.88 -8.99,-0.1 -10.86,3.99c-1.87,4.1 -0.03,8.94 4.1,10.82l-0.03,-0.01c4.11,1.88 5.92,6.72 4.05,10.83c-1.87,4.11 -6.72,5.91 -10.83,4.04l0.06,0.03z" fill="white" />
   <path d="m23.45,29.14c0.36,0.65 1.88,-0.94 3.17,-1.98c1.3,-1.11 1.88,-2.68 2.01,-3.33c0.35,-0.28 0.83,-1.26 1.12,-2.44c0.28,-1.18 0.3,-2.57 0.17,-3.2l0.66,0.3c0.26,0.12 0.79,0.04 0.97,-0.36c0.19,-0.42 -0.54,-0.58 -1.08,-0.83c-0.43,-0.19 -0.9,-0.84 -1.08,-1.15c-0.22,-0.69 -0.76,-2.31 -1.16,-3.14c-0.39,-0.83 -1.58,-2.19 -2.13,-2.77l1.4,0.14c0.46,0.06 1.23,-0.57 1.09,-0.97c-0.15,-0.39 -0.95,-0.76 -1.74,-0.79c-0.64,-0.03 -1.44,0.21 -1.77,0.33c-0.22,-0.21 -1.51,-0.95 -2.66,-1.2c-3.33,-0.72 -4.62,1.22 -4.41,2.82c0.15,1.11 1.41,1.98 2.23,2.34c0.82,0.37 1.08,0.28 1.83,0.54c-0.07,0.14 -0.15,0.6 0.03,1.33c0.24,0.93 0.51,1.37 0.77,1.49c0.22,0.1 1.15,-1.2 1.22,-1.61c0.77,0.36 1.27,0.75 1.65,1.22c0.42,0.51 0.73,1.09 0.89,1.81c0.15,0.61 0.26,2.05 0.58,2.19c0.32,0.15 0.55,-0.84 0.53,-1.13c0.18,0.3 0.72,1.43 0.6,2.68c-0.04,0.26 -0.19,0.9 -0.62,1.58c-0.47,0.77 -1.15,1 -1.43,1.22c-0.35,0.28 -1.96,0.82 -1.74,1.18c0.28,0.46 0.39,1.61 0.01,2.42c-0.36,0.8 -1.43,0.65 -1.08,1.3z" fill="#5767A0" />
   <path d="m12.3,7.21c-0.36,-0.65 -1.88,0.93 -3.17,1.98c-1.3,1.09 -1.88,2.67 -2.01,3.32c-0.33,0.28 -0.83,1.25 -1.11,2.42c-0.28,1.18 -0.3,2.57 -0.15,3.18l-0.68,-0.3c-0.26,-0.12 -0.79,-0.04 -0.97,0.36c-0.19,0.42 0.54,0.58 1.08,0.83c0.43,0.19 0.9,0.84 1.09,1.15c0.22,0.69 0.76,2.3 1.15,3.13c0.4,0.83 1.59,2.19 2.13,2.77l-1.38,-0.15c-0.47,-0.04 -1.23,0.58 -1.09,0.97c0.15,0.4 0.95,0.76 1.74,0.8c0.64,0.03 1.44,-0.21 1.77,-0.33c0.22,0.21 1.51,0.95 2.66,1.2c3.33,0.72 4.61,-1.22 4.4,-2.81c-0.15,-1.11 -1.41,-1.96 -2.23,-2.34c-0.82,-0.37 -1.08,-0.28 -1.81,-0.54c0.06,-0.14 0.14,-0.6 -0.04,-1.33c-0.24,-0.91 -0.51,-1.37 -0.77,-1.49c-0.22,-0.1 -1.13,1.2 -1.22,1.61c-0.77,-0.36 -1.27,-0.75 -1.65,-1.22c-0.42,-0.51 -0.73,-1.09 -0.89,-1.81c-0.15,-0.61 -0.26,-2.03 -0.58,-2.17c-0.33,-0.15 -0.55,0.84 -0.53,1.12c-0.18,-0.29 -0.72,-1.43 -0.6,-2.67c0.03,-0.26 0.19,-0.9 0.61,-1.58c0.48,-0.77 1.16,-0.98 1.44,-1.2c0.35,-0.28 1.96,-0.82 1.74,-1.18c-0.28,-0.46 -0.4,-1.61 -0.03,-2.41c0.36,-0.82 1.43,-0.65 1.08,-1.3z" fill="white" />
</svg>
