<svg viewBox="0 0 26 26" fill="none" xmlns="http://www.w3.org/2000/svg">
<path fill-rule="evenodd" clip-rule="evenodd" d="M9.51947 3.98445C11.0602 3.38964 11.8293 1.66176 11.2424 0.119919C12.6381 -0.0717401 14.0337 -0.0306008 15.3798 0.221398C14.7195 1.73273 15.4039 3.4953 16.9136 4.16403C18.4234 4.83276 20.1886 4.15518 20.8642 2.65058C21.9554 3.47813 22.9238 4.48413 23.7198 5.64664C22.1836 6.24809 21.4207 7.97873 22.0155 9.51947C22.6104 11.0602 24.3382 11.8293 25.8801 11.2424C26.0718 12.6382 26.0306 14.034 25.7785 15.3801C24.2672 14.7198 22.5046 15.4042 21.8358 16.9139C21.1671 18.4237 21.8447 20.1889 23.3492 20.8645C22.5217 21.9556 21.5158 22.9239 20.3534 23.7198C19.7519 22.1836 18.0213 21.4207 16.4805 22.0155C14.9398 22.6104 14.1707 24.3382 14.7576 25.8801C13.3618 26.0718 11.966 26.0306 10.6199 25.7785C11.28 24.2673 10.5956 22.5048 9.08593 21.8361C7.57628 21.1675 5.81122 21.8449 5.13553 23.3492C4.04442 22.5217 3.07614 21.5158 2.28022 20.3534C3.81643 19.7519 4.57927 18.0213 3.98445 16.4805C3.38964 14.9398 1.66176 14.1707 0.119918 14.7576C-0.0717402 13.3619 -0.0306003 11.9662 0.221398 10.6202C1.73267 11.2803 3.49504 10.5959 4.16372 9.08624C4.83241 7.57657 4.15497 5.81147 2.65058 5.13581C3.47813 4.04458 4.48413 3.07621 5.64664 2.28022C6.24809 3.81643 7.97874 4.57927 9.51947 3.98445ZM13.3068 17.7523C15.8834 17.7523 17.9722 15.6635 17.9722 13.0869C17.9722 10.5103 15.8834 8.42148 13.3068 8.42148C10.7302 8.42148 8.64138 10.5103 8.64138 13.0869C8.64138 15.6635 10.7302 17.7523 13.3068 17.7523Z" fill="white"/>
</svg>
