<svg viewBox="0 0 48 44" fill="none" xmlns="http://www.w3.org/2000/svg">
<path d="M43 0C45.7614 0 48 2.23858 48 5V39C48 41.7614 45.7614 44 43 44H9C6.23858 44 4 41.7614 4 39L4 5C4 2.23858 6.23858 0 9 0L43 0Z" fill="white"/>
<path fill-rule="evenodd" clip-rule="evenodd" d="M26.9648 19.307L36.37 28.84C37.1008 29.5808 38.38 29.6913 39.2271 29.0868C40.0741 28.4822 40.1683 27.3917 39.4375 26.6509L28.571 15.6367C28.1518 15.2118 27.5522 14.9943 26.9573 15.0001C26.3672 14.9981 25.7742 15.2155 25.3585 15.6368L14.492 26.651C13.7612 27.3918 13.8554 28.4823 14.7024 29.0869C15.5495 29.6914 16.8287 29.5809 17.5595 28.8401L26.9648 19.307Z" fill="current"/>
<defs>
</defs>
</svg>
