<svg viewBox="0 0 19 17" fill="none" xmlns="http://www.w3.org/2000/svg">
<path fill-rule="evenodd" clip-rule="evenodd" d="M12.4131 1.89762C9.60026 -0.632542 5.0397 -0.632542 2.22684 1.89762C-0.586029 4.42779 -0.586029 8.53 2.22684 11.0602C4.65066 13.2404 8.37216 13.5419 11.1549 11.9648L15.4366 15.8161C16.0617 16.3784 17.0751 16.3784 17.7002 15.8161C18.3253 15.2539 18.3253 14.3423 17.7002 13.78L13.4186 9.92874C15.1722 7.4256 14.837 4.07793 12.4131 1.89762ZM10.1496 3.93384C8.58693 2.52819 6.05328 2.52819 4.49058 3.93384C2.92787 5.33949 2.92787 7.6185 4.49058 9.02415C6.05328 10.4298 8.58692 10.4298 10.1496 9.02415C11.7123 7.6185 11.7123 5.33949 10.1496 3.93384Z" fill="current"/>
</svg>
