<svg width="30" height="25" viewBox="0 0 30 25" fill="none" xmlns="http://www.w3.org/2000/svg">
<path fill-rule="evenodd" clip-rule="evenodd" d="M1.07284 10.985L26.9886 0.149107C27.5496 -0.0176 28.8398 -0.184305 29.5129 0.482517C30.1861 1.14934 30.0178 1.87173 29.8495 2.14957L26.6521 22.4876L26.6219 22.6397C26.4608 23.4565 26.2554 24.498 25.3058 24.6548C24.498 24.7881 23.7912 24.6548 23.2864 24.3214L13.8625 18.1533C13.5259 17.9866 12.8528 17.4865 12.8528 16.8196C12.8528 16.1528 13.7503 15.4304 14.199 15.1526L21.9401 7.65084C22.1645 7.48414 22.5796 7.0507 22.445 6.65061C22.3103 6.25052 21.6035 6.4839 21.267 6.65061L9.48706 14.3191C9.40988 14.37 9.34057 14.4171 9.27612 14.4609L9.27611 14.4609C8.91895 14.7034 8.71101 14.8447 8.14078 14.9859C7.42932 15.1621 6.90647 15.0635 6.6309 15.0115L6.63089 15.0115C6.55308 14.9968 6.49499 14.9859 6.45794 14.9859L0.567982 13.1521C0.063088 12.9854 -0.105169 12.652 0.0631031 11.9852C0.213325 11.3899 0.631888 11.1931 0.95942 11.0392L0.959519 11.0391C0.998808 11.0207 1.03679 11.0028 1.07284 10.985Z" fill="white"/>
</svg>
