<svg width="118" height="7" viewBox="0 0 118 7" fill="none" xmlns="http://www.w3.org/2000/svg">
<path d="M0.40564 6.29553V5.75847L1.09127 5.63912V0.750178L0.40564 0.630831V0.0895099H3.0472C3.68656 0.0895099 4.1857 0.230168 4.54464 0.511485C4.90638 0.78996 5.08726 1.20909 5.08726 1.76889C5.08726 2.04452 5.00032 2.29174 4.82646 2.51054C4.65541 2.7265 4.42827 2.88705 4.14504 2.99219C4.39181 3.04334 4.60353 3.14421 4.78019 3.29482C4.95686 3.44258 5.09286 3.62444 5.18821 3.8404C5.28635 4.05352 5.33543 4.28795 5.33543 4.54369C5.33543 5.11201 5.15315 5.54677 4.78861 5.84798C4.42406 6.14634 3.93052 6.29553 3.30799 6.29553H0.40564ZM1.91991 5.63912H3.30799C3.68656 5.63912 3.9796 5.54535 4.18711 5.3578C4.39742 5.16742 4.50258 4.89889 4.50258 4.55222C4.50258 4.30784 4.46332 4.09898 4.3848 3.92565C4.30909 3.75231 4.19131 3.61876 4.03147 3.52498C3.87444 3.43121 3.67534 3.38433 3.43418 3.38433H1.91991V5.63912ZM1.91991 2.72792H3.26172C3.55896 2.72792 3.79872 2.64125 3.981 2.46791C4.16607 2.29174 4.25861 2.05304 4.25861 1.75184C4.25861 1.41653 4.15486 1.16647 3.94735 1.00166C3.73984 0.834005 3.43979 0.750178 3.0472 0.750178H1.91991V2.72792Z" fill="white"/>
<path d="M6.91195 6.29553V5.75847L7.59758 5.63912V0.750178L6.91195 0.630831V0.0895099H9.11185V0.630831L8.42622 0.750178V4.32631L8.45146 4.33484L11.3959 1.14232V0.750178L10.7102 0.630831V0.0895099H12.9101V0.630831L12.2245 0.750178V5.63912L12.9101 5.75847V6.29553H10.7102V5.75847L11.3959 5.63912V2.17807L11.3706 2.16955L8.42622 5.36633V5.63912L9.11185 5.75847V6.29553H6.91195Z" fill="white"/>
<path d="M14.3689 6.29553V5.75847L15.0545 5.63912V0.750178L14.3689 0.630831V0.0895099H16.5688V0.630831L15.8832 0.750178V2.88563H16.552L17.9358 0.865262C18.163 0.547005 18.3607 0.331044 18.5289 0.217381C18.6972 0.100876 18.8921 0.0426237 19.1136 0.0426237C19.2454 0.0426237 19.3562 0.0596732 19.4459 0.0937722C19.5384 0.12503 19.6352 0.171916 19.7361 0.234431L19.6141 0.826901C19.5384 0.812693 19.4711 0.801326 19.4122 0.792802C19.3562 0.781435 19.3001 0.775752 19.244 0.775752C19.1122 0.775752 19 0.811272 18.9075 0.882312C18.8177 0.953351 18.7126 1.07412 18.592 1.24461L17.2754 3.10301L19.3113 5.65191L19.8876 5.75847V6.29553H17.8769V5.75847L18.3438 5.69879L18.327 5.67748L16.6739 3.59318H15.8832V5.63912L16.5688 5.75847V6.29553H14.3689Z" fill="white"/>
<path d="M22.89 6.29553V5.75847L23.5756 5.63912V0.724604H22.1876L22.0656 1.5856H21.443V0.0895099H26.5327V1.5856H25.9186L25.7924 0.724604H24.4043V5.63912L25.0899 5.75847V6.29553H22.89Z" fill="white"/>
<path d="M30.5362 6.38504C30.1408 6.38504 29.7861 6.30831 29.472 6.15487C29.158 6.00142 28.8902 5.78546 28.6686 5.50699C28.4499 5.22567 28.2817 4.89321 28.1639 4.50959C28.0489 4.12598 27.9914 3.70258 27.9914 3.2394V3.14989C27.9914 2.68956 28.0489 2.26758 28.1639 1.88397C28.2817 1.49751 28.4499 1.16363 28.6686 0.882312C28.8902 0.600995 29.158 0.383614 29.472 0.230168C29.7861 0.0767227 30.1408 0 30.5362 0C30.9541 0 31.3214 0.0767227 31.6383 0.230168C31.9552 0.383614 32.2202 0.600995 32.4333 0.882312C32.6492 1.16363 32.8118 1.49751 32.9212 1.88397C33.0306 2.26758 33.0853 2.68956 33.0853 3.14989V3.2394C33.0853 3.70258 33.0306 4.12598 32.9212 4.50959C32.8118 4.89321 32.6492 5.22567 32.4333 5.50699C32.2202 5.78546 31.9552 6.00142 31.6383 6.15487C31.3214 6.30831 30.9541 6.38504 30.5362 6.38504ZM30.5362 5.68601C30.9428 5.68601 31.2709 5.58371 31.5205 5.37912C31.7729 5.17452 31.958 4.88894 32.0757 4.52238C32.1935 4.15297 32.2524 3.72532 32.2524 3.2394V3.14137C32.2524 2.6583 32.1921 2.23491 32.0715 1.87118C31.9538 1.50462 31.7687 1.21904 31.5163 1.01445C31.2639 0.80701 30.9372 0.703292 30.5362 0.703292C30.1689 0.703292 29.8576 0.80701 29.6024 1.01445C29.3472 1.22188 29.1538 1.50888 29.022 1.87544C28.8902 2.23917 28.8243 2.66114 28.8243 3.14137V3.2394C28.8243 3.72247 28.8902 4.14871 29.022 4.51812C29.1538 4.88468 29.3472 5.17168 29.6024 5.37912C29.8576 5.58371 30.1689 5.68601 30.5362 5.68601Z" fill="white"/>
<path d="M34.9815 6.29553V5.75847L35.6671 5.63912V0.750178L34.9815 0.630831V0.0895099H37.7955C38.2329 0.0895099 38.6059 0.167653 38.9143 0.32394C39.2228 0.477386 39.4584 0.693346 39.621 0.971821C39.7836 1.2503 39.865 1.57566 39.865 1.94791C39.865 2.32299 39.7836 2.64978 39.621 2.92825C39.4584 3.20673 39.2228 3.42269 38.9143 3.57613C38.6059 3.72958 38.2329 3.8063 37.7955 3.8063H36.4957V5.63912L37.1813 5.75847V6.29553H34.9815ZM36.4957 3.14989H37.7955C38.2105 3.14989 38.5204 3.03765 38.7251 2.81317C38.9326 2.58584 39.0363 2.30026 39.0363 1.95643C39.0363 1.6126 38.9326 1.3256 38.7251 1.09543C38.5204 0.865262 38.2105 0.750178 37.7955 0.750178H36.4957V3.14989Z" fill="white"/>
<path d="M41.3027 6.29553V5.75847L41.9883 5.63912V0.750178L41.3027 0.630831V0.0895099H43.5026V0.630831L42.817 0.750178V4.32631L42.8422 4.33484L45.7866 1.14232V0.750178L45.101 0.630831V0.0895099H47.3009V0.630831L46.6152 0.750178V5.63912L47.3009 5.75847V6.29553H45.101V5.75847L45.7866 5.63912V2.17807L45.7614 2.16955L42.817 5.36633V5.63912L43.5026 5.75847V6.29553H41.3027Z" fill="white"/>
<path d="M53.9544 5.75847V6.29553H51.7503V5.75847L52.4359 5.63912V3.86597H51.1951L50.2739 5.58371C50.1365 5.82525 49.9794 6.00995 49.8028 6.13782C49.6261 6.26569 49.4326 6.32963 49.2223 6.32963C49.1045 6.32963 49.0064 6.31542 48.9279 6.287C48.8522 6.25859 48.775 6.21312 48.6965 6.15061L48.8143 5.55814C48.9068 5.58655 48.9924 5.60076 49.0709 5.60076C49.1859 5.60076 49.2854 5.56666 49.3695 5.49846C49.4565 5.43027 49.5392 5.33223 49.6177 5.20436L50.4716 3.70827L50.4842 3.68695C50.0467 3.54203 49.713 3.32465 49.4831 3.03481C49.2532 2.74213 49.1382 2.38267 49.1382 1.95643C49.1382 1.36538 49.3303 0.906465 49.7144 0.579683C50.0986 0.252901 50.6286 0.0895099 51.3044 0.0895099H53.9544V0.630831L53.2688 0.750178V5.63912L53.9544 5.75847ZM51.3044 0.750178C50.867 0.750178 50.5347 0.856737 50.3075 1.06986C50.0804 1.28297 49.9668 1.57566 49.9668 1.94791C49.9668 2.32015 50.0818 2.62278 50.3117 2.85579C50.5417 3.08596 50.8712 3.20104 51.3002 3.20104H52.4359V0.750178H51.3044Z" fill="white"/>
<path d="M61.5527 6.29553V5.75847L62.2383 5.63912V0.750178L61.5527 0.630831V0.0895099H63.3446L65.3173 4.79943H65.3425L67.2522 0.0895099H69.0988V0.630831L68.4131 0.750178V5.63912L69.0988 5.75847V6.29553H66.8989V5.75847L67.6224 5.63912V1.23609L67.6013 1.23183L65.6117 6.07388H65.0607L63.0038 1.24035L62.9828 1.24461L63.0123 3.8404V5.63912L63.7526 5.75847V6.29553H61.5527Z" fill="white"/>
<path d="M70.6501 6.29553V5.75847L71.1043 5.69453L73.2454 0.0895099H73.9562L76.0594 5.69453L76.5094 5.75847V6.29553H74.7512V5.75847L75.2139 5.67748L74.8101 4.53517H72.3578L71.9414 5.67748L72.4041 5.75847V6.29553H70.6501ZM72.6144 3.83187H74.5577L73.6576 1.30855L73.6071 1.16789H73.5819L73.5314 1.30855L72.6144 3.83187Z" fill="white"/>
<path d="M78.0102 6.29553V5.75847L78.6959 5.63912V0.750178L78.0102 0.630831V0.0895099H80.2101V0.630831L79.5245 0.750178V2.89415H82.4521V0.750178L81.7665 0.630831V0.0895099H83.9664V0.630831L83.2807 0.750178V5.63912L83.9664 5.75847V6.29553H81.7665V5.75847L82.4521 5.63912V3.55482H79.5245V5.63912L80.2101 5.75847V6.29553H78.0102Z" fill="white"/>
<path d="M85.463 6.29553V5.75847L86.1486 5.63912V0.750178L85.463 0.630831V0.0895099H87.6629V0.630831L86.9772 0.750178V2.62989H88.4873C88.9248 2.62989 89.2963 2.70377 89.602 2.85153C89.9104 2.99929 90.146 3.20957 90.3086 3.48236C90.4713 3.75231 90.5526 4.07341 90.5526 4.44566C90.5526 4.8179 90.4713 5.14327 90.3086 5.42174C90.146 5.70022 89.9104 5.91618 89.602 6.06962C89.2963 6.22023 88.9248 6.29553 88.4873 6.29553H85.463ZM86.9772 5.63912H88.4873C88.9023 5.63912 89.2122 5.52546 89.4169 5.29813C89.6216 5.0708 89.724 4.78381 89.724 4.43713C89.724 4.10183 89.6216 3.82761 89.4169 3.61449C89.2122 3.39853 88.9023 3.29055 88.4873 3.29055H86.9772V5.63912Z" fill="white"/>
<path d="M92.0408 6.29553V5.75847L92.7264 5.63912V0.750178L92.0408 0.630831V0.0895099H94.2407V0.630831L93.5551 0.750178V2.88563H94.2239L95.6077 0.865262C95.8349 0.547005 96.0326 0.331044 96.2008 0.217381C96.3691 0.100876 96.564 0.0426237 96.7855 0.0426237C96.9173 0.0426237 97.0281 0.0596732 97.1178 0.0937722C97.2103 0.12503 97.3071 0.171916 97.408 0.234431L97.286 0.826901C97.2103 0.812693 97.143 0.801326 97.0842 0.792802C97.0281 0.781435 96.972 0.775752 96.9159 0.775752C96.7841 0.775752 96.6719 0.811272 96.5794 0.882312C96.4897 0.953351 96.3845 1.07412 96.2639 1.24461L94.9473 3.10301L96.9832 5.65191L97.5595 5.75847V6.29553H95.5489V5.75847L96.0157 5.69879L95.9989 5.67748L94.3458 3.59318H93.5551V5.63912L94.2407 5.75847V6.29553H92.0408Z" fill="white"/>
<path d="M101.046 6.38504C100.65 6.38504 100.296 6.30831 99.9815 6.15487C99.6674 6.00142 99.3996 5.78546 99.178 5.50699C98.9593 5.22567 98.7911 4.89321 98.6733 4.50959C98.5583 4.12598 98.5008 3.70258 98.5008 3.2394V3.14989C98.5008 2.68956 98.5583 2.26758 98.6733 1.88397C98.7911 1.49751 98.9593 1.16363 99.178 0.882312C99.3996 0.600995 99.6674 0.383614 99.9815 0.230168C100.296 0.0767227 100.65 0 101.046 0C101.463 0 101.831 0.0767227 102.148 0.230168C102.465 0.383614 102.73 0.600995 102.943 0.882312C103.159 1.16363 103.321 1.49751 103.431 1.88397C103.54 2.26758 103.595 2.68956 103.595 3.14989V3.2394C103.595 3.70258 103.54 4.12598 103.431 4.50959C103.321 4.89321 103.159 5.22567 102.943 5.50699C102.73 5.78546 102.465 6.00142 102.148 6.15487C101.831 6.30831 101.463 6.38504 101.046 6.38504ZM101.046 5.68601C101.452 5.68601 101.78 5.58371 102.03 5.37912C102.282 5.17452 102.467 4.88894 102.585 4.52238C102.703 4.15297 102.762 3.72532 102.762 3.2394V3.14137C102.762 2.6583 102.702 2.23491 102.581 1.87118C102.463 1.50462 102.278 1.21904 102.026 1.01445C101.773 0.80701 101.447 0.703292 101.046 0.703292C100.678 0.703292 100.367 0.80701 100.112 1.01445C99.8567 1.22188 99.6632 1.50888 99.5314 1.87544C99.3996 2.23917 99.3337 2.66114 99.3337 3.14137V3.2394C99.3337 3.72247 99.3996 4.14871 99.5314 4.51812C99.6632 4.88468 99.8567 5.17168 100.112 5.37912C100.367 5.58371 100.678 5.68601 101.046 5.68601Z" fill="white"/>
<path d="M105.491 6.29553V5.75847L106.176 5.63912V0.750178L105.491 0.630831V0.0895099H108.132C108.772 0.0895099 109.271 0.230168 109.63 0.511485C109.992 0.78996 110.172 1.20909 110.172 1.76889C110.172 2.04452 110.086 2.29174 109.912 2.51054C109.741 2.7265 109.514 2.88705 109.23 2.99219C109.477 3.04334 109.689 3.14421 109.865 3.29482C110.042 3.44258 110.178 3.62444 110.273 3.8404C110.372 4.05352 110.421 4.28795 110.421 4.54369C110.421 5.11201 110.238 5.54677 109.874 5.84798C109.509 6.14634 109.016 6.29553 108.393 6.29553H105.491ZM107.005 5.63912H108.393C108.772 5.63912 109.065 5.54535 109.272 5.3578C109.483 5.16742 109.588 4.89889 109.588 4.55222C109.588 4.30784 109.549 4.09898 109.47 3.92565C109.394 3.75231 109.277 3.61876 109.117 3.52498C108.96 3.43121 108.761 3.38433 108.519 3.38433H107.005V5.63912ZM107.005 2.72792H108.347C108.644 2.72792 108.884 2.64125 109.066 2.46791C109.251 2.29174 109.344 2.05304 109.344 1.75184C109.344 1.41653 109.24 1.16647 109.033 1.00166C108.825 0.834005 108.525 0.750178 108.132 0.750178H107.005V2.72792Z" fill="white"/>
<path d="M111.968 6.29553V5.75847L112.422 5.69453L114.563 0.0895099H115.274L117.377 5.69453L117.827 5.75847V6.29553H116.069V5.75847L116.532 5.67748L116.128 4.53517H113.675L113.259 5.67748L113.722 5.75847V6.29553H111.968ZM113.932 3.83187H115.875L114.975 1.30855L114.925 1.16789H114.9L114.849 1.30855L113.932 3.83187Z" fill="white"/>
</svg>
