<svg width="214" height="187" viewBox="0 0 214 187" fill="none" xmlns="http://www.w3.org/2000/svg">
<path d="M94.4701 17.7999L93.2397 15.9392L91.2541 14.9225C83.7568 11.0838 74.5743 8.5 63.7197 8.5C26.3484 8.5 8.5 36.9 8.5 58.9964C8.5 68.4592 9.31921 78.3664 12.9062 88.3471C16.5287 98.4268 22.8025 108.115 33.0624 117.452C48.1379 131.172 84.8083 160.559 101.419 173.672L105.562 176.942L110.33 174.679L110.357 174.666L111.225 174.255L111.979 173.66L112.674 173.111L118.813 168.27L118.818 168.278L126.074 162.555C144.24 148.229 169.176 128.417 180.938 117.713C191.197 108.376 197.471 98.6877 201.094 88.608C204.681 78.6273 205.5 68.7201 205.5 59.2572C205.5 37.1608 187.652 8.76085 150.28 8.76085C130.418 8.76085 116.399 17.3833 107.957 26.1425L103.231 31.0474L94.4701 17.7999ZM81.9719 112.555L81.9694 112.551L110.973 83.5477L87.046 108.093L82.2631 112.999L81.9704 112.556L81.9719 112.555Z" fill="#D12A21" stroke="white" stroke-width="17"/>
</svg>
