<svg width="101" height="84" viewBox="0 0 101 84" fill="none" xmlns="http://www.w3.org/2000/svg">
<path fill-rule="evenodd" clip-rule="evenodd" d="M49.5049 25.5373L63.5049 44.0373L49.5049 57.0373L56.5049 83.5373L92.0049 48.5373C96.0049 44.0373 103.857 32.8266 99.0049 15.0373C96.0049 4.03728 85.0049 -0.462716 76.5049 0.0372756C70.5152 0.389602 57.0049 7.03728 49.5049 25.5373ZM44.0051 14.5373L37.0051 29.5373L49.0051 43.0373L38.5051 53.0373L44.0051 83.0373L8.50511 48.0373C4.83844 44.204 -1.89489 33.7373 0.505111 22.5373C3.50511 8.53731 12.5049 0.537315 23.0049 0.537315C31.4049 0.537315 40.505 9.87065 44.0051 14.5373Z" fill="#D12A21"/>
</svg>
