<svg viewBox="0 0 184 184" fill="none" xmlns="http://www.w3.org/2000/svg">
<mask id="path-1-outside-1_33_106" maskUnits="userSpaceOnUse" x="0.800903" y="0" width="183" height="184" fill="black">
<rect fill="white" x="0.800903" width="183" height="184"/>
<path fill-rule="evenodd" clip-rule="evenodd" d="M166.199 103H17.801C23.1224 139.207 54.3154 167 92 167C129.685 167 160.878 139.207 166.199 103ZM166.199 81H17.801C23.1224 44.7934 54.3154 17 92 17C129.685 17 160.878 44.7934 166.199 81Z"/>
</mask>
<path fill-rule="evenodd" clip-rule="evenodd" d="M166.199 103H17.801C23.1224 139.207 54.3154 167 92 167C129.685 167 160.878 139.207 166.199 103ZM166.199 81H17.801C23.1224 44.7934 54.3154 17 92 17C129.685 17 160.878 44.7934 166.199 81Z" fill="current"/>
<path d="M166.199 103L183.018 105.472C183.737 100.584 182.293 95.626 179.064 91.8875C175.835 88.1489 171.139 86 166.199 86V103ZM17.801 103V86C12.8608 86 8.16505 88.1489 4.93581 91.8875C1.70656 95.626 0.263292 100.584 0.981642 105.472L17.801 103ZM17.801 81L0.981642 78.528C0.263292 83.4156 1.70657 88.374 4.93581 92.1125C8.16505 95.8511 12.8608 98 17.801 98V81ZM166.199 81V98C171.139 98 175.835 95.8511 179.064 92.1125C182.293 88.374 183.737 83.4156 183.018 78.528L166.199 81ZM166.199 86H17.801V120H166.199V86ZM92 150C62.8723 150 38.7332 128.512 34.6203 100.528L0.981642 105.472C7.51152 149.901 45.7586 184 92 184V150ZM149.38 100.528C145.267 128.512 121.128 150 92 150V184C138.241 184 176.488 149.901 183.018 105.472L149.38 100.528ZM17.801 98H166.199V64H17.801V98ZM34.6203 83.472C38.7332 55.4877 62.8723 34 92 34V0C45.7586 0 7.51152 34.0991 0.981642 78.528L34.6203 83.472ZM92 34C121.128 34 145.267 55.4877 149.38 83.472L183.018 78.528C176.488 34.0991 138.241 0 92 0V34Z" fill="white" mask="url(#path-1-outside-1_33_106)"/>
</svg>
