<svg viewBox="0 0 40 40" fill="none" xmlns="http://www.w3.org/2000/svg">
<path fill-rule="evenodd" clip-rule="evenodd" d="M5 40C2.23858 40 0 37.7614 0 35V5C0 2.23858 2.23858 0 5 0H35C37.7614 0 40 2.23858 40 5V35C40 37.7614 37.7614 40 35 40H5ZM22.4402 17.1618V11.7858C22.4402 11.4018 22.1309 11.1245 21.5122 10.9538L20.5842 10.8258C20.2642 10.8258 19.9549 10.8685 19.6562 10.9538C19.0376 11.1245 18.7282 11.4018 18.7282 11.7858V17.1618H13.2882C12.9042 17.1618 12.6269 17.4712 12.4562 18.0898C12.3709 18.4098 12.3282 18.7192 12.3282 19.0178C12.3282 19.3165 12.3709 19.6258 12.4562 19.9458C12.6269 20.5645 12.9042 20.8738 13.2882 20.8738H18.7282V26.3458C18.7282 26.7298 19.0376 27.0072 19.6562 27.1778L20.5842 27.3058C20.9042 27.3058 21.2136 27.2632 21.5122 27.1778C22.1309 27.0072 22.4402 26.7298 22.4402 26.3458V20.8738H27.8482C28.2322 20.8738 28.5096 20.5645 28.6802 19.9458C28.7656 19.6258 28.8082 19.3165 28.8082 19.0178C28.8082 18.7192 28.7656 18.4098 28.6802 18.0898C28.5096 17.4712 28.2322 17.1618 27.8482 17.1618H22.4402Z" fill="current"/>
</svg>
