<svg viewBox="0 0 26 26" fill="none" xmlns="http://www.w3.org/2000/svg">
<path fill-rule="evenodd" clip-rule="evenodd" d="M5 0C2.23858 0 0 2.23858 0 5V21C0 23.7614 2.23858 26 5 26H21C23.7614 26 26 23.7614 26 21V5C26 2.23858 23.7614 0 21 0H5ZM2.91191 10.775L4.41191 10.31V15.92C4.41191 16.17 4.44191 16.375 4.50191 16.535C4.57191 16.685 4.66691 16.805 4.78691 16.895C4.90691 16.985 5.05191 17.045 5.22191 17.075C5.40191 17.105 5.60191 17.12 5.82191 17.12C6.04191 17.12 6.25691 17.1 6.46691 17.06C6.68691 17.03 6.85191 17.005 6.96191 16.985V9.17C6.96191 8.74 6.83691 8.4 6.58691 8.15C6.33691 7.9 5.99691 7.775 5.56691 7.775H5.01191L3.33191 8.345C2.60191 8.585 2.23691 9.005 2.23691 9.605C2.23691 9.925 2.31191 10.175 2.46191 10.355C2.61191 10.535 2.76191 10.675 2.91191 10.775ZM13.2521 7.88C12.8121 7.73 12.3071 7.655 11.7371 7.655C10.9071 7.655 10.2471 7.785 9.75707 8.045C9.26707 8.295 9.02207 8.68 9.02207 9.2C9.02207 9.44 9.07707 9.65 9.18707 9.83C9.29707 10.01 9.43707 10.16 9.60707 10.28C9.81707 10.14 10.0771 10.01 10.3871 9.89C10.7071 9.76 11.0671 9.695 11.4671 9.695C11.8271 9.695 12.1271 9.775 12.3671 9.935C12.6171 10.095 12.7421 10.315 12.7421 10.595C12.7421 10.705 12.7171 10.82 12.6671 10.94C12.6271 11.06 12.5521 11.19 12.4421 11.33C12.3421 11.47 12.2071 11.63 12.0371 11.81C11.8671 11.98 11.6521 12.175 11.3921 12.395L9.32207 14.165C9.15207 14.305 8.99707 14.495 8.85707 14.735C8.71707 14.965 8.64707 15.25 8.64707 15.59C8.64707 15.91 8.70707 16.19 8.82707 16.43C8.95707 16.66 9.13207 16.85 9.35207 17H14.5571C14.8171 17 15.0271 16.925 15.1871 16.775C15.3471 16.615 15.4271 16.355 15.4271 15.995C15.4271 15.795 15.3971 15.61 15.3371 15.44C15.2871 15.27 15.2321 15.13 15.1721 15.02H11.5721L13.5371 13.445C14.7271 12.495 15.3221 11.495 15.3221 10.445C15.3221 10.055 15.2421 9.69 15.0821 9.35C14.9221 9.01 14.6871 8.715 14.3771 8.465C14.0671 8.215 13.6921 8.02 13.2521 7.88ZM20.5543 16.355C20.7743 16.325 20.9243 16.29 21.0043 16.25V13.67H22.5943C22.8543 13.67 23.0643 13.59 23.2243 13.43C23.3843 13.26 23.4643 13 23.4643 12.65C23.4643 12.46 23.4343 12.28 23.3743 12.11C23.3243 11.93 23.2743 11.78 23.2243 11.66H21.0043V10.085C21.0043 9.635 20.8943 9.34 20.6743 9.2C20.4643 9.06 20.1593 8.99 19.7593 8.99C19.5593 8.99 19.3543 9.01 19.1443 9.05C18.9443 9.08 18.7943 9.11 18.6943 9.14V11.66H17.0743C16.8043 11.66 16.5893 11.745 16.4293 11.915C16.2693 12.075 16.1893 12.335 16.1893 12.695C16.1893 12.875 16.2093 13.055 16.2493 13.235C16.2993 13.415 16.3593 13.56 16.4293 13.67H18.6943V15.32C18.6943 15.76 18.7993 16.05 19.0093 16.19C19.2193 16.32 19.5293 16.385 19.9393 16.385C20.1393 16.385 20.3443 16.375 20.5543 16.355Z" fill="current"/>
</svg>
