<svg viewBox="0 0 214 184" fill="none" xmlns="http://www.w3.org/2000/svg">
<path d="M94.4701 17.7999C93.6635 16.5801 92.5558 15.589 91.2541 14.9225C83.7568 11.0838 74.5743 8.5 63.7197 8.5C26.3484 8.5 8.5 36.9 8.5 58.9964C8.5 68.4592 9.31921 78.3664 12.9062 88.3471C16.5287 98.4268 22.8025 108.115 33.0624 117.452C48.1379 131.172 84.8083 160.559 101.419 173.672C103.956 175.674 107.41 176.065 110.33 174.679L110.357 174.666C110.934 174.393 111.478 174.055 111.979 173.66L112.674 173.111C116.144 170.375 116.938 165.435 114.5 161.749L113.721 160.57C115.032 162.553 117.114 163.896 119.462 164.273C121.809 164.651 124.207 164.028 126.074 162.555C144.24 148.229 169.176 128.417 180.938 117.713C191.197 108.376 197.471 98.6877 201.094 88.608C204.681 78.6273 205.5 68.7201 205.5 59.2572C205.5 37.1608 187.652 8.76085 150.28 8.76085C130.418 8.76085 116.399 17.3833 107.957 26.1425C105.195 29.009 104.792 33.4087 106.988 36.7293L94.4701 17.7999ZM81.9679 112.553L110.973 83.5477L87.046 108.093C84.2617 110.949 83.8389 115.356 86.0253 118.688L81.9679 112.553ZM127.045 67.0604L123.529 70.667C125.235 67.9008 125.238 64.3276 123.382 61.52L127.045 67.0604Z" fill="#D12A21" stroke="white" stroke-width="17" stroke-linejoin="round"/>
</svg>