<svg width="403" height="306" viewBox="0 0 403 306" fill="none" xmlns="http://www.w3.org/2000/svg">
<path d="M3.09308 304.431H22.3495C20.599 300.246 17.4479 290.308 18.8484 284.031C20.599 276.185 36.3543 260.492 50.3589 252.646C64.3636 244.8 90.6224 229.108 111.629 216.554C128.435 206.511 140.806 186.215 144.891 177.323C143.724 184.646 139.639 201.489 132.636 210.277C125.634 219.065 108.712 231.723 101.126 236.954C106.378 235.385 119.332 232.246 129.135 232.246C141.389 232.246 195.658 252.646 218.415 252.646C236.621 252.646 249.342 245.323 253.427 241.662C255.177 248.985 260.429 266.142 267.432 276.185C274.434 286.228 284.354 300.246 288.439 306H304.194C300.693 293.969 292.64 267.083 288.439 255.785C284.237 244.486 285.521 221.785 286.688 211.846L311.196 172.615C307.112 168.431 298.942 157.865 298.942 149.077C298.942 140.289 305.944 133.908 309.446 131.815C308.862 137.569 308.045 150.018 309.446 153.785C311.196 158.492 337.455 186.738 351.46 188.308C365.464 189.877 372.467 183.6 375.968 178.892C379.469 174.185 368.966 145.938 368.966 142.8C368.966 139.662 374.217 133.385 374.217 128.677C374.217 124.911 370.716 116.646 368.966 112.985C373.05 112.985 382.62 112.357 388.222 109.846C395.224 106.708 400.476 102 402.227 97.2923C403.627 93.5262 402.81 82.1231 402.227 76.8923C395.224 86.3077 388.222 97.2923 375.968 97.2923C368.966 97.2923 361.963 94.1538 360.213 92.5846H328.702C321.116 85.7846 303.844 70.6154 295.441 64.3385C284.937 56.4923 290.189 40.8 241.173 40.8C192.156 40.8 136.138 67.4769 109.879 86.3077C83.6201 105.138 55.6107 142.8 46.8578 150.646C38.1048 158.492 24.1002 150.646 20.599 145.938C17.0978 141.231 15.3472 134.954 24.1002 120.831C32.8531 106.708 83.6201 69.0462 90.6224 61.2C97.6248 53.3538 106.378 45.5077 106.378 31.3846C106.378 20.0862 93.5401 5.75385 87.1212 0C85.3707 5.23077 81.8695 17.2615 81.8695 23.5385C81.8695 31.3846 95.8742 29.8154 95.8742 42.3692C95.8742 54.9231 45.1072 91.0154 34.6037 100.431C24.1002 109.846 3.09308 125.538 3.09308 144.369C3.09308 159.434 21.766 170.523 31.1025 174.185C24.1001 186.738 8.69496 217.182 3.09308 238.523C-2.50879 259.865 0.75897 291.354 3.09308 304.431Z" fill="current"/>
<path d="M108.128 273.046V243.231C104.044 242.708 94.4737 241.975 88.8718 243.231C81.8695 244.8 74.8671 251.077 74.8671 258.923C74.8671 266.769 78.3683 273.046 83.6201 284.031C87.8215 292.818 97.0412 302.338 101.126 306H116.881C115.131 302.862 111.279 295.329 109.879 290.308C108.478 285.286 108.128 276.708 108.128 273.046Z" fill="current"/>
<path d="M332.203 233.815C333.604 230.049 311.78 212.369 300.693 204C298.359 205.569 293.34 210.277 291.94 216.554C290.539 222.831 300.693 231.723 305.944 235.385C303.027 237.477 296.841 242.289 295.441 244.8C293.69 247.938 304.194 257.354 309.446 257.354C314.697 257.354 330.453 238.523 332.203 233.815Z" fill="current"/>
</svg>
