<svg viewBox="0 0 26 26" fill="none" xmlns="http://www.w3.org/2000/svg">
<path fill-rule="evenodd" clip-rule="evenodd" d="M0 2C0 0.895432 0.895431 0 2 0H24C25.1046 0 26 0.895431 26 2V3.2C26 4.30457 25.1046 5.2 24 5.2H2C0.89543 5.2 0 4.30457 0 3.2V2ZM0 12.4C0 11.2954 0.895431 10.4 2 10.4H24C25.1046 10.4 26 11.2954 26 12.4V13.6C26 14.7045 25.1046 15.6 24 15.6H2C0.89543 15.6 0 14.7045 0 13.6V12.4ZM2 20.7999C0.895431 20.7999 0 21.6954 0 22.7999V23.9999C0 25.1045 0.89543 25.9999 2 25.9999H24C25.1046 25.9999 26 25.1045 26 23.9999V22.7999C26 21.6954 25.1046 20.7999 24 20.7999H2Z" fill="current"/>
</svg>
