<svg viewBox="0 0 287 334" fill="none" xmlns="http://www.w3.org/2000/svg">
<path fill-rule="evenodd" clip-rule="evenodd" d="M10.0743 141.644C12.0774 137.435 14.419 132.515 15.8644 127.328C19.3617 114.776 28.1049 91.2413 38.5966 77.1206C49.0885 63 112.039 0.241333 148.761 0.241333C178.138 0.241333 219.289 29.5287 236.192 44.1724C236.775 44.6954 237.242 46.3689 234.444 48.8793C232.884 50.2788 233.063 51.9904 233.275 54.0141C233.539 56.5278 233.853 59.5231 230.947 63C229.734 64.451 228.895 65.5665 228.235 66.4435C226.042 69.3597 225.832 69.6386 220.455 70.8448C214.859 72.1 209.963 72.4137 208.214 72.4137C201.22 77.6436 183.384 88.1034 167.996 88.1034C152.608 88.1034 145.263 80.7816 143.515 77.1206C142.932 80.7816 144.214 89.0448 154.007 92.8103C163.799 96.5758 170.91 95.4252 173.242 94.3793C172.659 109.546 180.936 139.879 218.706 139.879C227.744 139.879 232.402 135.688 235.982 132.468C237.944 130.703 239.581 129.23 241.438 128.897C244.353 128.374 250.531 127.955 251.93 130.465C252.713 131.871 254.9 132.017 257.232 132.174C260.108 132.366 263.205 132.574 264.171 135.172C265.919 139.879 264.171 143.017 260.673 146.155C257.176 149.293 232.695 164.983 201.22 164.983C176.039 164.983 162.75 155.569 159.252 150.862C162.167 156.092 170.094 167.179 178.487 169.69C186.881 172.2 199.471 171.782 204.717 171.259C206.466 175.442 210.313 185.693 211.712 193.224C213.11 200.755 213.46 211.006 213.46 215.19C206.466 209.437 186.531 197.931 162.75 197.931C138.968 197.931 115.537 218.851 106.793 229.31C117.868 222.511 143.864 208.914 159.252 208.914C178.487 208.914 227.449 224.603 227.449 270.103C227.449 306.503 211.129 319.787 202.968 321.879C207.049 320.833 216.957 317.172 223.952 310.897C230.947 304.621 235.027 294.684 236.192 290.5C247.267 294.161 269.416 304.934 269.416 318.741C269.416 332.548 261.256 333.908 257.176 332.862H94.553C88.7242 331.293 75.6677 326.9 70.0721 321.879C64.4765 316.859 60.746 311.419 59.5803 309.328C56.6659 310.374 48.7387 312.465 40.3453 312.465C29.8535 312.465 14.1158 306.19 7.12122 298.345C1.5256 292.069 0.126678 282.132 0.126678 277.948L7.12122 281.086C6.53833 278.471 5.37259 271.986 5.37259 266.965C5.37259 261.945 8.86987 257.552 10.6185 255.983C13.5329 256.506 21.1103 257.552 28.1049 257.552H49.0885C49.0885 244.477 51.1868 213.307 59.5803 193.224C68.8301 171.092 72.6434 166.033 80.6061 155.47C81.6752 154.051 82.8192 152.534 84.0612 150.862C86.4915 147.591 89.2033 144.32 92.0445 140.893C101.469 129.526 112.316 116.442 119.034 95.9482C126.028 74.6103 128.943 51.4942 129.526 42.6034L113.788 89.6724C110.291 99.0862 101.198 120.11 92.8043 128.897C82.3125 139.879 63.0775 149.293 49.0885 150.862C37.8972 152.117 16.4473 153.477 7.12122 154C5.0694 152.159 7.23083 147.618 10.0743 141.644ZM220.455 108.5C225.701 114.776 232.695 121.052 250.181 121.052C260.673 121.052 271.165 117.914 278.16 111.638C283.755 106.617 286.32 91.7643 286.903 84.9655C283.406 84.9655 275.712 85.2793 272.914 86.5344C270.116 87.7896 264.753 92.2873 262.422 94.3793C263.005 91.7643 263.821 85.9069 262.422 83.3965C261.023 80.8862 253.679 75.0287 250.181 72.4137C247.85 74.5057 242.837 79.3172 241.438 81.8275C240.039 84.3379 239.69 91.2413 239.69 94.3793C237.941 92.2873 233.744 87.7896 230.947 86.5344C228.149 85.2793 218.126 85.3661 213.464 85.5664C213.55 92.0646 215.209 102.224 220.455 108.5ZM129.526 25.3448C116.119 34.2356 84.7606 57.6655 66.5748 80.2586C48.389 102.852 31.0192 131.511 24.6076 143.017C31.0192 142.494 47.3398 140.193 61.3289 135.172C78.8152 128.897 91.0557 110.069 101.548 84.9655C109.941 64.8827 123.697 36.3275 129.526 25.3448ZM167.996 67.7068C161.235 67.7068 155.755 62.7897 155.755 56.7241C155.755 50.6585 161.235 45.7413 167.996 45.7413C174.756 45.7413 180.236 50.6585 180.236 56.7241C180.236 62.7897 174.756 67.7068 167.996 67.7068ZM165.675 28.2161C164.734 30.6684 168.414 34.0299 173.896 35.7241C179.377 37.4184 184.584 36.8039 185.526 34.3516C186.467 31.8993 182.787 28.5378 177.305 26.8435C171.824 25.1493 166.617 25.7638 165.675 28.2161Z" fill="current"/>
</svg>
