<svg viewBox="0 0 26 26" fill="none" xmlns="http://www.w3.org/2000/svg">
<path fill-rule="evenodd" clip-rule="evenodd" d="M5 0C2.23859 0 0 2.23857 0 5V21C0 23.7614 2.23859 26 5 26H21C23.7614 26 26 23.7614 26 21V5C26 2.23857 23.7614 0 21 0H5ZM19.9286 5.07143H16.7143C16.7143 5.02318 16.7143 4.99246 16.7137 4.96852C16.7134 4.95956 16.7131 4.95155 16.7127 4.94392C16.6842 4.43578 16.2785 4.03011 15.7704 4.00157C15.7423 4 15.7092 4 15.6429 4H11.3571C11.3198 4 11.2929 4 11.2716 4.00029C11.2551 4.0005 11.2419 4.00089 11.2296 4.00157C10.7215 4.03011 10.3158 4.43578 10.2873 4.94392C10.2857 4.97194 10.2857 5.00511 10.2857 5.07143H7.07144C7.0051 5.07143 6.97195 5.07143 6.94394 5.073C6.43576 5.10153 6.03012 5.5072 6.00159 6.01537C6 6.04337 6 6.07654 6 6.14285L6.00003 6.1889C6.00012 6.2263 6.00043 6.24973 6.00159 6.27036C6.03012 6.77852 6.43576 7.18417 6.94394 7.21271C6.97195 7.21428 7.0051 7.21428 7.07144 7.21428H19.9286C19.9949 7.21428 20.028 7.21428 20.0561 7.21271C20.5642 7.18417 20.9699 6.77852 20.9984 6.27036C21 6.24234 21 6.20918 21 6.14285C21 6.07654 21 6.04337 20.9984 6.01537C20.9699 5.5072 20.5642 5.10153 20.0561 5.073C20.028 5.07143 19.9949 5.07143 19.9286 5.07143ZM8.1582 8.28551C7.57318 8.28551 7.11307 8.78554 7.16165 9.36855L8.06644 20.2257C8.10962 20.744 8.54288 21.1427 9.06296 21.1427H17.937C18.4571 21.1427 18.8904 20.744 18.9335 20.2257L19.8383 9.36855C19.8869 8.78554 19.4268 8.28551 18.8418 8.28551H8.1582ZM15.6429 18.4641C15.6429 18.7599 15.403 18.9998 15.1071 18.9998C14.8112 18.9998 14.5714 18.7599 14.5714 18.4641V10.9641C14.5714 10.6682 14.8112 10.4284 15.1071 10.4284C15.403 10.4284 15.6429 10.6682 15.6429 10.9641V18.4641ZM11.8929 18.9998C12.1887 18.9998 12.4286 18.7599 12.4286 18.4641V10.9641C12.4286 10.6682 12.1887 10.4284 11.8929 10.4284C11.597 10.4284 11.3571 10.6682 11.3571 10.9641V18.4641C11.3571 18.7599 11.597 18.9998 11.8929 18.9998Z" fill="current"/>
</svg>
