<svg viewBox="0 0 371 353" fill="none" xmlns="http://www.w3.org/2000/svg">
<path fill-rule="evenodd" clip-rule="evenodd" d="M299.017 73.1034L309.508 52.7069H279.782C285.027 41.7241 285.027 37.331 285.027 32.3103C285.027 26.0345 283.279 19.7586 265.792 16.6207C251.803 14.1103 241.312 11.9138 225.574 0.93103C222.077 5.63793 238.514 20.0724 248.306 21.3276C249.784 21.517 251.253 21.6849 252.695 21.8497L252.696 21.8498C260.813 22.7775 268.069 23.6068 271.038 27.6034C274.536 33.8793 273.635 37.1109 272.787 40.1552C272.204 42.2471 271.816 43.9904 271.492 45.4432C270.844 48.3487 270.456 50.092 269.29 51.1379C264.627 50.0919 253.902 47.3724 248.306 44.8621C242.71 42.3517 242.477 30.2184 243.06 24.4655C238.98 26.5575 225.224 30.1138 202.842 27.6034C180.459 25.0931 164.372 8.77586 159.126 0.93103C158.543 4.59195 157.377 12.8552 157.377 16.6207C157.377 20.3862 181.858 30.7414 194.098 35.4483L127.65 24.4655L146.885 37.0172L115.41 35.4483L125.902 43.2931C123.57 43.2931 109.438 44.2506 103.169 48C92.6776 54.2759 90.3461 58.4598 87.4317 63.6897L97.9235 62.1207C94.4263 66.8276 94.4263 74.0448 94.4263 77.8103C94.4263 81.5759 96.7578 87.7471 97.9235 90.3621L101.421 85.6552C103.292 102.914 108.888 111.7 117.281 121.741C124.059 129.85 137.675 135.776 146.655 139.685L146.655 139.685L146.657 139.686L146.658 139.686L146.66 139.687C148.798 140.618 150.674 141.434 152.131 142.138L131.148 162.534H125.902L101.421 156.259L75.1913 170.379L73.4426 175.086V182.931L83.9344 197.052L83.9344 182.931C83.9344 179.166 90.9289 173.517 94.4263 173.517V186.069V193.914L118.907 203.328C118.077 201.838 116.222 199.64 114.053 197.071L114.052 197.071C111.653 194.23 108.871 190.934 106.667 187.638C102.47 181.362 110.164 175.086 113.661 173.517V186.069H118.907H131.148C128.233 182.931 123.104 176.028 125.902 173.517C128.7 171.007 137.559 172.471 141.639 173.517L174.863 153.121C199.344 156.782 256.35 165.986 288.525 173.517C320.7 181.048 338.069 214.31 342.732 230C340.984 226.862 336.088 218.703 330.492 211.172C324.896 203.641 310.674 196.529 304.262 193.914C308.343 202.282 315.104 222.155 309.508 234.707C303.913 247.259 273.493 252.489 260.669 253.534C260.669 257.195 257.172 269.224 250.178 275.5C243.183 281.776 237.231 285.437 232.568 288.052L269.29 297.466L232.568 313.155L213.333 303.741L194.098 317.862C193.909 318.372 193.289 318.881 192.538 319.499C190.978 320.782 188.853 322.529 188.853 325.707C188.853 330.145 199.344 346.103 197.596 336.69C196.676 331.737 204.59 325.184 208.088 322.569C206.339 327.276 206.339 330.414 206.339 336.69C206.339 342.966 216.248 349.764 220.328 352.379C219.162 349.764 216.831 343.593 216.831 339.828C216.831 336.062 217.996 329.368 220.328 327.276C220.684 328.021 220.967 328.853 221.267 329.731C222.439 333.17 223.856 337.328 230.82 339.828C232.649 340.484 238.549 340.216 243.305 340H243.305H243.305L243.308 340C245.305 339.909 247.1 339.828 248.306 339.828C246.682 338.37 244.228 337.116 241.925 335.939C239.269 334.582 236.815 333.327 236.066 331.983C234.667 329.472 238.98 324.661 241.312 322.569C244.566 321.352 248.877 319.859 253.771 318.164C269.911 312.574 292.395 304.786 304.262 297.466C332.241 280.207 351.476 256.672 358.47 237.845C364.066 222.783 360.802 200.19 358.47 190.776L370.711 195.483C372.459 182.931 354.973 171.948 354.973 171.948C354.973 171.948 325.246 157.828 325.246 153.121C325.246 149.355 336.904 149.46 342.732 149.983C338.652 145.276 324.197 135.548 299.017 134.293C267.541 132.724 248.306 128.017 248.306 124.879C248.306 122.369 258.798 119.649 264.044 118.603C262.878 115.466 249.705 109.817 234.317 112.328C215.082 115.466 164.372 109.19 152.131 98.2069C139.891 87.2241 139.891 73.1034 157.377 66.8276C171.366 61.8069 195.97 65.2586 202.965 84.0862L207.719 97.192C208.885 95.6231 214.573 93.0352 228.826 92.4851C243.183 91.931 261.712 101.868 269.29 109.19C277.45 105.529 293.235 98.2159 285.027 96.6379C260.547 91.931 244.809 79.3793 241.312 73.1034C248.429 68.3965 251.926 66.8276 269.29 66.8276C277.683 66.8276 292.605 71.0115 299.017 73.1034ZM281.53 77.8103C275.935 74.0448 272.204 75.1954 271.038 76.2414L274.659 77.8103L279.904 80.9483C280.877 81.7632 281.344 82.1549 281.796 82.563C282.215 82.9405 282.62 83.3321 283.401 84.0859L283.402 84.0862C283.57 84.2482 283.861 84.5828 284.259 85.038C286.678 87.8123 293.008 95.069 299.017 95.069C303.13 95.069 307.891 92.8982 312.513 90.7909C315.75 89.3151 318.919 87.8704 321.749 87.2241C326.952 86.0362 332.956 89.1922 328.743 95.069C326.342 98.418 321.161 97.7955 315.852 97.1577L315.852 97.1577C313.7 96.8991 311.526 96.6379 309.508 96.6379C302.514 96.6379 295.519 101.345 295.519 110.759C295.519 120.172 307.76 126.448 313.006 126.448C317.202 126.448 320.583 121.218 321.749 118.603C317.086 118.08 309.631 117.034 307.76 113.897C306.11 111.13 306.134 106.052 313.006 106.052C314.345 106.052 315.891 106.911 317.838 107.994C321.152 109.837 325.631 112.328 332.241 112.328C342.732 112.328 349.85 104.483 347.978 95.069C346.413 87.1931 339.235 79.3793 326.995 79.3793C320.024 79.3793 314.187 81.4148 309.162 83.1673C305.363 84.4921 302.028 85.6552 299.017 85.6552C292.942 85.6552 289.505 83.2881 284.124 79.582C283.309 79.021 282.45 78.4292 281.53 77.8103ZM71.694 73.1034L90.929 93.5L92.6776 104.483L99.6722 112.328C96.1749 111.805 88.8306 110.131 87.4317 107.621L83.9344 101.345C81.0201 102.391 75.1913 105.11 75.1913 107.621C75.1913 110.131 79.8543 115.989 82.1858 118.603C77.5228 118.603 67.847 117.348 66.4481 112.328C65.0492 107.307 65.8652 101.868 66.4481 99.7759C63.5337 100.822 57.7049 104.483 57.7049 110.759C57.7049 117.034 62.368 122.787 64.6995 124.879C58.2878 123.31 45.4645 118.603 45.4645 112.328C45.4645 106.052 51.2933 97.1609 54.2076 93.5C52.459 93.5 48.2623 94.4414 45.4645 98.2069C42.6667 101.972 38.4699 107.098 36.7213 109.19L33.224 96.6379V93.5C33.224 90.9897 34.3898 88.2701 34.9727 87.2241C36.7213 85.1322 41.2678 80.9483 45.4645 80.9483H61.2022L71.694 73.1034ZM64.6995 131.155C80.0875 131.155 89.7632 138.477 92.6776 142.138C91.4928 142.02 89.9512 141.795 88.1736 141.536C82.0809 140.647 73.2166 139.354 66.4481 140.569C56.16 142.415 20.9836 153.121 20.9836 186.069C20.9836 212.428 44.2987 227.385 55.9563 231.569C49.0847 226.862 36.8442 217.448 36.7213 193.914C36.6492 180.107 52.459 162.534 61.2022 165.672C57.7049 168.81 50.7104 178.224 50.7104 190.776C50.7104 206.466 66.4481 222.155 89.1804 223.724C111.913 225.293 159.126 181.362 166.12 173.517C170.317 168.81 181.275 168.81 185.355 170.379C184.634 171.027 183.79 171.664 182.885 172.347L182.885 172.347C180.866 173.871 178.544 175.624 176.612 178.224C173.814 181.99 171.366 186.069 171.366 193.914C180.109 189.207 184.502 186.927 204.59 186.069C241.312 184.5 251.803 215.879 251.803 228.431C251.803 240.983 250.055 258.241 236.066 272.362C224.97 283.562 212.253 286.847 202.259 289.428C196.697 290.865 191.979 292.084 188.853 294.328C181.858 299.348 181.275 305.833 181.858 308.448L173.115 305.31L166.12 297.466C166.275 298.298 166.569 299.064 166.891 299.904C167.785 302.232 168.897 305.13 167.869 311.586C166.47 320.372 162.623 324.138 155.628 328.845C156.794 325.184 158.426 316.607 155.628 311.586C152.831 306.566 147.468 303.218 145.137 302.172V325.707C145.137 333.238 149.8 341.397 152.131 344.534C148.634 345.057 140.24 345.162 134.645 341.397C127.65 336.69 122.404 331.983 122.404 322.569C122.404 315.038 125.902 307.925 127.65 305.31C125.647 307.707 124.373 309.613 123.285 311.241C121.525 313.875 120.252 315.781 117.159 317.862C110.164 322.569 103.169 324.138 97.9235 324.138C97.9235 319.954 99.6722 309.703 106.667 302.172C113.661 294.641 130.565 292.759 138.142 292.759L118.907 281.776C122.404 279.684 131.497 275.5 139.891 275.5C147.511 275.5 156.053 279.638 159.489 281.302C160.784 281.929 161.353 282.205 160.874 281.776C159.475 280.521 161.457 273.931 162.623 270.793C162.623 273.408 167.169 278.638 185.355 278.638C208.088 278.638 218.579 259.81 218.579 253.534C218.579 247.259 213.333 228.431 187.104 228.431C175.09 228.431 159.774 235.673 143.173 243.522C123.53 252.81 102.087 262.948 82.1858 262.948C45.4645 262.948 -3.05176e-05 234.707 -3.05176e-05 190.776C-3.05176e-05 146.845 45.4645 131.155 64.6995 131.155ZM176.612 236.276C177.778 239.414 181.508 247.259 187.104 253.534C192.7 259.81 198.761 264.517 201.093 266.086C203.424 263.994 208.088 258.241 208.088 251.966C208.088 245.874 204.925 245.459 200.236 244.843C198.886 244.665 197.41 244.471 195.847 244.121C190.251 242.866 180.692 238.368 176.612 236.276ZM225.574 55.8448C220.745 55.8448 216.831 53.035 216.831 49.569C216.831 46.1029 220.745 43.2931 225.574 43.2931C230.403 43.2931 234.317 46.1029 234.317 49.569C234.317 53.035 230.403 55.8448 225.574 55.8448Z" fill="current"/>
</svg>
