<svg width="341" height="332" viewBox="0 0 341 332" fill="none" xmlns="http://www.w3.org/2000/svg">
<path fill-rule="evenodd" clip-rule="evenodd" d="M16.5564 126C15.3906 130.707 13.0591 142.631 13.0591 152.672C13.0591 158.314 14.8256 166.175 16.7705 174.83C19.1525 185.43 21.8023 197.221 21.8023 207.586C21.8023 222.648 7.81318 245.241 0.818644 254.655L30.5454 308L51.5291 331.535H69.0154C68.4325 328.92 66.5673 322.435 63.7695 317.414C62.3209 314.814 60.5723 313.561 58.5236 312.092C55.6264 310.015 52.1291 307.508 48.0318 300.155C42.4362 290.114 43.3688 271.914 44.5345 264.069C56.775 259.885 84.0537 248.066 95.2449 234.259C109.234 217 110.983 213.862 114.48 201.31C117.278 191.269 115.646 174.115 114.48 166.793C117.394 172.023 123.223 184.679 123.223 193.466C123.223 202.252 117.394 218.046 114.48 224.845C123.223 226.937 143.507 231.435 154.699 232.69C165.89 233.945 187.34 234.259 196.666 234.259C196.083 242.626 195.966 262.5 200.163 275.052C204.36 287.603 220.564 316.891 228.141 329.966H245.628C239.799 325.782 228.141 310.824 228.141 284.466C228.141 251.517 240.382 221.707 249.125 204.448C251.797 199.174 254.795 194.34 257.77 189.542C264.532 178.64 271.177 167.926 273.606 152.672C276.404 135.1 279.434 112.925 280.6 104.035C278.852 103.512 274.655 101.21 271.857 96.1897C269.059 91.169 270.691 85.7299 271.857 83.638C273.023 87.2989 276.753 95.2483 282.349 97.7587C287.945 100.269 302.167 104.035 308.578 105.603L305.081 129.138H308.578L324.316 110.31C329.562 107.172 340.054 99.6414 340.054 94.6207C340.054 91.2575 336.539 85.6413 333.276 80.4284C330.45 75.9139 327.813 71.7018 327.813 69.5173C327.813 64.8104 327.813 61.6724 324.316 56.9655C321.518 53.2 298.669 38.6609 287.595 31.8621C273.606 21.4023 236.185 0.482788 198.414 0.482788C151.201 0.482788 128.469 27.1552 131.966 41.2759C134.091 49.8529 140.127 58.5345 144.207 61.6724C142.458 58.5345 140.709 50.3759 140.709 42.8449C140.709 33.4311 151.201 14.6035 196.666 14.6035C233.037 14.6035 253.788 32.3851 259.617 41.2759C252.039 43.8908 236.884 51.0035 236.884 58.5345C236.884 67.9483 250.873 67.9483 254.371 67.9483C257.169 67.9483 267.194 61.6724 271.857 58.5345C268.943 63.7644 261.365 74.2242 254.371 74.2242C247.376 74.2242 243.296 73.1782 242.13 72.6552C236.301 81.546 213.103 99.3276 166.939 99.3276C135.49 99.3276 119.622 95.1334 105.183 91.3166L105.183 91.3166C93.128 88.1302 82.0688 85.2069 63.7695 85.2069C27.6714 85.2069 21.1557 91.5266 15.142 97.3594C14.4556 98.0252 13.7757 98.6846 13.0591 99.3276C6.06455 105.603 -0.929991 122.862 0.818644 126C2.21755 128.51 10.7276 127.046 14.8077 126H16.5564ZM235.136 33.4311C230.473 29.7701 217.649 20.8793 203.66 20.8793C186.174 20.8793 159.944 33.4311 159.944 52.2587C159.944 60.1035 165.19 66.3793 172.185 71.0862C170.436 68.4713 166.939 61.3587 166.939 53.8276C166.939 44.4138 177.431 31.8621 203.66 31.8621C211.111 31.8621 222.97 32.6532 229.845 33.1119C232.652 33.2992 234.629 33.4311 235.136 33.4311ZM89.999 251.517C95.5947 247.752 100.491 242.626 102.239 240.535C105.737 267.207 117.977 293.879 123.223 304.862C127.42 313.648 137.795 326.305 142.458 331.535H124.972C118.56 324.213 103.289 306.117 93.4963 292.31C83.7039 278.503 77.7586 264.592 76.0099 259.362C78.3415 258.316 84.4034 255.283 89.999 251.517ZM268.36 191.897C266.028 195.035 260.666 202.566 257.868 207.586C254.371 213.862 252.622 223.276 254.371 224.845C254.863 225.287 257.156 225.977 260.276 226.916L260.277 226.916C268.24 229.313 281.585 233.329 284.098 238.966C287.595 246.81 289.343 256.224 289.343 264.069C289.343 270.946 293.375 274.206 295.548 275.963L295.549 275.964C295.854 276.21 296.123 276.427 296.338 276.621C297.737 277.876 306.247 279.236 310.327 279.759C308.578 276.098 305.081 267.521 305.081 262.5C305.081 260.6 305.241 258.269 305.416 255.724L305.416 255.723C305.819 249.861 306.3 242.866 305.081 237.397C303.682 231.121 280.017 204.448 268.36 191.897ZM306.73 67.0352C308.555 65.1402 307.665 61.7668 304.743 59.5003C301.82 57.2339 297.971 56.9327 296.146 58.8276C294.32 60.7226 295.21 64.096 298.133 66.3625C301.055 68.6289 304.904 68.9301 306.73 67.0352Z" fill="current"/>
</svg>
