<svg viewBox="0 0 205 205" fill="none" xmlns="http://www.w3.org/2000/svg">
<mask id="path-1-outside-1_34_140" maskUnits="userSpaceOnUse" x="94" y="0" width="111" height="205" fill="black">
<rect fill="white" x="94" width="111" height="205"/>
<path fill-rule="evenodd" clip-rule="evenodd" d="M188 102.083C188 146.435 154.23 182.899 111 187.166V17C154.23 21.2666 188 57.731 188 102.083Z"/>
</mask>
<path fill-rule="evenodd" clip-rule="evenodd" d="M188 102.083C188 146.435 154.23 182.899 111 187.166V17C154.23 21.2666 188 57.731 188 102.083Z" class="rightPart" fill="current"/>
<path d="M111 187.166L112.67 204.083C107.894 204.555 103.141 202.985 99.5848 199.763C96.0285 196.54 94 191.965 94 187.166H111ZM111 17H94C94 12.2008 96.0285 7.62525 99.5848 4.40268C103.141 1.18011 107.894 -0.389168 112.67 0.0821953L111 17ZM109.33 170.248C143.947 166.831 171 137.606 171 102.083H205C205 155.263 164.513 198.967 112.67 204.083L109.33 170.248ZM128 17V187.166H94V17H128ZM171 102.083C171 66.5596 143.947 37.3343 109.33 33.9178L112.67 0.0821953C164.513 5.19889 205 48.9023 205 102.083H171Z" fill="white" mask="url(#path-1-outside-1_34_140)"/>
<mask id="path-3-outside-2_34_140" maskUnits="userSpaceOnUse" x="0" y="0" width="111" height="205" fill="black">
<rect fill="white" width="111" height="205"/>
<path fill-rule="evenodd" clip-rule="evenodd" d="M17 102.083C17 146.435 50.7701 182.899 94 187.166V17C50.7701 21.2666 17 57.731 17 102.083Z"/>
</mask>
<path fill-rule="evenodd" clip-rule="evenodd" d="M17 102.083C17 146.435 50.7701 182.899 94 187.166V17C50.7701 21.2666 17 57.731 17 102.083Z" class="leftPart" fill="current"/>
<path d="M94 187.166L92.3303 204.083C97.1063 204.555 101.859 202.985 105.415 199.763C108.972 196.54 111 191.965 111 187.166H94ZM94 17H111C111 12.2008 108.972 7.62525 105.415 4.40268C101.859 1.18011 97.1063 -0.389168 92.3303 0.0821953L94 17ZM95.6697 170.248C61.0534 166.831 34 137.606 34 102.083H0C0 155.263 40.4869 198.967 92.3303 204.083L95.6697 170.248ZM77 17V187.166H111V17H77ZM34 102.083C34 66.5596 61.0534 37.3343 95.6697 33.9178L92.3303 0.0821953C40.4869 5.19889 0 48.9023 0 102.083H34Z" fill="white" mask="url(#path-3-outside-2_34_140)"/>
</svg>
