<svg viewBox="0 0 26 26" fill="none" xmlns="http://www.w3.org/2000/svg">
<path d="M13.0084 0C12.4385 0 11.8689 0.209413 11.4045 0.629476L0.75687 10.2599C0.0237502 10.9229 -0.226782 12.063 0.228103 12.9725C0.854132 14.2232 2.33014 14.4844 3.28244 13.6221L12.6878 5.11621C12.8735 4.94829 13.1434 4.94829 13.329 5.11621L22.7344 13.6221C23.1087 13.9612 23.5639 14.1257 24.0168 14.1257C24.6038 14.1257 25.1857 13.8489 25.5825 13.311C26.2716 12.3772 26.0759 10.9978 25.2287 10.2314L24.0177 9.13639V3.61182C24.0177 2.81394 23.4202 2.16667 22.6836 2.16667H21.3495C20.6123 2.16667 20.0144 2.81394 20.0144 3.61182V5.51506L14.6123 0.629476C14.1479 0.209413 13.5784 0 13.0084 0ZM13.0084 7L1.99718 16.9556V21.6667C1.99718 24.0598 3.78969 26 6.00056 26H20.0124C22.2233 26 24.0158 24.0598 24.0158 21.6667V16.9556L13.0084 7ZM12 15.1667H14.0825C14.6355 15.1667 16.011 15.6515 16.011 16.25V21.6667H10.0059V16.25C10.0059 15.6515 11.447 15.1667 12 15.1667Z" fill="current"/>
</svg>
