<svg width="394" height="330" viewBox="0 0 394 330" fill="none" xmlns="http://www.w3.org/2000/svg">
<path fill-rule="evenodd" clip-rule="evenodd" d="M204.59 222.793C186.645 225.721 132.896 240.052 111.913 246.328C117.159 240.052 120.656 233.776 124.153 225.931C127.183 219.136 130.565 209.718 131.148 205.534C118.324 222.27 90.5793 257.938 82.1858 266.724C71.694 277.707 48.9618 304.379 43.7159 312.224C39.5191 318.5 38.47 326.345 38.47 329.483H13.9891C13.9891 326.345 15.0383 318.5 19.235 312.224C22.0507 308.014 24.3626 306.515 26.9819 304.817C29.2426 303.352 31.7324 301.738 34.9727 298.103C41.9672 290.259 52.459 271.431 57.705 262.017C61.9017 254.486 68.7796 235.868 71.694 227.5C63.5337 224.885 47.2131 212.438 47.2131 183.569C47.2131 156.866 59.6607 132.74 66.8424 118.821C69.366 113.929 71.2393 110.298 71.694 108.259C73.0929 101.983 72.2769 94.1379 71.694 91C74.6084 86.8161 80.7869 77.1931 82.1858 72.1724C83.5847 67.1517 81.603 60.6667 80.4372 58.0517C79.8543 61.7126 78.3388 69.9759 76.9399 73.7414C75.8252 76.7418 73.2894 78.4672 70.2384 80.5431C68.5032 81.7237 66.6013 83.0177 64.6995 84.7241C61.2859 87.787 54.1702 88.1924 48.1704 88.5343C44.9499 88.7178 42.0509 88.883 40.2186 89.431C37.9355 90.1139 34.99 92.2826 31.9587 94.5145L31.9586 94.5146C28.0248 97.411 23.9464 100.414 20.9836 100.414C16.7667 100.414 13.6797 97.3723 10.8144 94.5492L10.8143 94.5492C10.1151 93.8603 9.42915 93.1845 8.74317 92.569C5.2459 89.431 0 84.7241 0 78.4483C0 74.2644 6.21737 71.4751 12.4347 68.6858C15.5434 67.2912 18.6521 65.8966 20.9836 64.3276C27.237 60.1195 34.888 45.8787 37.6889 40.6656C38.0208 40.0477 38.2847 39.5566 38.47 39.2241C39.8689 36.7138 36.7213 28.7644 34.9727 25.1034L27.9782 6.27586C29.1439 5.22989 32.1749 3.76552 34.9727 6.27586L45.4645 15.6897L47.2131 0C51.2933 3.13793 60.5028 10.0414 64.6995 12.5517C68.8962 15.0621 72.2769 21.9655 73.4427 25.1034C73.8339 24.0504 73.6999 22.0079 73.5696 20.0196V20.0195L73.5695 20.0192C73.5057 19.0451 73.4427 18.084 73.4427 17.2586C73.4427 14.7483 71.694 8.36782 69.9454 6.27586C76.3571 4.18391 92.3279 1.56897 104.918 1.56897C115.787 1.56897 129.991 13.5415 140.62 22.5004L140.62 22.5006L140.621 22.501L140.621 22.5013C145.382 26.5146 149.426 29.9231 152.131 31.3793C159.126 35.1448 169.035 36.0862 173.115 36.0862C169.035 39.2241 159.126 45.5 152.131 45.5H136.394C138.725 48.1149 146.186 53.3448 157.377 53.3448C163.816 53.3448 170.625 50.3533 177.976 47.1241C186.595 43.3375 195.957 39.2241 206.339 39.2241C221.727 39.2241 225.574 50.7299 225.574 56.4828C236.649 58.5747 258.798 66.5241 258.798 81.5862C258.798 96.6483 237.814 101.46 227.323 101.983C230.237 100.937 236.066 97.9035 236.066 94.1379C236.066 93.0611 236.523 91.9844 236.957 90.9639C238.419 87.5238 239.608 84.7241 222.077 84.7241C203.891 84.7241 178.361 111.92 167.869 125.517C178.361 124.471 203.191 121.438 218.579 117.672C224.652 116.186 232.642 113.762 241.284 111.14C260.014 105.457 281.805 98.8448 293.771 98.8448C307.76 98.8448 320.583 106.167 325.246 109.828C328.743 103.029 340.984 89.431 361.967 89.431C388.197 89.431 393.443 111.397 393.443 123.948C393.443 135.558 390.451 140.456 381.699 154.783C380.989 155.946 380.241 157.17 379.454 158.466C368.962 175.724 361.967 197.69 361.967 203.966C361.967 208.986 363.133 214.425 363.716 216.517C362.55 217.04 359.17 217.145 354.973 213.379C350.776 209.614 350.893 202.397 351.476 199.259C350.31 203.443 347.978 213.379 347.978 219.655C347.978 225.931 350.31 233.776 351.476 236.914C343.898 233.776 328.044 226.872 325.246 224.362C321.749 221.224 313.006 213.379 313.006 192.983C313.006 176.666 323.497 161.08 328.743 155.328C320.583 158.466 304.262 170.703 304.262 194.552C304.262 220.414 322.688 233.286 329.853 238.291C330.946 239.055 331.777 239.636 332.241 240.052C335.038 242.562 333.406 245.282 332.241 246.328C314.754 267.247 279.082 310.341 276.284 315.362C273.487 320.383 273.953 325.822 274.536 327.914H243.06C243.643 323.207 245.858 312.538 250.055 307.517C254.252 302.497 264.627 298.103 269.29 296.534C272.787 292.351 280.481 283.041 283.279 279.276C286.776 274.569 290.273 268.293 290.273 257.31C290.273 249.806 284.559 245.965 277.592 241.281C274.363 239.11 270.864 236.758 267.541 233.776C257.049 224.362 251.803 211.81 251.803 194.552C251.803 180.745 259.964 161.603 264.044 153.759C257.049 162.649 243.06 182.941 243.06 192.983C243.06 203.024 244.226 213.902 244.809 218.086C236.066 218.086 223.825 219.655 204.59 222.793ZM38.47 191.414C37.0711 183.883 37.8871 178.862 38.47 177.293C29.7268 177.293 3.49727 186.707 3.49727 194.552C3.49727 200.037 6.9174 204.756 10.1703 209.243C11.5693 211.174 12.9373 213.061 13.9891 214.948C15.7377 218.086 16.612 222.793 17.4864 227.5C18.3607 232.207 19.235 236.914 20.9836 240.052C23.7814 245.072 41.9672 252.603 50.7104 255.741L57.705 232.207L34.9727 230.638L29.7268 207.103H41.9672C41.3844 205.012 39.8689 198.945 38.47 191.414ZM269.29 251.034C269.29 256.055 236.649 288.69 220.328 304.379C217.996 306.471 212.634 311.597 209.836 315.362C207.038 319.128 207.505 326.345 208.088 329.483H178.361C178.361 325.822 179.41 316.931 183.607 310.655C186.801 305.879 191.939 303.429 196.654 301.181C199.684 299.737 202.538 298.376 204.59 296.534C208.787 292.769 227.323 267.77 236.066 255.741C237.814 253.649 241.312 248.21 241.312 243.19C241.312 238.169 237.814 230.638 236.066 227.5L248.306 224.362C250.154 230.993 256.746 236.661 262.11 241.272C266.9 245.39 270.71 248.666 269.29 251.034ZM54.2077 28.2414C52.8088 24.4759 52.459 16.2126 52.459 12.5517C52.8962 12.9439 53.7704 13.6303 54.8633 14.4883L54.8634 14.4884L54.8634 14.4884C58.1421 17.0625 63.388 21.181 64.6995 23.5345C66.4481 26.6724 69.9454 34.5172 66.4481 36.0862C62.9509 37.6552 55.9563 32.9483 54.2077 28.2414ZM47.2131 56.4828C50.011 55.2276 49.5447 51.7759 48.9618 50.2069C47.2131 50.2069 43.3661 50.5207 41.9672 51.7759C40.5683 53.031 40.2186 57.5287 40.2186 59.6207L47.2131 56.4828ZM97.9236 31.3793C103.752 32.4253 116.809 38.2828 122.404 53.3448C127.283 66.4775 128.759 75.7933 129.799 82.3573C130.25 85.2037 130.619 87.5327 131.148 89.431C132.547 94.4517 142.222 110.351 146.885 117.672C141.057 112.966 128.35 100.728 124.153 89.431C121.898 83.3608 120.935 76.7107 120.015 70.3532C118.795 61.9217 117.649 54.0049 113.661 48.6379C108.066 41.1069 100.838 33.9943 97.9236 31.3793ZM192.35 70.6035C186.754 73.1138 176.029 73.7414 171.366 73.7414C175.514 72.9971 180.842 68.0157 186.044 63.1522C191.808 57.7638 197.417 52.5202 201.093 53.3448C206.689 54.6 206.922 60.1437 206.339 62.7586C204.007 64.3276 197.945 68.0931 192.35 70.6035ZM335.738 114.534L335.963 114.696C335.591 114.983 335.494 114.973 335.738 114.534ZM335.963 114.696C338.958 116.849 344.866 121.156 346.23 122.379C347.629 123.634 351.476 128.132 353.224 130.224C357.887 124.994 365.465 112.966 358.47 106.69C351.851 100.751 341.223 110.098 337.209 113.629C336.662 114.111 336.237 114.484 335.963 114.696Z" fill="current"/>
</svg>
