<svg viewBox="0 0 26 26" fill="none" xmlns="http://www.w3.org/2000/svg">
<path fill-rule="evenodd" clip-rule="evenodd" d="M13 26C20.1797 26 26 20.1797 26 13C26 5.8203 20.1797 0 13 0C5.8203 0 0 5.8203 0 13C0 20.1797 5.8203 26 13 26ZM16.9146 5.71068C16.9061 5.71868 16.8985 5.72646 16.8905 5.73497L13.1786 9.66203L4.71108 9.5993C4.4005 9.59701 4.10199 9.71937 3.88237 9.93898C3.2942 10.5271 3.49809 11.5249 4.26982 11.8352L9.23687 13.8323L7.05733 16.1382L4.94446 15.4605C4.50308 15.3189 4.0196 15.4359 3.69184 15.7637C3.20873 16.2468 3.20873 17.0301 3.69185 17.5132L8.28905 22.1104C8.7676 22.589 9.54349 22.589 10.022 22.1104C10.3536 21.7788 10.4669 21.287 10.3138 20.8438L9.51389 18.5283L11.8619 16.3089L13.9588 21.5242C14.2691 22.2959 15.2668 22.4998 15.855 21.9116C16.0746 21.692 16.197 21.3935 16.1947 21.0829L16.1294 12.2753L19.883 8.72743C19.8915 8.71939 19.8992 8.71187 19.9072 8.70332C20.0338 8.568 20.2341 6.41271 19.7196 5.89828C19.2052 5.38386 17.0499 5.58409 16.9146 5.71068Z" fill="current"/>
</svg>
