<svg viewBox="0 0 26 26" fill="none" xmlns="http://www.w3.org/2000/svg">
<path fill-rule="evenodd" clip-rule="evenodd" d="M5 0C2.23859 0 0 2.23858 0 5V21C0 23.7614 2.23859 26 5 26H21C23.7614 26 26 23.7614 26 21V5C26 2.23858 23.7614 0 21 0H5ZM11.3077 3H8C5.23859 3 3 5.23858 3 8V18C3 20.7614 5.23859 23 8 23H11.3077V21.4614H8.38464C6.17551 21.4614 4.38464 19.6705 4.38464 17.4614V8.53832C4.38464 6.32919 6.17551 4.53831 8.38464 4.53831H11.3077V3ZM23.433 13.6547C23.7585 13.2789 23.7585 12.7211 23.433 12.3453L16.0059 3.76924C15.3998 3.06934 14.25 3.49801 14.25 4.4239V9H9C8.44772 9 8 9.44772 8 10V17C8 17.5523 8.44772 18 9 18H14.25V21.5761C14.25 22.502 15.3998 22.9307 16.0059 22.2308L23.433 13.6547Z" fill="current"/>
</svg>
