<svg viewBox="0 0 47 47" fill="none" xmlns="http://www.w3.org/2000/svg">
<path d="M23.7157 1.41095C20.02 1.20348 14.4829 2.3482 9.84276 5.67C5.14076 9.03612 1.38745 14.6228 1.38745 23.1691C1.38745 31.7 4.99753 37.3504 9.55165 40.8419C14.0619 44.2999 19.4632 45.6179 23.1145 45.6179C23.45 45.6179 23.7809 45.6057 24.1068 45.5816C27.9526 45.4468 33.0381 44.0394 37.2627 40.6983C41.7547 37.1458 45.2253 31.4416 45.2253 22.926C45.2253 14.395 41.6608 8.96558 37.1314 5.70229C32.665 2.48431 27.3286 1.41663 23.7157 1.41095Z" stroke="white" stroke-width="2"/>
<path d="M2 23.6944C2 7.12418 16.3333 1.63059 24.0811 2.01906C18.2703 2.21174 13.3842 5.63213 13.3842 12.8877C13.3842 20.795 19.4717 23.6557 23.4982 23.5344C27.5248 23.4131 34.3959 26.2298 34.3959 34.3783C34.3959 39.982 29.8812 44.9998 23.5 44.9998C16.4631 44.9998 2 39.9646 2 23.6944ZM2 23.6944C2 35.5097 11.5392 45.0007 23.3063 45.0007C35.0735 45.0007 45 35.9944 45 23.3244C45 8.11941 33.9596 2.01804 23.6937 2.01804C10.3289 2.19436 2 11.9272 2 23.6944ZM23.8874 44.9926C28.8958 44.9925 34.3959 41.0202 34.3959 33.7646C34.3959 27.3766 28.3084 23.5051 23.7919 23.5051C19.2753 23.5051 13.3842 21.1822 13.3842 12.2704C13.3842 6.88317 17.508 2.01804 23.8892 2.01804C30.9261 2.01804 45 6.16059 45 22.7308C45 39.301 31.4397 44.9924 23.8874 44.9926ZM8.1111 16.625C9.07957 14.6881 10.048 11.9764 10.8228 12.5575C11.5976 13.1386 10.2417 13.526 10.2417 14.6881C10.2417 15.8503 10.2417 17.0124 10.8228 17.3998C11.2877 17.7097 9.72521 19.3368 8.88587 20.1115C8.69218 20.6926 8.42101 22.126 8.88587 23.2106C9.46695 24.5665 9.46695 24.5665 9.85434 25.1476C10.1643 25.6124 11.0165 26.2452 11.4039 26.5034C11.2102 26.1806 10.939 25.535 11.4039 25.535C11.8688 25.535 13.018 26.8262 13.5345 27.4719C14.051 27.4719 15.3165 27.5494 16.2462 27.8593C17.176 28.1692 18.1832 28.7632 18.5706 29.0214C18.4414 28.5049 18.2607 27.4719 18.5706 27.4719C18.9579 27.4719 19.539 27.8593 20.3138 28.8277C20.9336 29.6025 21.0886 30.1836 21.0886 30.3773C21.8634 30.7001 23.7616 31.6557 25.1561 32.8953C26.8994 34.4449 27.0931 35.2196 26.8994 35.9944C26.7057 36.7692 24.9625 37.7377 23.0255 37.7377C21.476 37.7377 20.3138 37.4794 19.9264 37.3503C19.6036 37.6731 18.7643 38.3962 17.9895 38.7061C17.021 39.0935 15.8588 39.0935 15.4715 38.7061C15.0841 38.3187 15.6652 37.1566 16.2462 36.9629L17.9895 36.3818C17.021 35.9944 14.8516 35.0259 13.9219 34.2512C12.9922 33.4764 11.4685 31.8623 10.8228 31.1521C10.4354 30.8938 9.50569 30.3773 8.88587 30.3773C8.1111 30.3773 7.14263 30.571 7.14263 29.9899C7.14263 29.4088 7.72371 29.0214 8.1111 29.0214H9.07957C8.56305 28.3758 7.45254 26.6971 7.14263 25.1476C6.83272 23.598 7.27176 22.1776 7.53002 21.6611C7.32692 20.8217 7.15879 18.6395 8.1111 16.625ZM39.056 30.2005C38.0876 32.1374 37.1191 34.8491 36.3443 34.2681C35.5695 33.687 36.9254 33.2996 36.9254 32.1374C36.9254 30.9753 36.9254 29.8131 36.3443 29.4257C35.8794 29.1158 37.4419 27.4888 38.2812 26.714C38.4749 26.1329 38.7461 24.6996 38.2812 23.6149C37.7002 22.259 37.7002 22.259 37.3128 21.678C37.0029 21.2131 36.1506 20.5804 35.7632 20.3221C35.9569 20.6449 36.2281 21.2906 35.7632 21.2906C35.2984 21.2906 34.1491 19.9993 33.6326 19.3536C33.1161 19.3536 31.8506 19.2762 30.9209 18.9663C29.9912 18.6563 28.9839 18.0624 28.5966 17.8041C28.7257 18.3206 28.9065 19.3536 28.5966 19.3536C28.2092 19.3536 27.6281 18.9663 26.8533 17.9978C26.2335 17.223 26.0786 16.6419 26.0786 16.4482C25.3038 16.1254 23.4056 15.1699 22.011 13.9302C20.2677 12.3807 20.074 11.6059 20.2677 10.8311C20.4614 10.0563 22.2047 9.08788 24.1416 9.08788C25.6912 9.08788 26.8533 9.34614 27.2407 9.47527C27.5635 9.15244 28.4029 8.42932 29.1776 8.11941C30.1461 7.73202 31.3083 7.73202 31.6957 8.11941C32.083 8.5068 31.502 9.66896 30.9209 9.86265L29.1776 10.4437C30.1461 10.8311 32.3155 11.7996 33.2452 12.5744C34.1749 13.3491 35.6987 14.9633 36.3443 15.6735C36.7317 15.9317 37.6614 16.4482 38.2812 16.4482C39.056 16.4482 40.0245 16.2545 40.0245 16.8356C40.0245 17.4167 39.4434 17.8041 39.056 17.8041H38.0876C38.6041 18.4497 39.7146 20.1284 40.0245 21.678C40.3344 23.2275 39.8954 24.6479 39.6371 25.1645C39.8402 26.0038 40.0083 28.1861 39.056 30.2005Z" stroke="#02081E" stroke-width="2"/>
</svg>
