<svg viewBox="0 0 26 26" fill="none" xmlns="http://www.w3.org/2000/svg">
<circle cx="13.0894" cy="12.9106" r="12.9106" fill="white"/>
<path d="M24.8548 12.8193C24.8548 6.29689 19.5778 1.00945 13.0683 1.00945C6.55876 1.00945 1.28175 6.29689 1.28175 12.8193V12.8427C1.28175 16.1232 3.91503 18.7827 7.16335 18.7827C10.4117 18.7827 13.0449 16.1232 13.0449 12.8427V12.866C13.0449 9.5984 15.6887 6.94944 18.9499 6.94944C22.2111 6.94944 24.8548 9.5984 24.8548 12.866V12.8193Z" fill="#5767A0"/>
<path d="M1.23507 12.9128C1.23507 19.4352 6.51208 24.7227 13.0216 24.7227C19.5311 24.7227 24.8081 19.4352 24.8081 12.9128V12.8895C24.8081 9.60889 22.1749 6.94946 18.9265 6.94946C15.6782 6.94946 13.0449 9.60889 13.0449 12.8895V12.8661C13.0449 16.1337 10.4012 18.7827 7.14001 18.7827C3.8788 18.7827 1.23507 16.1337 1.23507 12.8661V12.9128Z" fill="white"/>
<path d="M7.48775 19.8041C7.16556 20.2291 8.66912 20.7603 9.74309 21.2916C10.86 21.8139 12.07 21.7217 12.5354 21.6103C12.8218 21.752 13.6094 21.7803 14.4686 21.6103C15.3277 21.4403 16.2585 21.0437 16.6165 20.7603V21.2916C16.6165 21.5041 16.8313 21.8228 17.1535 21.8228C17.4757 21.8228 17.3683 21.2916 17.3683 20.8666C17.3683 20.5266 17.6547 20.0166 17.7979 19.8041C18.1916 19.45 19.0866 18.6141 19.5162 18.1042C19.9458 17.5942 20.4828 16.4042 20.6976 15.873L21.0198 16.8292C21.1271 17.1479 21.7715 17.4667 21.9863 17.2542C22.2011 17.0417 22.2011 16.4042 21.9863 15.873C21.8145 15.448 21.4135 14.9876 21.2345 14.8105C21.3061 14.598 21.4052 13.5291 21.2238 12.6987C20.6976 10.2911 19.041 10.0308 18.0534 10.6491C17.3683 11.078 17.1746 12.1659 17.1746 12.8152C17.1746 13.4645 17.3247 13.6087 17.3683 14.173C17.2609 14.173 16.9387 14.258 16.5091 14.598C15.9721 15.023 15.7573 15.3417 15.7573 15.5542C15.7573 15.7242 16.8882 15.9438 17.1746 15.873C17.1746 16.4858 17.0689 16.933 16.8746 17.319C16.6586 17.7479 16.3755 18.1329 15.9471 18.4433C15.5891 18.7266 14.6833 19.2304 14.6833 19.4854C14.6833 19.7404 15.4075 19.5916 15.5865 19.4854C15.4433 19.6979 14.8654 20.3912 14.0001 20.6797C13.818 20.7405 13.3511 20.824 12.7742 20.7519C12.1263 20.6708 11.7809 20.291 11.5483 20.1747C11.2599 20.0304 10.4222 19.1262 10.2504 19.3811C10.0356 19.6999 9.3135 20.1229 8.66912 20.1229C8.02474 20.1229 7.80994 19.3791 7.48775 19.8041Z" fill="#5767A0"/>
<path d="M18.5556 5.88122C18.8768 5.45623 17.378 4.92499 16.3074 4.39376C15.194 3.87139 13.9879 3.96361 13.524 4.07501C13.2385 3.93335 12.4534 3.90501 11.597 4.07501C10.7405 4.245 9.8127 4.64167 9.45584 4.92499V4.39376C9.45584 4.18126 9.24174 3.86252 8.92057 3.86252C8.5994 3.86252 8.70646 4.39376 8.70646 4.81875C8.70646 5.15874 8.42097 5.66872 8.27823 5.88122C7.88569 6.23538 6.99357 7.07119 6.56534 7.58118C6.13712 8.09117 5.60184 9.28114 5.38773 9.81238L5.06656 8.85615C4.95951 8.53741 4.31717 8.21866 4.10306 8.43116C3.88895 8.64365 3.88895 9.28114 4.10306 9.81238C4.27435 10.2374 4.67402 10.6978 4.85245 10.8748C4.78108 11.0873 4.6823 12.1562 4.8632 12.9866C5.38773 15.3942 7.039 15.6545 8.02345 15.0363C8.70646 14.6073 8.89947 13.5194 8.89947 12.8702C8.89947 12.2209 8.74991 12.0766 8.70646 11.5123C8.81352 11.5123 9.13468 11.4273 9.5629 11.0873C10.0982 10.6624 10.3123 10.3436 10.3123 10.1311C10.3123 9.96112 9.18495 9.74154 8.89947 9.81238C8.89947 9.19958 9.00487 8.75238 9.1986 8.36634C9.41385 7.9374 9.6961 7.55243 10.1232 7.24205C10.48 6.95873 11.3829 6.45496 11.3829 6.19996C11.3829 5.94497 10.661 6.09372 10.4826 6.19996C10.6253 5.98747 11.2014 5.29418 12.0639 5.00561C12.2455 4.94488 12.7109 4.86132 13.2859 4.93347C13.9318 5.0145 14.2761 5.39428 14.5079 5.51061C14.7954 5.6549 15.6305 6.55918 15.8018 6.30419C16.0159 5.98545 16.7356 5.56248 17.378 5.56248C18.0203 5.56248 18.2344 6.30621 18.5556 5.88122Z" fill="white"/>
</svg>
