<svg width="40" height="42" viewBox="0 0 40 42" fill="none" xmlns="http://www.w3.org/2000/svg">
<g id="Group 106" filter="url(#filter0_d_27_816)">
<circle id="Ellipse 27" cx="20.0895" cy="17.9106" r="12.9106" transform="rotate(-65.4593 20.0895 17.9106)" fill="white" style="fill:white;fill-opacity:1;"/>
<g id="Group 5">
<g id="Group 4">
<g id="Group 2">
<path id="Vector" d="M24.8931 7.17009C18.9599 4.46108 11.9583 7.06532 9.25466 12.9868C6.55099 18.9083 9.16904 25.9047 15.1022 28.6137L15.1235 28.6234C18.1077 29.986 21.6206 28.6951 22.9698 25.7403C24.3189 22.7854 22.9935 19.2854 20.0092 17.9228L20.0305 17.9326C17.058 16.5754 15.7464 13.0702 17.1009 10.1036C18.4554 7.13703 21.9632 5.83233 24.9356 7.18952L24.8931 7.17009Z" fill="#5767A0" style="fill:#5767A0;fill:color(display-p3 0.3412 0.4039 0.6275);fill-opacity:1;"/>
<path id="Vector_2" d="M15.168 28.695C21.1012 31.404 28.1027 28.7998 30.8064 22.8783C33.51 16.9568 30.892 9.96041 24.9588 7.2514L24.9375 7.24168C21.9533 5.87913 18.4404 7.16997 17.0913 10.1249C15.7421 13.0797 17.0676 16.5797 20.0518 17.9423L20.0305 17.9326C23.003 19.2897 24.3146 22.7949 22.9601 25.7615C21.6056 28.7281 18.0979 30.0328 15.1254 28.6756L15.168 28.695Z" fill="white" style="fill:white;fill-opacity:1;"/>
</g>
<g id="Group 3">
<path id="Vector_3" d="M24.0338 25.8694C24.2865 26.339 25.3943 25.1919 26.3236 24.4356C27.2627 23.6366 27.6813 22.4976 27.7733 22.0279C28.0211 21.8263 28.374 21.1216 28.5762 20.2694C28.7784 19.4172 28.8042 18.4058 28.6951 17.9625L29.1784 18.1831C29.3717 18.2714 29.7508 18.2084 29.8847 17.9153C30.0185 17.6222 29.4906 17.4993 29.104 17.3227C28.7947 17.1815 28.4498 16.7092 28.316 16.4907C28.1573 15.9854 27.7687 14.8241 27.4833 14.2215C27.1978 13.6189 26.3383 12.6362 25.9443 12.2201L26.9479 12.3242C27.2825 12.3589 27.8401 11.9051 27.736 11.6215C27.6319 11.3378 27.052 11.0731 26.4796 11.0478C26.0216 11.0276 25.4362 11.2011 25.2008 11.2904C25.0373 11.137 24.1061 10.6029 23.2753 10.4231C20.8666 9.90177 19.9419 11.3005 20.0941 12.4557C20.1997 13.2571 21.1089 13.8851 21.6995 14.1548C22.2901 14.4245 22.4837 14.3479 23.0151 14.5426C22.9705 14.6403 22.914 14.9687 23.0448 15.5007C23.2084 16.1657 23.4091 16.4935 23.6024 16.5817C23.7571 16.6523 24.4265 15.7148 24.4811 15.4248C25.0385 15.6793 25.4014 15.9613 25.6718 16.2984C25.9723 16.673 26.2049 17.0905 26.3093 17.6091C26.4184 18.0524 26.5005 19.0855 26.7324 19.1914C26.9644 19.2974 27.1298 18.5768 27.1075 18.3699C27.2414 18.5884 27.632 19.402 27.5351 20.3091C27.5147 20.4999 27.3968 20.9593 27.0916 21.4542C26.7487 22.0099 26.2598 22.1664 26.0574 22.3296C25.8064 22.532 24.6358 22.9185 24.7964 23.1807C24.9971 23.5085 25.082 24.341 24.8144 24.9272C24.5467 25.5133 23.781 25.3998 24.0338 25.8694Z" fill="#5767A0" style="fill:#5767A0;fill:color(display-p3 0.3412 0.4039 0.6275);fill-opacity:1;"/>
<path id="Vector_4" d="M15.9654 10.0187C15.7122 9.54999 14.6065 10.6927 13.6786 11.446C12.741 12.2418 12.3239 13.3773 12.2326 13.8456C11.9851 14.0464 11.6333 14.7488 11.4322 15.5985C11.2311 16.4482 11.2066 17.457 11.3161 17.8992L10.8329 17.6786C10.6396 17.5903 10.2607 17.6527 10.1273 17.9449C9.9939 18.237 10.5216 18.3603 10.9082 18.5368C11.2175 18.678 11.5628 19.1495 11.6968 19.3676C11.856 19.8718 12.2458 21.0305 12.5318 21.6319C12.8179 22.2332 13.678 23.2144 14.0723 23.6298L13.0691 23.5248C12.7347 23.4898 12.178 23.9417 12.2823 24.2247C12.3867 24.5078 12.9666 24.7725 13.5388 24.7984C13.9965 24.8191 14.5813 24.6468 14.8165 24.558C14.9802 24.7112 15.9115 25.245 16.742 25.4253C19.15 25.9482 20.0726 24.5542 19.9191 23.4019C19.8126 22.6024 18.9031 21.975 18.3125 21.7053C17.7218 21.4356 17.5285 21.5118 16.9971 21.3169C17.0416 21.2195 17.0977 20.8921 16.9663 20.3613C16.802 19.6979 16.601 19.3707 16.4077 19.2825C16.253 19.2119 15.585 20.1462 15.5309 20.4353C14.9735 20.1808 14.6104 19.8991 14.3397 19.5626C14.039 19.1886 13.806 18.772 13.701 18.2546C13.5915 17.8123 13.5082 16.7818 13.2763 16.6759C13.0443 16.5699 12.8798 17.2884 12.9023 17.4948C12.7683 17.2767 12.3769 16.4647 12.4727 15.5602C12.4928 15.3699 12.6101 14.9118 12.9146 14.4187C13.2566 13.8648 13.7451 13.7093 13.9472 13.5468C14.1978 13.3452 15.3673 12.9611 15.2064 12.6994C15.0054 12.3722 14.9196 11.5418 15.1864 10.9575C15.4532 10.3732 16.2187 10.4873 15.9654 10.0187Z" fill="white" style="fill:white;fill-opacity:1;"/>
</g>
</g>
</g>
</g>
<defs>
<filter id="filter0_d_27_816" x="0.35144" y="2.25348" width="39.3582" height="39.3582" filterUnits="userSpaceOnUse" color-interpolation-filters="sRGB">
<feFlood flood-opacity="0" result="BackgroundImageFix"/>
<feColorMatrix in="SourceAlpha" type="matrix" values="0 0 0 0 0 0 0 0 0 0 0 0 0 0 0 0 0 0 127 0" result="hardAlpha"/>
<feOffset dy="4"/>
<feGaussianBlur stdDeviation="2"/>
<feComposite in2="hardAlpha" operator="out"/>
<feColorMatrix type="matrix" values="0 0 0 0 0 0 0 0 0 0 0 0 0 0 0 0 0 0 0.25 0"/>
<feBlend mode="normal" in2="BackgroundImageFix" result="effect1_dropShadow_27_816"/>
<feBlend mode="normal" in="SourceGraphic" in2="effect1_dropShadow_27_816" result="shape"/>
</filter>
</defs>
</svg>
