<svg viewBox="0 0 26 26" fill="none" xmlns="http://www.w3.org/2000/svg">
<path fill-rule="evenodd" clip-rule="evenodd" d="M0 21C0 23.7614 2.23858 26 5 26H21C23.7614 26 26 23.7614 26 21V5C26 2.23858 23.7614 0 21 0H5C2.23858 0 0 2.23858 0 5L0 21ZM14.0947 11.1163C11.6102 9.54606 8.28414 9.84367 6.11865 12.0092C3.60814 14.5197 3.60814 18.59 6.11865 21.1005C8.62916 23.611 12.6995 23.611 15.21 21.1005C17.3755 18.935 17.6731 15.609 16.1028 13.1245C16.1434 13.092 16.1826 13.0569 16.2202 13.0193L19.1224 10.117L19.7329 13.4747C19.9347 14.5844 21.2997 15.0108 22.0973 14.2132C22.4043 13.9063 22.5512 13.4741 22.4951 13.0437L21.7306 7.18276C21.6095 6.2545 20.8608 5.53442 19.9285 5.44966L14.3796 4.94516C13.9776 4.90861 13.5802 5.0525 13.2948 5.33792C12.5023 6.13041 12.9546 7.48751 14.0641 7.64602L17.1167 8.08214L14.1999 10.999C14.1623 11.0366 14.1272 11.0758 14.0947 11.1163ZM8.13896 14.0295C9.53369 12.6347 11.795 12.6347 13.1897 14.0295C14.5844 15.4242 14.5844 17.6855 13.1897 19.0802C11.795 20.4749 9.53369 20.4749 8.13896 19.0802C6.74424 17.6855 6.74424 15.4242 8.13896 14.0295Z" fill="current"/>
</svg>
