<svg viewBox="0 0 340 310" fill="none" xmlns="http://www.w3.org/2000/svg">
<path fill-rule="evenodd" clip-rule="evenodd" d="M208.181 1.56897C220.771 1.56897 234.411 6.79885 239.657 9.41379C243.154 4.7069 251.897 0 264.138 0C300.859 0 307.853 31.3793 307.853 40.7931C307.853 50.2069 302.608 62.7586 290.367 72.1724C280.575 79.7035 263.555 78.9713 255.394 78.4483C257.143 86.2931 257.143 88.4949 257.143 95.7069C257.143 122.379 218.673 130.224 206.433 130.224C196.64 130.224 187.198 128.132 183.7 127.086C188.363 134.408 201.187 149.052 215.176 149.052C228.05 149.052 231.446 140.547 233.737 134.809C234.558 132.753 235.237 131.052 236.159 130.224C238.104 128.48 240.588 130.13 243.313 131.939C245.49 133.384 247.819 134.931 250.148 134.931C252.771 134.931 254.957 133.362 257.143 131.793C259.329 130.224 261.515 128.655 264.138 128.655C269.383 128.655 292.116 145.914 295.613 150.621C299.11 155.328 299.11 163.172 293.864 167.879C288.618 172.586 269.383 172.586 257.143 171.017C247.351 169.762 242.571 160.034 243.154 155.328C241.405 158.989 240.706 165.997 244.903 171.017C249.099 176.038 257.726 177.293 262.389 177.293C261.806 182.523 251.198 194.552 213.427 194.552C175.657 194.552 152.225 167.356 145.23 153.759C145.23 160.034 146.979 164.741 148.728 169.448C150.055 173.021 154.556 179.385 157.471 182C153.391 183.569 143.482 187.962 136.487 192.983C129.493 198.003 127.744 207.626 127.744 211.81C130.658 208.672 138.236 201.455 145.23 197.69C152.225 193.924 163.3 190.891 167.963 189.845C177.289 195.598 198.739 207.103 209.93 207.103C221.121 207.103 237.908 203.966 244.903 202.397C250.148 209.718 260.64 228.128 260.64 243.19C260.64 258.252 253.646 271.431 250.148 276.138C255.394 276.138 268.684 275.824 279.875 274.569C287.574 273.706 293.684 270.941 299.371 268.368C304.017 266.266 308.382 264.292 313.099 263.586C321.493 262.331 334.083 282.937 339.329 293.397V302.81C339.329 306.576 335.832 308.563 334.083 309.086H192.444C191.861 308.04 190.695 305.321 190.695 302.81C190.695 301.271 192.8 298.22 195.564 294.214C198.433 290.056 202.012 284.869 204.684 279.276C208.881 270.49 208.764 254.695 208.181 247.897C203.518 268.293 178.105 309.086 113.755 309.086C33.3177 309.086 3.59094 262.017 3.59094 232.207C3.59094 202.397 21.0773 182 40.3123 169.448C44.166 166.934 48.8621 164.23 53.9083 161.325L53.9084 161.324C74.0488 149.729 99.7659 134.923 99.7659 116.103C99.7659 92.569 82.2795 78.4483 61.2959 78.4483C40.3123 78.4483 22.8259 97.2759 21.0773 111.397C19.3286 125.517 15.8314 127.086 10.5855 127.086C3.59094 127.086 0.0936584 123.948 0.0936584 116.103C0.0936584 76.8793 42.0609 59.6207 61.2959 59.6207C80.5309 59.6207 94.5199 65.8966 108.509 78.4483C119.7 88.4897 123.664 101.46 124.247 106.69C126.578 103.029 132.29 94.7655 136.487 91C140.684 87.2345 148.728 81.0632 152.225 78.4483C129.493 78.4483 105.012 64.6414 105.012 40.7931C105.012 10.9828 131.241 0 146.979 0C159.569 0 170.877 6.27586 174.957 9.41379C180.786 6.79885 195.591 1.56897 208.181 1.56897ZM271.036 47.069C271.036 37.0276 261.71 26.1494 257.047 21.9655C261.127 19.3506 269.987 14.1207 272.785 14.1207C276.282 14.1207 299.014 15.6897 297.266 40.7931C295.867 60.8759 274.534 69.0345 264.042 70.6034C266.373 66.9425 271.036 57.1103 271.036 47.069ZM141.637 14.1207C148.632 14.1207 155.044 19.3506 157.375 21.9655C153.295 26.6724 145.135 38.2828 145.135 47.069C145.135 55.8552 148.632 66.4195 150.38 70.6034C145.717 69.5575 134.993 66.5241 129.397 62.7586C122.402 58.0517 118.905 53.3448 118.905 37.6552C118.905 21.9655 132.894 14.1207 141.637 14.1207ZM200.795 31.7167C196.849 30.0437 192.599 28.2414 188.85 28.2414C181.856 28.2414 162.621 32.9483 162.621 53.3448C162.621 69.6621 169.615 75.8333 173.113 76.8793C172.53 79.4942 171.364 86.2931 171.364 92.569C171.364 100.414 183.7 116.103 208.181 116.103C232.662 116.103 246.555 101.983 246.555 92.569C246.555 85.0379 245.973 78.9713 244.807 76.8793C249.47 74.2644 258.796 64.3276 258.796 51.7759C258.796 36.0862 243.058 28.2414 230.818 28.2414C224.184 28.2414 221.145 30.0847 218.362 31.7734C216.009 33.2006 213.839 34.5172 209.834 34.5172C207.399 34.5172 204.212 33.1655 200.795 31.7167ZM35.0156 230.638C33.8954 204.181 49.8441 193.636 71.7864 179.127C84.9778 170.405 100.335 160.25 115.453 144.345C111.41 162.48 100.073 170.367 91.083 176.621C88.4066 178.483 85.9382 180.2 83.9324 182C82.7722 183.041 81.4582 184.137 80.0514 185.31L80.0494 185.312L80.0485 185.313C70.8538 192.983 57.7029 203.953 57.7029 224.362C57.7029 243.19 69.9433 264.109 76.9378 273C62.9488 267.77 35.9716 253.215 35.0156 230.638ZM174.957 56.4828C174.957 60.8153 178.872 64.3276 183.7 64.3276C188.529 64.3276 192.444 60.8153 192.444 56.4828C192.444 52.1502 188.529 48.6379 183.7 48.6379C178.872 48.6379 174.957 52.1502 174.957 56.4828ZM223.919 56.4828C223.919 60.8153 227.833 64.3276 232.662 64.3276C237.491 64.3276 241.405 60.8153 241.405 56.4828C241.405 52.1502 237.491 48.6379 232.662 48.6379C227.833 48.6379 223.919 52.1502 223.919 56.4828ZM209.93 80.6059C204.135 80.6059 199.438 75.6385 199.438 72.1724C199.438 68.7064 204.135 67.4655 209.93 67.4655C215.724 67.4655 220.422 68.7064 220.422 72.1724C220.422 75.6385 215.724 80.6059 209.93 80.6059ZM209.93 100.414C219.722 100.414 230.331 93.092 234.411 89.431C234.411 95.7069 225.668 108.259 209.93 108.259C194.192 108.259 183.117 95.7069 181.952 89.431C188.946 95.7069 200.138 100.414 209.93 100.414Z" fill="current"/>
</svg>
