<svg width="340" height="310" viewBox="0 0 340 310" fill="none" xmlns="http://www.w3.org/2000/svg">
<path fill-rule="evenodd" clip-rule="evenodd" d="M131.241 1.63794C118.651 1.63794 105.012 6.86782 99.7658 9.48276C96.2686 4.77587 87.5254 0.0689697 75.2849 0.0689697C38.5636 0.0689697 31.5691 31.4483 31.5691 40.8621C31.5691 50.2759 36.815 62.8276 49.0554 72.2414C58.8478 79.7724 75.8678 79.0402 84.0281 78.5173C82.2795 86.3621 82.2795 88.5639 82.2795 95.7759C82.2795 122.448 120.749 130.293 132.99 130.293C142.782 130.293 152.225 128.201 155.722 127.155C151.059 134.477 138.236 149.121 124.247 149.121C111.373 149.121 107.977 140.616 105.686 134.878C104.865 132.822 104.186 131.121 103.263 130.293C101.319 128.549 98.834 130.199 96.1093 132.008C93.9329 133.453 91.6035 135 89.274 135C86.6511 135 84.4653 133.431 82.2795 131.862C80.0937 130.293 77.9079 128.724 75.2849 128.724C70.039 128.724 47.3068 145.983 43.8095 150.69C40.3122 155.397 40.3122 163.241 45.5581 167.948C50.804 172.655 70.039 172.655 82.2795 171.086C92.0718 169.831 96.8514 160.103 96.2686 155.397C98.0172 159.057 98.7166 166.066 94.5199 171.086C90.3232 176.107 81.6966 177.362 77.0336 177.362C77.6164 182.592 88.2248 194.621 125.995 194.621C163.766 194.621 187.198 167.425 194.192 153.828C194.192 160.103 192.443 164.81 190.695 169.517C189.368 173.09 184.866 179.454 181.952 182.069C186.032 183.638 195.941 188.031 202.935 193.052C209.93 198.072 211.678 207.695 211.678 211.879C208.764 208.741 201.187 201.524 194.192 197.759C187.198 193.993 176.123 190.96 171.46 189.914C162.134 195.667 140.684 207.172 129.493 207.172C118.301 207.172 101.514 204.034 94.5199 202.466C89.274 209.787 78.7822 228.197 78.7822 243.259C78.7822 258.321 85.7767 271.5 89.274 276.207C84.0281 276.207 70.7385 275.893 59.5472 274.638C51.8485 273.774 45.7386 271.01 40.0517 268.437C35.4051 266.335 31.0409 264.361 26.3232 263.655C17.9297 262.4 5.33953 283.006 0.0936279 293.466V302.879C0.0936279 306.645 3.5909 308.632 5.33953 309.155H146.979C147.562 308.109 148.728 305.39 148.728 302.879C148.728 301.34 146.622 298.289 143.858 294.283C140.989 290.125 137.41 284.938 134.739 279.345C130.542 270.559 130.658 254.764 131.241 247.966C135.904 268.362 161.318 309.155 225.668 309.155C306.105 309.155 335.832 262.086 335.832 232.276C335.832 202.466 318.345 182.069 299.11 169.517C295.256 167.002 290.56 164.299 285.514 161.394L285.514 161.393C265.374 149.798 239.657 134.992 239.657 116.172C239.657 92.6379 257.143 78.5173 278.127 78.5173C299.11 78.5173 316.597 97.3448 318.345 111.466C320.094 125.586 323.591 127.155 328.837 127.155C335.832 127.155 339.329 124.017 339.329 116.172C339.329 76.9483 297.362 59.6897 278.127 59.6897C258.892 59.6897 244.903 65.9655 230.913 78.5173C219.722 88.5586 215.759 101.529 215.176 106.759C212.844 103.098 207.132 94.8345 202.935 91.069C198.739 87.3035 190.695 81.1322 187.198 78.5173C209.93 78.5173 234.411 64.7104 234.411 40.8621C234.411 11.0517 208.181 0.0689697 192.443 0.0689697C179.853 0.0689697 168.545 6.34483 164.465 9.48276C158.637 6.86782 143.831 1.63794 131.241 1.63794ZM68.3862 47.1379C68.3862 37.0965 77.7122 26.2184 82.3752 22.0345C78.2951 19.4195 69.4353 14.1897 66.6375 14.1897C63.1403 14.1897 40.408 15.7586 42.1566 40.8621C43.5556 60.9448 64.8889 69.1034 75.3807 70.6724C73.0492 67.0115 68.3862 57.1793 68.3862 47.1379ZM197.785 14.1897C190.791 14.1897 184.379 19.4195 182.047 22.0345C186.128 26.7414 194.288 38.3517 194.288 47.1379C194.288 55.9241 190.791 66.4885 189.042 70.6724C193.705 69.6264 204.43 66.5931 210.026 62.8276C217.02 58.1207 220.517 53.4138 220.517 37.7241C220.517 22.0345 206.528 14.1897 197.785 14.1897ZM138.628 31.7856C142.573 30.1127 146.824 28.3103 150.572 28.3103C157.567 28.3103 176.802 33.0172 176.802 53.4138C176.802 69.731 169.807 75.9023 166.31 76.9483C166.893 79.5632 168.058 86.3621 168.058 92.6379C168.058 100.483 155.722 116.172 131.241 116.172C106.76 116.172 92.8671 102.052 92.8671 92.6379C92.8671 85.1069 93.4499 79.0402 94.6157 76.9483C89.9527 74.3333 80.6266 64.3965 80.6266 51.8448C80.6266 36.1552 96.3643 28.3103 108.605 28.3103C115.239 28.3103 118.277 30.1537 121.061 31.8424C123.413 33.2695 125.584 34.5862 129.588 34.5862C132.023 34.5862 135.211 33.2344 138.628 31.7856ZM304.407 230.707C305.527 204.25 289.578 193.705 267.636 179.196C254.445 170.474 239.087 160.319 223.97 144.414C228.012 162.549 239.35 170.436 248.339 176.69C251.016 178.552 253.484 180.269 255.49 182.069C256.65 183.11 257.964 184.206 259.371 185.379L259.373 185.381L259.374 185.382C268.569 193.052 281.72 204.021 281.72 224.431C281.72 243.259 269.479 264.178 262.485 273.069C276.474 267.839 303.451 253.284 304.407 230.707ZM164.465 56.5517C164.465 60.8843 160.551 64.3966 155.722 64.3966C150.893 64.3966 146.979 60.8843 146.979 56.5517C146.979 52.2192 150.893 48.7069 155.722 48.7069C160.551 48.7069 164.465 52.2192 164.465 56.5517ZM115.504 56.5517C115.504 60.8843 111.589 64.3966 106.76 64.3966C101.932 64.3966 98.0172 60.8843 98.0172 56.5517C98.0172 52.2192 101.932 48.7069 106.76 48.7069C111.589 48.7069 115.504 52.2192 115.504 56.5517ZM129.493 80.6748C135.287 80.6748 139.984 75.7075 139.984 72.2414C139.984 68.7753 135.287 67.5345 129.493 67.5345C123.698 67.5345 119.001 68.7753 119.001 72.2414C119.001 75.7075 123.698 80.6748 129.493 80.6748ZM129.493 100.483C119.7 100.483 109.092 93.1609 105.012 89.5C105.012 95.7759 113.755 108.328 129.493 108.328C145.23 108.328 156.305 95.7759 157.471 89.5C150.476 95.7759 139.285 100.483 129.493 100.483Z" fill="current"/>
</svg>
