<svg width="368" height="292" viewBox="0 0 368 292" fill="none" xmlns="http://www.w3.org/2000/svg">
<path fill-rule="evenodd" clip-rule="evenodd" d="M76.9399 39.2241L87.4317 42.3621C87.4317 38.7011 88.1312 27.3 90.929 23.5345C92.6596 21.2053 96.7095 17.9557 99.6853 15.568C101.52 14.0955 102.947 12.9507 103.169 12.5517L118.907 0L120.656 15.6897C117.158 17.7816 109.465 22.9069 106.667 26.6724C103.869 30.4379 103.169 38.7011 103.169 42.3621C108.998 36.6092 121.355 24.4759 124.153 21.9655C126.951 19.4552 142.805 11.5057 150.383 7.84483C151.548 16.2126 153.53 35.1448 152.131 43.931C150.732 52.7172 141.639 61.1897 138.142 64.3276L150.383 73.7414C150.627 73.644 150.895 73.5359 151.187 73.4185L151.19 73.4171C157.166 71.0123 172.85 64.7001 188.853 65.8965C199.552 66.6965 205.373 67.9639 208.49 68.6425C210.264 69.0286 211.162 69.2241 211.585 69.0345L232.568 73.7414C241.312 68.5115 263.344 61.1897 281.53 61.1897C299.716 61.1897 315.92 65.3736 321.749 69.0345L326.995 61.1897L328.743 59.6207L333.989 58.0517C335.094 57.3436 336.114 56.5587 337.152 55.7595C339.947 53.6074 342.878 51.351 347.978 50.2069C349.675 49.8264 356.722 50.2069 358.47 51.7759L356.721 56.4828L342.732 58.0517C343.44 58.4959 344.207 58.9477 344.997 59.4128C350.717 62.7817 357.622 66.8483 351.476 73.7414C346.38 79.4564 335.738 76.8793 333.989 64.3276L330.492 73.7414C342.732 82.1092 367.213 106.376 367.213 136.5C367.213 179.793 344.392 203.341 327.372 220.901C324.037 224.342 320.925 227.553 318.251 230.638L326.995 240.052L288.525 291.828L285.027 282.414L271.038 291.828L276.284 254.172C262.878 241.621 236.066 208.986 236.066 178.862C236.066 157.009 240.36 148.147 244.276 145.327C237.391 148.484 227.87 159.969 225.574 189.845C222.776 226.245 244.226 247.897 255.301 254.172C244.226 258.356 216.481 266.41 194.098 265.155C171.716 263.9 145.137 253.126 134.645 247.897L150.383 214.948C149.469 215.831 148.38 216.892 147.151 218.091L147.15 218.091C138.18 226.834 121.755 242.842 111.913 249.465C100.721 256.997 78.6885 263.586 68.1967 265.155V254.172L52.459 251.034L83.9345 224.362C81.603 223.839 71.694 220.91 64.6994 213.379C57.7049 205.848 55.9563 196.644 55.9563 192.983C48.3788 188.799 31.1257 177.293 22.7322 164.741C14.3388 152.19 12.2404 124.994 12.2404 112.966C9.90888 109.305 4.89613 100.1 3.49722 92.569C2.09831 85.0379 6.41161 76.8793 8.74312 73.7414L0 64.3276L36.7213 34.5172C38.47 38.7011 43.0165 47.6965 47.2131 50.2069C51.4098 52.7172 68.7796 43.931 76.9399 39.2241ZM143.388 263.586C140.049 261.788 137.474 260.448 135.276 259.304C131.718 257.452 129.144 256.112 125.902 254.172L99.6722 274.569L113.661 277.707V288.69C118.907 288.69 131.847 287.748 141.639 283.983C151.432 280.217 164.372 274.046 169.618 271.431C164.372 270.908 151.069 267.721 143.388 263.586ZM136.393 28.2414L113.661 48.6379C118.907 54.9138 131.847 65.269 134.645 56.4828C137.443 47.6966 137.559 30.3333 136.393 28.2414ZM33.2241 51.866V65.8966H24.4809L32.1433 52.2651L33.2241 51.866ZM67.4556 65.8966C70.9529 64.3276 80.4057 62.6203 84.6024 66.3858C88.7991 70.1514 86.351 78.4146 84.6024 82.0755C84.6024 81.0295 82.8853 77.1931 78.6885 72.1724C74.4918 67.1517 69.2043 65.8966 67.4556 65.8966ZM347.065 71.8831C348.51 70.7329 348.123 68.2242 346.2 66.2796C344.277 64.335 341.547 63.691 340.103 64.8411C338.658 65.9912 339.045 68.5 340.968 70.4446C342.891 72.3892 345.621 73.0332 347.065 71.8831ZM82.1859 108.259C82.1859 116.057 75.1399 122.379 66.4482 122.379C57.7565 122.379 50.7104 116.057 50.7104 108.259C50.7104 100.46 57.7565 94.1379 66.4482 94.1379C75.1399 94.1379 82.1859 100.46 82.1859 108.259Z" fill="current"/>
</svg>
