<svg width="26" height="26" viewBox="0 0 26 26" fill="none" xmlns="http://www.w3.org/2000/svg">
<path fill-rule="evenodd" clip-rule="evenodd" d="M5 0C2.23858 0 0 2.23858 0 5V21C0 23.7614 2.23858 26 5 26H21C23.7614 26 26 23.7614 26 21V5C26 2.23858 23.7614 0 21 0H5ZM11.096 4C10.6034 4 10.1865 4.37157 10.1202 4.86983L9.00914 13.2131C8.92879 13.8165 9.38837 14.3537 9.98498 14.3537H11.5353L10.6284 20.8495C10.4814 21.9022 11.8272 22.4366 12.4158 21.5594L18.826 12.0066C19.2736 11.3395 18.8057 10.4334 18.0135 10.4334H16.1773L17.2693 5.21518C17.4002 4.5896 16.9329 4 16.3062 4H11.096Z" fill="current"/>
</svg>
