<svg width="374" height="347" viewBox="0 0 374 347" fill="none" xmlns="http://www.w3.org/2000/svg">
<path fill-rule="evenodd" clip-rule="evenodd" d="M306.171 48.7413C300.925 51.3563 289.384 58.4689 285.187 65.9999C280.99 73.531 283.438 85.8735 285.187 91.1034C286.353 86.3965 290.433 74.7862 297.428 65.9999C306.171 55.0172 314.914 53.4482 321.908 53.4482C328.903 53.4482 353.384 56.5862 353.384 84.8275C353.384 107.421 342.892 119.345 337.646 122.483C342.892 133.988 353.384 161.707 353.384 180.534C353.384 199.362 342.892 221.851 337.646 230.741H290.433C293.93 233.356 303.373 238.586 313.165 238.586C322.958 238.586 339.395 237.54 346.389 237.017C353.384 233.879 358.63 227.603 369.122 213.483C371.29 210.564 376.116 219.759 372.619 226.034L356.881 254.276C349.304 256.368 331.001 260.865 318.411 262.121C305.821 263.376 287.519 263.69 279.941 263.69L313.165 271.534L297.428 291.931L271.198 284.086C267.118 288.27 256.16 298.207 244.968 304.483C233.777 310.759 213.493 315.465 204.75 317.034C212.91 309.19 229.231 287.538 229.231 263.69C229.231 233.879 206.498 211.914 175.023 211.914C149.843 211.914 136.553 221.328 133.056 226.034C136.553 223.942 148.794 219.759 169.777 219.759C196.007 219.759 216.99 243.293 216.99 265.259C216.99 282.831 196.007 312.328 185.515 324.879C194.258 325.925 206.498 326.448 220.488 324.879C234.477 323.31 255.46 315.465 276.444 293.5L307.919 307.621C299.759 314.419 277.843 329.586 255.46 335.862C227.482 343.707 208.247 346.845 182.018 346.845C164.912 346.845 161.937 346.845 159.026 346.41C157.474 346.177 155.94 345.822 152.291 345.276C143.897 344.021 135.97 334.293 133.056 329.586C123.73 329.586 99.0622 329.241 78.8481 320.172C63.983 313.503 55.4363 303.433 48.9109 295.744C47.7603 294.389 46.6725 293.107 45.6241 291.931C44.5108 290.682 42.6001 288.877 40.1741 286.585C27.358 274.477 0.159561 248.782 0.159561 219.759C0.159561 185.241 19.3945 160.138 61.3618 133.465C82.9671 119.734 101.792 111.409 118.074 104.207C133.42 97.4205 146.507 91.6322 157.537 83.2586C178.794 67.1195 178.644 56.4685 178.535 48.7395C178.528 48.2034 178.52 47.6813 178.52 47.1724C178.52 39.3275 164.531 11.0862 141.799 11.0862C123.613 11.0862 106.243 29.9137 99.8317 39.3275H96.3345C98.666 26.2528 111.023 0.103394 141.799 0.103394C180.269 0.103394 194.258 33.0517 194.258 47.1724C194.258 61.293 190.761 83.2586 145.296 106.793C133.227 113.04 122.268 118.293 112.22 123.108C84.4191 136.431 63.6063 146.405 45.6241 164.845C22.6595 188.393 22.7758 203.658 22.8783 217.115C22.8851 218.003 22.8918 218.884 22.8918 219.759C22.8918 231.055 38.0466 253.753 45.6241 263.69C46.7898 250.615 54.3672 219.131 75.3509 197.793C101.58 171.121 134.804 161.707 157.537 161.707C180.072 161.707 203.807 169.244 223.47 175.488C237.374 179.904 249.242 183.672 257.209 183.672C272.597 183.672 282.273 175.305 285.187 171.121C283.438 172.167 277.143 174.259 265.952 174.259C254.761 174.259 228.648 157.523 216.99 149.155H201.253C199.854 149.155 197.172 138.695 196.007 133.465C191.344 131.896 183.766 127.19 190.761 120.914C197.755 114.638 204.167 120.391 206.498 124.052C211.162 123.529 222.236 121.228 229.231 116.207C232.704 113.714 236.73 110.23 240.649 106.838C246.596 101.691 252.298 96.7559 255.46 95.8103L265.952 92.6724C264.203 91.1034 260.706 85.7689 260.706 76.9827C260.706 65.9999 271.198 50.3103 285.187 47.1724C296.855 44.5552 302.476 47.081 305.986 48.6582L306.171 48.7413ZM302.673 114.638C303.839 109.931 305.471 98.6344 302.673 91.1034C299.176 81.6896 307.919 72.2758 316.662 72.2758C325.406 72.2758 335.897 73.8448 335.897 87.9655C335.897 99.262 313.165 109.931 302.673 114.638ZM258.958 120.914C260.123 118.299 263.154 113.069 265.952 113.069C269.449 113.069 278.193 114.638 278.193 116.207C278.193 116.301 278.199 116.417 278.206 116.552L278.206 116.553C278.321 118.673 278.68 125.338 258.958 120.914ZM281.69 146.017C281.69 151.216 276.992 155.431 271.198 155.431C265.404 155.431 260.706 151.216 260.706 146.017C260.706 140.818 265.404 136.603 271.198 136.603C276.992 136.603 281.69 140.818 281.69 146.017Z" fill="current"/>
</svg>
