<svg width="323" height="351" viewBox="0 0 323 351" fill="none" xmlns="http://www.w3.org/2000/svg">
<path fill-rule="evenodd" clip-rule="evenodd" d="M157.842 345.483V350.19H238.279V345.483C237.696 343.914 234.782 340.776 227.787 340.776C226.945 340.776 226.055 340.79 225.131 340.805C216.463 340.947 204.886 341.136 203.306 329.793C202.257 322.262 204.985 319.814 207.713 317.367C209.531 315.735 211.35 314.103 212.049 310.965C212.603 308.481 212.806 306.468 212.992 304.628C213.392 300.66 213.711 297.498 217.295 292.138C218.295 290.643 222.218 286.925 227.912 281.528C252.092 258.61 308.224 205.409 308.224 163.483C308.224 143.382 304.397 134.726 300.012 124.808C299.263 123.114 298.498 121.383 297.732 119.552C293.536 109.51 293.652 100.724 294.235 97.5861C292.487 98.1091 287.59 97.8999 281.995 92.8792C276.399 87.8585 276.166 82.4195 276.749 80.3275C277.915 83.4654 282.345 89.7413 290.738 89.7413C301.23 89.7413 308.224 83.4654 308.224 75.6206C308.224 71.2905 304.495 66.9603 301.447 63.4217C298.974 60.5496 296.949 58.1989 297.732 56.793C299.131 54.2827 314.636 47.3792 322.213 44.2413L301.23 34.8275C304.727 31.6896 310.672 24.1586 306.476 19.1379C302.279 14.1172 294.235 18.0919 290.738 20.7068C290.738 17.0459 289.339 9.41028 283.743 8.1551C278.148 6.89993 272.086 14.954 269.754 19.1379C269.754 14.954 268.006 6.27235 261.011 5.01718C252.268 3.44821 229.536 12.862 229.536 28.5517C229.536 44.2413 236.53 48.9482 241.776 48.9482C245.973 48.9482 256.348 42.6724 261.011 39.5344C255.765 44.2413 244.574 55.8517 241.776 64.6379C239.702 71.1519 239.473 77.1139 239.265 82.5241C239.123 86.2355 238.99 89.6873 238.279 92.8792C236.88 99.1551 229.536 108.046 226.038 111.707H238.279C234.782 122.167 222.191 143.086 199.809 143.086C173.208 143.086 173.479 126.067 173.57 120.346C173.575 120.049 173.579 119.783 173.579 119.552C173.579 111.858 177.75 104.476 182.372 96.2934C188.118 86.1215 194.563 74.7129 194.563 59.931C194.563 44.2413 168.333 0.310303 136.858 0.310303C133.361 0.310303 119.372 1.87921 119.372 8.1551V8.15524C119.372 14.4311 119.372 20.7068 128.115 20.7068C133.603 20.7068 134.268 18.2339 134.868 16.0047C135.224 14.6825 135.556 13.4461 136.858 12.862C140.355 11.2931 147.35 11.2931 156.093 16C164.836 20.7068 173.579 28.5517 177.077 36.3965C179.874 42.6723 179.408 48.4252 178.825 50.5172C173.579 41.1034 156.093 25.4137 128.115 25.4137C98.388 25.4137 60.8427 47.9596 45.929 66.2068C26.694 89.7413 19.6995 110.138 19.6995 127.396C19.6995 139.059 21.363 144.826 22.5823 146.966L12.7049 133.672C3.96175 154.069 0.464478 171.328 0.464478 190.155C0.464478 213.69 7.45902 243.5 19.6995 254.483C31.9399 265.465 44.1804 267.034 52.9235 267.034C61.6667 267.034 72.1585 263.896 72.1585 256.052C72.1585 247.735 64.8791 242.275 59.9672 238.591C59.3194 238.106 58.7127 237.651 58.1694 237.224C58.7523 242.454 57.1203 252.914 45.929 252.914C31.9399 252.914 19.6995 230.948 19.6995 210.552C19.6995 190.155 31.9399 171.328 51.1749 157.207C45.929 166.621 35.4372 188.9 35.4372 202.707C35.4372 216.514 45.929 227.287 51.1749 230.948L54.6722 223.103L63.4153 213.69C63.4153 218.919 64.8142 230.634 70.4099 235.655C77.4044 241.931 87.8962 248.207 101.885 248.207C124.618 248.207 143.853 241.931 171.831 226.241C161.339 237.224 138.257 250.403 129.863 252.914C119.372 256.052 156.093 260.759 184.071 251.345C214.4 241.14 232.455 227.395 245.078 217.785C247.011 216.314 248.817 214.94 250.519 213.69C241.776 227.81 229.536 242.715 199.809 256.052C183.022 263.583 150.847 266.511 136.858 267.034L159.59 289C159.007 294.23 158.541 305.945 161.339 310.965C164.137 315.986 169.499 321.425 171.831 323.517V340.776L157.842 345.483ZM281.995 47.3793C284.892 47.3793 287.241 45.2719 287.241 42.6724C287.241 40.0728 284.892 37.9655 281.995 37.9655C279.097 37.9655 276.749 40.0728 276.749 42.6724C276.749 45.2719 279.097 47.3793 281.995 47.3793ZM68.6612 100.724C68.6612 84.4069 82.6503 60.454 89.6449 50.5172C79.7359 58.362 59.9181 80.6413 59.9181 107C59.9181 139.948 79.1531 147.793 86.1476 147.793C93.1421 147.793 98.388 143.086 100.137 138.379C101.536 134.614 100.72 125.305 100.137 122.69C97.2223 125.828 89.9946 132.103 84.399 132.103C77.4044 132.103 68.6612 121.121 68.6612 100.724ZM171.831 168.19C168.333 167.144 157.142 167.876 140.355 179.172C132.34 184.566 125.091 189.959 118.899 194.566L118.899 194.566C108.88 202.02 101.63 207.414 98.388 207.414C91.3935 207.414 84.399 204.276 87.8962 193.293C90.2982 185.75 75.6558 193.293 75.6558 204.276C75.6558 210.552 82.6503 216.828 91.3935 216.828C107.024 216.828 116.88 206.468 123.779 199.217C125.37 197.545 126.804 196.038 128.115 194.862C135.109 188.586 150.847 174.465 171.831 168.19ZM175.328 187.017C171.831 191.724 163.437 202.079 157.842 205.845C152.246 209.61 139.19 211.598 133.361 212.121C138.024 209.506 148.749 203.334 154.344 199.569C156.093 198.392 157.841 197.118 159.59 195.843L159.59 195.843C164.836 192.018 170.082 188.194 175.328 187.017ZM192.814 342.345V301.552C189.317 309.397 182.323 326.655 182.323 332.931C182.323 339.207 189.317 341.822 192.814 342.345Z" fill="current"/>
</svg>
