<svg viewBox="0 0 26 26" fill="none" xmlns="http://www.w3.org/2000/svg">
<path fill-rule="evenodd" clip-rule="evenodd" d="M0 21C0 23.7614 2.23853 26 5 26H21C23.7615 26 26 23.7614 26 21V5C26 2.23859 23.7615 0 21 0H5C2.23853 0 0 2.23859 0 5V21ZM6.73193 6.56943C9.26221 4.03925 13.3643 4.03925 15.8945 6.56943C18.0747 8.74969 18.3762 12.0973 16.7991 14.6004L20.6504 18.4518C21.2126 19.0141 21.2126 19.9257 20.6504 20.4879C20.0881 21.0502 19.1765 21.0502 18.6143 20.4879L14.7629 16.6365C12.2598 18.2137 8.91235 17.9122 6.73193 15.732C4.2019 13.2018 4.2019 9.09958 6.73193 6.56943ZM8.76807 8.60562C10.1738 7.19998 12.4526 7.19998 13.8584 8.60562C15.2639 10.0113 15.2639 12.2903 13.8584 13.6959C12.4526 15.1016 10.1738 15.1016 8.76807 13.6959C7.36255 12.2903 7.36255 10.0113 8.76807 8.60562Z" fill="current"/>
</svg>
