<svg width="16" height="17" viewBox="0 0 16 17" fill="none" xmlns="http://www.w3.org/2000/svg">
<path fill-rule="evenodd" clip-rule="evenodd" d="M10.4716 1.89769C8.25237 -0.632481 4.65435 -0.632481 2.43515 1.89769C0.215953 4.42785 0.215953 8.53006 2.43515 11.0602C4.34742 13.2405 7.28349 13.542 9.47896 11.9648L12.857 15.8162C13.3501 16.3785 14.1497 16.3785 14.6428 15.8162C15.136 15.2539 15.136 14.3423 14.6428 13.7801L11.2649 9.92877C12.6483 7.42563 12.3839 4.07799 10.4716 1.89769ZM8.68567 3.9339C7.45278 2.52826 5.45388 2.52826 4.22099 3.93391C2.9881 5.33955 2.9881 7.61856 4.22099 9.02421C5.45387 10.4299 7.45278 10.4299 8.68567 9.02421C9.91855 7.61856 9.91855 5.33955 8.68567 3.9339Z" fill="#8894BF"/>
</svg>
