<svg viewBox="0 0 42 40" fill="none" xmlns="http://www.w3.org/2000/svg">
<path d="M18.7205 1.31569C19.646 -0.43856 22.1584 -0.438565 23.084 1.31569L27.8759 10.3981C28.2329 11.0746 28.8834 11.5473 29.6371 11.6777L39.7558 13.4285C41.7102 13.7667 42.4866 16.1561 41.1042 17.5784L33.9471 24.9425C33.414 25.491 33.1655 26.2558 33.2744 27.0129L34.7361 37.1774C35.0185 39.1406 32.9859 40.6174 31.206 39.7422L21.9907 35.211C21.3043 34.8734 20.5002 34.8734 19.8138 35.211L10.5985 39.7422C8.81855 40.6174 6.78598 39.1406 7.06832 37.1774L8.53007 27.0129C8.63895 26.2558 8.39046 25.491 7.85736 24.9425L0.700238 17.5784C-0.682142 16.1561 0.0942253 13.7667 2.04863 13.4285L12.1673 11.6777C12.921 11.5473 13.5716 11.0746 13.9285 10.3981L18.7205 1.31569Z" fill="current"/>
</svg>
