<svg fill="none" xmlns="http://www.w3.org/2000/svg">
<path fill-rule="evenodd" clip-rule="evenodd" d="M0 2C0 0.895432 0.895431 0 2 0H3C4.10457 0 5 0.895431 5 2V3.2C5 4.30457 4.10457 5.2 3 5.2H2C0.89543 5.2 0 4.30457 0 3.2V2ZM0 12.4C0 11.2954 0.895431 10.4 2 10.4H3C4.10457 10.4 5 11.2954 5 12.4V13.6C5 14.7045 4.10457 15.6 3 15.6H2C0.89543 15.6 0 14.7045 0 13.6V12.4ZM2 20.7999C0.895431 20.7999 0 21.6954 0 22.7999V23.9999C0 25.1045 0.89543 25.9999 2 25.9999H3C4.10457 25.9999 5 25.1045 5 23.9999V22.7999C5 21.6954 4.10457 20.7999 3 20.7999H2Z" fill="current"/>
</svg>
