<svg width="120" height="18" viewBox="0 0 120 18" fill="none" xmlns="http://www.w3.org/2000/svg">
<path d="M7.93244 17.6816C6.26286 17.6816 4.83401 17.3236 3.64589 16.6075C2.46554 15.8836 1.56086 14.8763 0.931858 13.5858C0.310619 12.2874 0 10.7805 0 9.06509V8.62836C0 6.95226 0.310619 5.46895 0.931858 4.17844C1.5531 2.88005 2.44224 1.86102 3.5993 1.12133C4.75636 0.373778 6.13861 0 7.74607 0C8.87206 0 9.91652 0.169183 10.8794 0.50755C11.8424 0.845917 12.681 1.32199 13.3955 1.93577V5.90175H11.159L10.8561 3.24596C10.5999 3.05711 10.3164 2.89579 10.0058 2.76202C9.6952 2.62825 9.35352 2.52595 8.98078 2.45513C8.6158 2.38431 8.21588 2.3489 7.78101 2.3489C6.76374 2.3489 5.89012 2.60857 5.16016 3.12793C4.43797 3.64728 3.88662 4.37516 3.50612 5.31157C3.12561 6.24799 2.93535 7.34571 2.93535 8.60475V9.06509C2.93535 10.3713 3.13725 11.4966 3.54106 12.4409C3.94487 13.3773 4.52339 14.0973 5.27665 14.6009C6.03766 15.1045 6.94622 15.3564 8.00233 15.3564C8.51485 15.3564 9.01961 15.2973 9.5166 15.1793C10.0214 15.0534 10.464 14.8921 10.8445 14.6954L11.159 12.2874H13.3722V16.2298C12.7199 16.6626 11.92 17.0128 10.9726 17.2803C10.033 17.5479 9.01961 17.6816 7.93244 17.6816Z" fill="white"/>
<path d="M15.562 17.4338V15.616L17.4141 15.2619V2.43152L15.562 2.07742V0.247873H22.2015V2.07742L20.3494 2.43152V11.2015L20.4193 11.2251L27.8043 3.43482V2.43152L25.9639 2.07742V0.247873H32.5917V2.07742L30.7513 2.43152V15.2619L32.5917 15.616V17.4338H25.9639V15.616L27.8043 15.2619V6.7398L27.7344 6.71619L20.3494 14.5065V15.2619L22.2015 15.616V17.4338H15.562Z" fill="white"/>
<path d="M41.9453 17.6816C40.2757 17.6816 38.8468 17.3236 37.6587 16.6075C36.4784 15.8836 35.5737 14.8763 34.9447 13.5858C34.3234 12.2874 34.0128 10.7805 34.0128 9.06509V8.62836C34.0128 6.95226 34.3234 5.46895 34.9447 4.17844C35.5659 2.88005 36.4551 1.86102 37.6121 1.12133C38.7692 0.373778 40.1514 0 41.7589 0C42.8849 0 43.9293 0.169183 44.8923 0.50755C45.8552 0.845917 46.6938 1.32199 47.4083 1.93577V5.90175H45.1718L44.869 3.24596C44.6127 3.05711 44.3293 2.89579 44.0186 2.76202C43.708 2.62825 43.3663 2.52595 42.9936 2.45513C42.6286 2.38431 42.2287 2.3489 41.7938 2.3489C40.7765 2.3489 39.9029 2.60857 39.173 3.12793C38.4508 3.64728 37.8994 4.37516 37.5189 5.31157C37.1384 6.24799 36.9482 7.34571 36.9482 8.60475V9.06509C36.9482 10.3713 37.1501 11.4966 37.5539 12.4409C37.9577 13.3773 38.5362 14.0973 39.2895 14.6009C40.0505 15.1045 40.959 15.3564 42.0151 15.3564C42.5277 15.3564 43.0324 15.2973 43.5294 15.1793C44.0342 15.0534 44.4768 14.8921 44.8573 14.6954L45.1718 12.2874H47.385V16.2298C46.7327 16.6626 45.9328 17.0128 44.9854 17.2803C44.0458 17.5479 43.0324 17.6816 41.9453 17.6816Z" fill="white"/>
<path d="M53.1858 17.4338V15.616L55.0379 15.2619V2.52595H51.6249L51.3687 4.7214H49.1672V0.247873H63.8556V4.7214H61.6424L61.3861 2.52595H57.9732V15.2619L59.8253 15.616V17.4338H53.1858Z" fill="white"/>
<path d="M65.4164 17.4338V15.616L67.2685 15.2619V2.43152L65.4164 2.07742V0.247873H78.3343V4.67419H76.0513L75.8532 2.53775H70.2038V7.40079H76.1561V9.70248H70.2038V15.1675H76.1677L76.3658 12.9838H78.6255V17.4338H65.4164Z" fill="white"/>
<path d="M80.7222 17.4338V15.616L82.5626 15.2619V2.43152L80.7222 2.07742V0.247873H86.7676L91.7414 12.677H91.8113L96.6337 0.247873H102.749V2.07742L100.897 2.43152V15.2619L102.749 15.616V17.4338H96.1211V15.616L98.0664 15.2619V11.2605L98.0897 3.74171L98.0315 3.72991L92.7781 17.0443H90.6465L85.2417 3.80073L85.1835 3.81253L85.3349 11.0599V15.2619L87.35 15.616V17.4338H80.7222Z" fill="white"/>
<path d="M103.518 17.4338V15.616L104.752 15.439L110.367 0.247873H113.221L118.765 15.439L120 15.616V17.4338H114.607V15.616L115.818 15.3918L114.921 12.6888H108.608L107.688 15.3918L108.911 15.616V17.4338H103.518ZM109.377 10.4107H114.164L111.963 4.0486L111.811 3.58826H111.741L111.578 4.07221L109.377 10.4107Z" fill="white"/>
</svg>
